<?xml version="1.0" encoding="UTF-8"?>
<svg version="1.1" xmlns="http://www.w3.org/2000/svg" width="612" height="408">
<path d="M0 0 C2.90524879 1.77149316 3.92838897 3.58115608 5.46875 6.5625 C13.51328616 21.27250899 29.17566167 32.96364111 42.5625 42.5625 C43.19542969 43.04203125 43.82835937 43.5215625 44.48046875 44.015625 C48.64383863 47.14062472 53.09675602 49.58974776 57.69140625 52.02734375 C59.52849067 53.00962154 61.35084797 54.02028879 63.15234375 55.06640625 C70.94036347 59.55183716 79.08357709 62.680141 87.5625 65.5625 C88.21959961 65.78824707 88.87669922 66.01399414 89.55371094 66.24658203 C122.00334186 77.17842348 156.23076549 77.06851998 189.5625 70.5625 C190.35817383 70.41296875 191.15384766 70.2634375 191.97363281 70.109375 C211.8118062 66.28855872 235.65537268 59.83391822 252.5625 48.5625 C251.53125 48.19125 250.5 47.82 249.4375 47.4375 C221.56219852 36.87266154 221.56219852 36.87266154 214.35546875 24.48828125 C213.5625 22.5625 213.5625 22.5625 213.75 20.375 C214.018125 19.776875 214.28625 19.17875 214.5625 18.5625 C218.59901431 17.21699523 220.94802193 18.69991085 224.6875 20.25 C242.92277971 27.39718372 262.05279915 30.13237172 281.60131836 29.48925781 C287.45936023 29.34526884 291.61534619 30.20795822 296.4375 33.5625 C299.48717014 37.86791667 299.30201137 41.4440842 298.5625 46.5625 C297.5 49.5 297.5 49.5 295.5625 52.5625 C294.88380859 53.72652344 294.88380859 53.72652344 294.19140625 54.9140625 C289.4361976 62.82800688 283.707167 69.71255614 277.5625 76.5625 C276.85867188 77.35140625 276.15484375 78.1403125 275.4296875 78.953125 C269.38539775 85.36447688 262.16274194 90.29927844 253.5625 92.5625 C252.9025 91.9025 252.2425 91.2425 251.5625 90.5625 C251.91926088 86.51221476 253.52334774 83.32673588 255.375 79.75 C255.90996094 78.70714844 256.44492187 77.66429687 256.99609375 76.58984375 C257.77146484 75.09130859 257.77146484 75.09130859 258.5625 73.5625 C259.35706344 71.98061837 260.14922558 70.39752492 260.9375 68.8125 C261.47375 67.74 262.01 66.6675 262.5625 65.5625 C258.71377973 66.70671413 255.13260335 68.18615809 251.5 69.875 C233.81450483 77.99564905 214.66911915 84.75148692 195.5625 88.5625 C194.65983398 88.74441895 193.75716797 88.92633789 192.82714844 89.11376953 C150.71371034 97.24635152 107.71660599 93.28428851 68.5625 75.5625 C67.90330566 75.26649902 67.24411133 74.97049805 66.56494141 74.66552734 C52.36343812 68.19249543 36.78767919 59.5251019 25.5625 48.5625 C25.5625 47.9025 25.5625 47.2425 25.5625 46.5625 C25.02238281 46.3459375 24.48226562 46.129375 23.92578125 45.90625 C20.73551981 44.09228317 18.31093268 41.65087845 15.75 39.0625 C14.95323853 38.25945435 14.95323853 38.25945435 14.14038086 37.44018555 C5.77682017 28.8369009 -4.1748103 16.03267273 -5.8125 3.75 C-5.68875 3.028125 -5.565 2.30625 -5.4375 1.5625 C-2.4375 -0.4375 -2.4375 -0.4375 0 0 Z " fill="#DDA846" transform="translate(103.4375,190.4375)"/>
<path d="M0 0 C7.59 0 15.18 0 23 0 C23 1.32 23 2.64 23 4 C21.35 4 19.7 4 18 4 C17.67 12.58 17.34 21.16 17 30 C28.88 29.67 40.76 29.34 53 29 C53 21.41 53 13.82 53 6 C50.69 5.34 48.38 4.68 46 4 C46.33 2.68 46.66 1.36 47 0 C54.92 0 62.84 0 71 0 C71 1.32 71 2.64 71 4 C69.35 4.33 67.7 4.66 66 5 C65.84601951 12.36267515 65.6978396 19.72544304 65.5570364 27.08838272 C65.49147217 30.50739172 65.42392064 33.92633723 65.35180664 37.34521484 C65.26896337 41.27691054 65.19480114 45.20874699 65.12109375 49.140625 C65.09405869 50.36678528 65.06702362 51.59294556 65.03916931 52.85626221 C65.01907303 53.99714294 64.99897675 55.13802368 64.97827148 56.31347656 C64.95828598 57.31719299 64.93830048 58.32090942 64.91770935 59.3550415 C64.99220138 61.74933951 65.30787813 63.71728343 66 66 C68.64 66.33 71.28 66.66 74 67 C74 67.99 74 68.98 74 70 C71.28598706 71.35700647 69.15153684 71.1123861 66.1171875 71.09765625 C64.36728516 71.09282227 64.36728516 71.09282227 62.58203125 71.08789062 C61.35871094 71.07951172 60.13539063 71.07113281 58.875 71.0625 C57.64394531 71.05798828 56.41289062 71.05347656 55.14453125 71.04882812 C52.09630608 71.0370133 49.04817686 71.02054028 46 71 C46 70.34 46 69.68 46 69 C48.31 68.01 50.62 67.02 53 66 C53.33 55.77 53.66 45.54 54 35 C41.79 35 29.58 35 17 35 C17.1546875 42.363125 17.1546875 42.363125 17.3125 49.875 C17.33739502 51.42300293 17.36229004 52.97100586 17.38793945 54.56591797 C17.42105225 55.77908691 17.45416504 56.99225586 17.48828125 58.2421875 C17.51446533 59.4885498 17.54064941 60.73491211 17.56762695 62.01904297 C17.71031006 63.00275879 17.85299316 63.98647461 18 65 C21.6441774 67.4294516 23.71241272 67.16179575 28 67 C28 67.99 28 68.98 28 70 C25.23382437 71.38308781 22.98982 71.11210196 19.8984375 71.09765625 C18.68671875 71.09443359 17.475 71.09121094 16.2265625 71.08789062 C14.95554687 71.07951172 13.68453125 71.07113281 12.375 71.0625 C11.09625 71.05798828 9.8175 71.05347656 8.5 71.04882812 C5.33328708 71.03701203 2.16666644 71.02053815 -1 71 C-1 70.34 -1 69.68 -1 69 C0.98 68.01 2.96 67.02 5 66 C5 46.2 5 26.4 5 6 C3.02 5.34 1.04 4.68 -1 4 C-0.67 2.68 -0.34 1.36 0 0 Z " fill="#E0DCDA" transform="translate(346,91)"/>
<path d="M0 0 C8.56101586 6.38881781 13.41275021 13.37914338 15 24 C15.97110133 34.05175058 13.98308214 44.75304894 8 53 C5.49722629 55.56966298 2.84068904 57.8132449 0 60 C-0.60714844 60.47695312 -1.21429688 60.95390625 -1.83984375 61.4453125 C-10.51821399 67.57337943 -21.75173831 69.1108447 -32.05859375 67.53125 C-43.29999644 65.34794867 -51.39655989 60.45063766 -58 51 C-62.56560405 42.57652991 -64.51794809 34.06515543 -62.46875 24.52734375 C-58.90297581 13.22926573 -52.43169386 4.73873885 -42 -1 C-39.33360117 -2.12460826 -36.63176055 -3.06005737 -33.875 -3.9375 C-33.21854492 -4.14890625 -32.56208984 -4.3603125 -31.88574219 -4.578125 C-21.23570145 -7.70454734 -9.31537672 -6.11378122 0 0 Z M-44.52734375 7.9921875 C-51.25673583 17.16700854 -51.14069325 28.04984399 -50 39 C-48.34101317 46.96117351 -43.72569011 53.40762019 -37.2734375 58.3125 C-30.70095507 62.3940416 -23.6000891 63.60318167 -16 63 C-9.04638086 60.64284097 -4.61045597 57.56010302 -0.89453125 51.171875 C1.70332615 44.86441337 2.36209098 38.80543635 2.3125 32.0625 C2.30758545 31.27053223 2.3026709 30.47856445 2.29760742 29.66259766 C2.18343864 23.97991984 1.61905441 19.12099664 -1 14 C-1.31710937 13.30777344 -1.63421875 12.61554688 -1.9609375 11.90234375 C-5.34066089 5.49045717 -11.163163 1.51093575 -18.05078125 -0.640625 C-28.09552893 -2.49256245 -37.66412625 0.23658948 -44.52734375 7.9921875 Z " fill="#E3DFDD" transform="translate(490,96)"/>
<path d="M0 0 C4.77421551 4.9188887 6.02954729 9.39166393 6.0625 16.125 C5.66457613 22.45951779 3.58495125 26.84253475 -0.83984375 31.39453125 C-8.63669788 37.82657292 -17.2348374 37.62830815 -26.9375 37.125 C-26.96643932 40.74998334 -26.98427792 44.37493713 -27 48 C-27.00837891 49.03253906 -27.01675781 50.06507813 -27.02539062 51.12890625 C-27.02861328 52.11503906 -27.03183594 53.10117188 -27.03515625 54.1171875 C-27.04039307 55.02839355 -27.04562988 55.93959961 -27.05102539 56.87841797 C-27.08635565 59.16187509 -27.08635565 59.16187509 -25.9375 61.125 C-23.81173218 61.59151207 -23.81173218 61.59151207 -21.375 61.75 C-20.54871094 61.82476562 -19.72242188 61.89953125 -18.87109375 61.9765625 C-17.91396484 62.05003906 -17.91396484 62.05003906 -16.9375 62.125 C-17.2675 63.445 -17.5975 64.765 -17.9375 66.125 C-27.1775 66.125 -36.4175 66.125 -45.9375 66.125 C-45.6075 65.135 -45.2775 64.145 -44.9375 63.125 C-42.4625 62.63 -42.4625 62.63 -39.9375 62.125 C-39.9375 42.325 -39.9375 22.525 -39.9375 2.125 C-41.5875 2.125 -43.2375 2.125 -44.9375 2.125 C-44.9375 0.805 -44.9375 -0.515 -44.9375 -1.875 C-30.34083468 -5.13595715 -13.40144259 -8.55411229 0 0 Z M-27.9375 1.125 C-28.0258967 3.5006852 -28.05280305 5.84708674 -28.03515625 8.22265625 C-28.0337413 8.93151474 -28.03232635 9.64037323 -28.03086853 10.37071228 C-28.02525443 12.64301712 -28.01269963 14.91522475 -28 17.1875 C-27.99498681 18.72460796 -27.99042359 20.26171745 -27.98632812 21.79882812 C-27.97528042 25.57425642 -27.95800641 29.34961171 -27.9375 33.125 C-24.00433617 35.09158192 -19.13920991 33.9013385 -14.9375 33.125 C-11.25733953 31.54159108 -9.17590854 29.48261281 -6.9375 26.125 C-5.36337438 20.77297289 -5.27532674 14.77369306 -6.625 9.375 C-8.95186887 5.38608194 -11.55300692 2.77109677 -15.75 0.8125 C-22.19172451 -0.66622694 -22.19172451 -0.66622694 -27.9375 1.125 Z " fill="#E5E1DF" transform="translate(559.9375,95.875)"/>
<path d="M0 0 C1.24909401 0.02997826 1.24909401 0.02997826 2.52342224 0.06056213 C3.46432205 0.08065842 4.40522186 0.1007547 5.37463379 0.12145996 C6.39754013 0.14849503 7.42044647 0.17553009 8.47434998 0.2033844 C10.03704872 0.23880089 10.03704872 0.23880089 11.63131714 0.27493286 C14.97365733 0.35178392 18.31577818 0.43571553 21.65794373 0.51979065 C23.91769845 0.57298988 26.17746403 0.6257304 28.4372406 0.67799377 C33.99011203 0.80742788 39.54281928 0.94268262 45.09544373 1.08229065 C43.93549594 4.82298832 42.67514312 8.10837059 40.62669373 11.4455719 C40.14281189 12.24172913 39.65893005 13.03788635 39.16038513 13.85816956 C38.64395447 14.69525452 38.1275238 15.53233948 37.59544373 16.39479065 C36.5088334 18.17953744 35.42290737 19.964701 34.33763123 21.7502594 C33.79332458 22.64277405 33.24901794 23.5352887 32.68821716 24.45484924 C30.32704794 28.34983747 28.02089806 32.27623586 25.72044373 36.20729065 C22.69696076 41.36283815 19.66064795 46.5093271 16.57444763 51.62770081 C15.02104734 54.20576064 13.47183034 56.78629806 11.92356873 59.3674469 C11.39150818 60.25440247 10.85944763 61.14135803 10.31126404 62.05519104 C9.70943298 63.05860535 9.70943298 63.05860535 9.09544373 64.08229065 C12.94959424 64.11152624 16.80371588 64.12916842 20.65794373 64.14479065 C21.74397888 64.15316956 22.83001404 64.16154846 23.94895935 64.17018127 C33.79044037 64.70109052 33.79044037 64.70109052 42.47044373 61.14479065 C44.13037239 59.18097798 44.13037239 59.18097798 45.09544373 57.08229065 C46.08544373 57.08229065 47.07544373 57.08229065 48.09544373 57.08229065 C47.55365161 61.6333444 46.47543532 65.14615071 44.09544373 69.08229065 C41.26344547 70.02629007 39.49903404 70.21364745 36.56394958 70.22755432 C35.64967697 70.23393417 34.73540436 70.24031403 33.79342651 70.24688721 C32.80899063 70.24800003 31.82455475 70.24911285 30.81028748 70.2502594 C29.7982576 70.2535878 28.78622772 70.2569162 27.74353027 70.26034546 C25.60424759 70.26540842 23.46495701 70.26775398 21.32566833 70.26759338 C18.04241565 70.26978433 14.75949652 70.287959 11.4763031 70.30690002 C9.40013238 70.30983311 7.32396006 70.31181847 5.24778748 70.3127594 C3.76809731 70.32353767 3.76809731 70.32353767 2.2585144 70.33453369 C1.34739395 70.33145706 0.4362735 70.32838043 -0.50245667 70.32521057 C-1.7079995 70.3273481 -1.7079995 70.3273481 -2.93789673 70.32952881 C-4.90455627 70.08229065 -4.90455627 70.08229065 -6.90455627 68.08229065 C-5.88372294 66.47812398 -4.86288961 64.87395732 -3.84205627 63.26979065 C-2.88299377 61.75965393 -2.88299377 61.75965393 -1.90455627 60.2190094 C-0.64122118 58.23764595 0.62875422 56.26048676 1.90794373 54.2893219 C2.48544373 53.39600159 3.06294373 52.50268127 3.65794373 51.58229065 C4.17485779 50.78822815 4.69177185 49.99416565 5.22434998 49.17604065 C6.84357616 46.49873973 8.34277568 43.80078351 9.82591248 41.0471344 C13.30200543 34.6253192 17.06017655 28.38787865 20.84544373 22.14479065 C22.17491652 19.94899154 23.50309856 17.75241026 24.82981873 15.5549469 C25.40957458 14.59854309 25.98933044 13.64213928 26.58665466 12.65675354 C27.85207348 10.4975559 29.01298175 8.3371984 30.09544373 6.08229065 C26.01184557 6.22124021 21.92864416 6.36964003 17.84544373 6.51979065 C16.68657654 6.55910706 15.52770935 6.59842346 14.33372498 6.63893127 C13.21868591 6.68082581 12.10364685 6.72272034 10.95481873 6.7658844 C9.4151947 6.82087097 9.4151947 6.82087097 7.84446716 6.87696838 C5.42259709 7.05785584 3.37177259 7.24604267 1.09544373 8.08229065 C-0.67603999 10.56162261 -0.67603999 10.56162261 -1.90455627 13.08229065 C-3.22455627 12.75229065 -4.54455627 12.42229065 -5.90455627 12.08229065 C-5.4294995 10.26870911 -4.94939585 8.45644886 -4.46705627 6.64479065 C-4.20022034 5.63545471 -3.9333844 4.62611877 -3.65846252 3.5861969 C-2.61267642 0.11288658 -2.61267642 0.11288658 0 0 Z " fill="#E2DEDC" transform="translate(163.90455627441406,91.91770935058594)"/>
<path d="M0 0 C23.265 0.495 23.265 0.495 47 1 C45.41240421 5.76278737 44.11825971 8.71878656 41.5 12.8125 C40.77443846 13.96253176 40.05056142 15.11362751 39.328125 16.265625 C38.94720703 16.87212891 38.56628906 17.47863281 38.17382812 18.10351562 C36.14052844 21.38859715 34.19818362 24.72647858 32.25 28.0625 C27.9250499 35.45400116 23.53243171 42.80318103 19.11035156 50.13696289 C16.34727612 54.72607486 13.63749664 59.33750595 11 64 C14.47914843 64.0294191 17.95826417 64.04693792 21.4375 64.0625 C22.89833008 64.07506836 22.89833008 64.07506836 24.38867188 64.08789062 C35.38244491 64.68878821 35.38244491 64.68878821 44.875 60.5 C45.57625 59.675 46.2775 58.85 47 58 C47.99 57.67 48.98 57.34 50 57 C49.34197179 61.3429862 47.96361202 65.07277596 46 69 C43.14512885 69.95162372 41.39545683 70.12163139 38.43676758 70.11352539 C37.51603958 70.11344986 36.59531158 70.11337433 35.64668274 70.11329651 C34.65597275 70.10813522 33.66526276 70.10297394 32.64453125 70.09765625 C31.62775803 70.0962413 30.6109848 70.09482635 29.56340027 70.09336853 C26.31307036 70.08776707 23.06280912 70.07521432 19.8125 70.0625 C17.61002704 70.05748519 15.40755299 70.05292225 13.20507812 70.04882812 C7.80336196 70.03779717 2.40168588 70.02105762 -3 70 C-3.33 69.01 -3.66 68.02 -4 67 C-2.953125 64.96875 -2.953125 64.96875 -1.25 62.5 C2.04206432 57.53268401 5.0969828 52.48126548 8.0625 47.3125 C9.00247465 45.67831091 9.94258419 44.04419941 10.8828125 42.41015625 C11.37942383 41.54664551 11.87603516 40.68313477 12.38769531 39.79345703 C15.97624587 33.57598345 19.60671876 27.3828143 23.22875977 21.18481445 C26.17687912 16.13674584 29.11109268 11.08220551 32 6 C27.93724554 6.13923048 23.87487143 6.28753918 19.8125 6.4375 C18.66201172 6.47681641 17.51152344 6.51613281 16.32617188 6.55664062 C15.21435547 6.59853516 14.10253906 6.64042969 12.95703125 6.68359375 C11.93585205 6.72025146 10.91467285 6.75690918 9.86254883 6.79467773 C7.12706027 6.99088634 4.63587931 7.23611629 2 8 C0.62533375 10.47636012 0.62533375 10.47636012 0 13 C-0.99 13 -1.98 13 -3 13 C-2.88490339 11.58249437 -2.75746342 10.16598831 -2.625 8.75 C-2.55539063 7.96109375 -2.48578125 7.1721875 -2.4140625 6.359375 C-2 4 -2 4 0 0 Z " fill="#E1DEDB" transform="translate(101,92)"/>
<path d="M0 0 C-0.33 3.3 -0.66 6.6 -1 10 C-2.32 10.33 -3.64 10.66 -5 11 C-5.495 9.02 -5.495 9.02 -6 7 C-10.42672599 5.96098542 -14.79008548 5.68431136 -19.3125 5.4375 C-21.849375 5.293125 -24.38625 5.14875 -27 5 C-27 12.92 -27 20.84 -27 29 C-19.08 28.67 -11.16 28.34 -3 28 C-3.74613857 31.73069283 -4.53173403 34.57404607 -6 38 C-6.66 38 -7.32 38 -8 38 C-8.33 37.34 -8.66 36.68 -9 36 C-12.56086658 34.81304447 -15.97331024 34.64904582 -19.6875 34.4375 C-20.38939453 34.39431641 -21.09128906 34.35113281 -21.81445312 34.30664062 C-23.54275206 34.2008264 -25.2713511 34.09993419 -27 34 C-26.88182083 37.95121228 -26.75757767 41.90218229 -26.62768555 45.85302734 C-26.56301749 47.85894807 -26.50316894 49.86502228 -26.44335938 51.87109375 C-26.40146484 53.12792969 -26.35957031 54.38476562 -26.31640625 55.6796875 C-26.27974854 56.84226074 -26.24309082 58.00483398 -26.20532227 59.20263672 C-26.18178341 61.9535501 -26.18178341 61.9535501 -25 64 C-18.64558559 65.9857545 -10.36189766 65.59047442 -4 64 C-1.20754907 61.54182045 -1.20754907 61.54182045 1 59 C1.66 59 2.32 59 3 59 C2.72952055 62.51623285 2.50814409 65.21720213 0.56542969 68.20996094 C-3.38148805 70.96393894 -7.09909352 70.49605328 -11.796875 70.390625 C-12.74564514 70.38496521 -13.69441528 70.37930542 -14.67193604 70.37347412 C-17.69847336 70.35110609 -20.72382129 70.30090858 -23.75 70.25 C-25.8033683 70.22993557 -27.85675519 70.2116847 -29.91015625 70.1953125 C-34.94056156 70.15123981 -39.97007921 70.08220891 -45 70 C-45.33 69.34 -45.66 68.68 -46 68 C-43.69 67.01 -41.38 66.02 -39 65 C-39 45.2 -39 25.4 -39 5 C-41.31 4.34 -43.62 3.68 -46 3 C-45.67 2.01 -45.34 1.02 -45 0 C-39.23438773 -0.16776425 -33.46863657 -0.32830841 -27.70263672 -0.48217773 C-25.74131873 -0.53553259 -23.78005328 -0.59085676 -21.81884766 -0.64819336 C-18.99913866 -0.73028615 -16.17931632 -0.80528481 -13.359375 -0.87890625 C-12.48319519 -0.90594131 -11.60701538 -0.93297638 -10.70428467 -0.96083069 C-9.88373596 -0.98092697 -9.06318726 -1.00102325 -8.21777344 -1.02172852 C-7.49829529 -1.04171402 -6.77881714 -1.06169952 -6.03753662 -1.08229065 C-4 -1 -4 -1 0 0 Z " fill="#E6E2E0" transform="translate(85,92)"/>
<path d="M0 0 C2.52197266 -0.34057617 2.52197266 -0.34057617 5.6640625 -0.29296875 C6.78554687 -0.28330078 7.90703125 -0.27363281 9.0625 -0.26367188 C10.238125 -0.23853516 11.41375 -0.21339844 12.625 -0.1875 C14.40003906 -0.16719727 14.40003906 -0.16719727 16.2109375 -0.14648438 C19.14107539 -0.11103916 22.07031459 -0.06162769 25 0 C24.67 1.32 24.34 2.64 24 4 C22.35 4 20.7 4 19 4 C24.53864576 13.08519005 30.21586388 22.06940095 36 31 C39.18176148 27.17318893 41.90523901 23.19426017 44.5625 19 C44.94857422 18.39671875 45.33464844 17.7934375 45.73242188 17.171875 C46.82927783 15.45278219 47.91491381 13.72654599 49 12 C49.58652344 11.071875 50.17304688 10.14375 50.77734375 9.1875 C52.16263041 7.12669881 52.16263041 7.12669881 52 5 C49.525 4.505 49.525 4.505 47 4 C47.33 2.68 47.66 1.36 48 0 C54.6 0 61.2 0 68 0 C67.67 1.32 67.34 2.64 67 4 C65.34723379 4.70041851 63.67842812 5.36352433 62 6 C55.31406153 12.57519829 50.12105709 21.30388916 45.13574219 29.23364258 C44.07369633 30.88538414 42.91460022 32.47358095 41.75 34.0546875 C38.64736744 39.57108141 39.31822657 46.2940072 39.25 52.4375 C39.20552734 54.39333008 39.20552734 54.39333008 39.16015625 56.38867188 C39.08974224 59.59250917 39.03690131 62.79563055 39 66 C42.63 66.33 46.26 66.66 50 67 C49 70 49 70 47 71 C45.0406396 71.08510205 43.07837206 71.10717656 41.1171875 71.09765625 C39.95058594 71.09443359 38.78398437 71.09121094 37.58203125 71.08789062 C36.35871094 71.07951172 35.13539063 71.07113281 33.875 71.0625 C32.64394531 71.05798828 31.41289062 71.05347656 30.14453125 71.04882812 C27.09630608 71.0370133 24.04817686 71.02054028 21 71 C20.505 70.01 20.505 70.01 20 69 C22.31 68.01 24.62 67.02 27 66 C28.62990815 48.28833139 27.22182869 36.51729581 16.54345703 22.09912109 C15.12785358 20.17388249 13.81191559 18.22119261 12.52734375 16.20703125 C7.03432113 7.38849303 7.03432113 7.38849303 -2 3 C-1.34 2.01 -0.68 1.02 0 0 Z " fill="#E2DFDC" transform="translate(217,91)"/>
<path d="M0 0 C1.18771723 3.42943519 0.80226223 5.37784675 -0.4375 8.75 C-0.86869141 9.94882813 -0.86869141 9.94882813 -1.30859375 11.171875 C-1.53675781 11.77515625 -1.76492188 12.3784375 -2 13 C-2.66 12.67 -3.32 12.34 -4 12 C-4.04125 11.21625 -4.0825 10.4325 -4.125 9.625 C-4.713898 6.95897743 -4.713898 6.95897743 -6.55859375 5.96875 C-11.73963422 3.78725928 -15.5591462 3.6836644 -21 5 C-25.30093275 6.95255875 -25.30093275 6.95255875 -27.73046875 10.83203125 C-28.48165421 14.72183319 -28.32047399 16.39220449 -26.4140625 20.0078125 C-23.73234793 23.33174998 -20.9793813 25.09441482 -17.25 27 C0.14021241 36.42063722 0.14021241 36.42063722 3 45 C3.94104872 52.26632554 3.19600113 57.26561686 -1.30859375 63.12890625 C-6.96769925 69.38921002 -14.57865859 71.43416183 -22.76953125 72.2890625 C-29.56552082 72.50295631 -35.56274524 71.09179652 -42 69 C-43.07310858 65.72814447 -42.89263102 63.57052408 -42.0625 60.25 C-41.86785156 59.45078125 -41.67320312 58.6515625 -41.47265625 57.828125 C-41.31667969 57.22484375 -41.16070312 56.6215625 -41 56 C-39.02 55.505 -39.02 55.505 -37 55 C-36.690625 56.0725 -36.38125 57.145 -36.0625 58.25 C-34.61964359 61.60532173 -33.09517589 62.86973927 -29.8125 64.4375 C-24.05408288 66.6062545 -19.51009987 66.92966662 -13.625 64.75 C-10.81483755 62.87655837 -10.19879759 62.05748377 -9 59 C-8.68662792 56.77615205 -8.68662792 56.77615205 -8.75 54.5 C-8.74484375 53.7471875 -8.7396875 52.994375 -8.734375 52.21875 C-9.17907389 48.50420631 -10.33486666 46.61878695 -13.07421875 44.0703125 C-17.58399782 40.87914707 -22.3865852 38.23573389 -27.20117188 35.53515625 C-28.31782227 34.89513672 -28.31782227 34.89513672 -29.45703125 34.2421875 C-30.4776062 33.66766846 -30.4776062 33.66766846 -31.51879883 33.08154297 C-32.00759521 32.72463379 -32.4963916 32.36772461 -33 32 C-33 31.34 -33 30.68 -33 30 C-33.61875 29.773125 -34.2375 29.54625 -34.875 29.3125 C-37.81286867 27.49793406 -38.1597459 26.3610164 -39 23 C-39.54392401 18.06347756 -39.57946268 14.22846089 -37.4375 9.6875 C-27.64735608 -1.10676125 -13.75354082 -4.78384029 0 0 Z " fill="#E3DFDC" transform="translate(331,92)"/>
<path d="M0 0 C-3.97268665 3.4491543 -8.05663837 5.72686817 -12.75 8 C-13.46663818 8.35175293 -14.18327637 8.70350586 -14.92163086 9.06591797 C-19.89877412 11.49662897 -24.88585181 13.86980935 -30 16 C-31.05832031 16.44859375 -32.11664063 16.8971875 -33.20703125 17.359375 C-55.28406791 26.4817288 -78.56006075 33.059239 -102.6015625 33.203125 C-103.39258362 33.21009399 -104.18360474 33.21706299 -104.99859619 33.22424316 C-107.54078557 33.24154501 -110.08275417 33.24796414 -112.625 33.25 C-113.4944928 33.25100708 -114.3639856 33.25201416 -115.25982666 33.25305176 C-129.03136189 33.2422707 -142.44616425 32.63392125 -156 30 C-156.78439453 29.85014648 -157.56878906 29.70029297 -158.37695312 29.54589844 C-170.01215557 27.24523498 -181.63349659 23.88972073 -192 18 C-193.375 14.8125 -193.375 14.8125 -194 12 C-190.95872285 12.99400063 -187.94396739 14.02109294 -184.94921875 15.1484375 C-176.46214206 18.3399849 -168.01449489 20.69968278 -159.14599609 22.54589844 C-157.12869415 22.97276779 -155.12049217 23.44201491 -153.11328125 23.9140625 C-123.10401528 30.42178512 -90.25535343 25.65981751 -61 18 C-58.33451867 17.32852058 -55.66720913 16.66459676 -53 16 C-53.99 17.485 -53.99 17.485 -55 19 C-48.16645243 17.28408718 -41.44656784 15.2452377 -34.75 13.0625 C-33.99412598 12.82192871 -33.23825195 12.58135742 -32.45947266 12.33349609 C-27.56511053 10.71493043 -23.41881669 8.65237705 -19 6 C-16.67518826 4.98034573 -14.34205301 3.97940398 -12 3 C-10.989375 2.443125 -9.97875 1.88625 -8.9375 1.3125 C-5.70762414 -0.13063602 -3.49691176 -0.24977941 0 0 Z " fill="#EDC77E" transform="translate(371,239)"/>
<path d="M0 0 C7.59 0 15.18 0 23 0 C23 1.32 23 2.64 23 4 C21.35 4 19.7 4 18 4 C17.67 12.58 17.34 21.16 17 30 C17.66 30.33 18.32 30.66 19 31 C17.68 31.33 16.36 31.66 15 32 C15.11811006 36.80567423 15.24234823 41.61113568 15.37231445 46.41650391 C15.41567538 48.05187653 15.45734961 49.68729477 15.49731445 51.32275391 C15.55498912 53.67103841 15.61869129 56.01909304 15.68359375 58.3671875 C15.70030624 59.10057343 15.71701874 59.83395935 15.73423767 60.58956909 C15.78637962 64.42202308 15.78637962 64.42202308 17 68 C12.71 68 8.42 68 4 68 C4.495 67.01 4.495 67.01 5 66 C5.09119671 64.09018054 5.11752537 62.17712814 5.11352539 60.26513672 C5.11344986 59.06404266 5.11337433 57.86294861 5.11329651 56.62545776 C5.10813522 55.32335358 5.10297394 54.02124939 5.09765625 52.6796875 C5.09579138 51.33733167 5.0943678 49.99497516 5.09336853 48.65261841 C5.08954878 45.11804325 5.07972312 41.58350913 5.06866455 38.0489502 C5.05843878 34.44279536 5.05386841 30.8366339 5.04882812 27.23046875 C5.03810038 20.15362904 5.02103045 13.0768172 5 6 C3.02 5.34 1.04 4.68 -1 4 C-0.67 2.68 -0.34 1.36 0 0 Z " fill="#E4E1DE" transform="translate(346,91)"/>
<path d="M0 0 C4.39561039 -0.11629782 8.79082429 -0.18728634 13.1875 -0.25 C14.43337891 -0.28351563 15.67925781 -0.31703125 16.96289062 -0.3515625 C18.7659668 -0.37089844 18.7659668 -0.37089844 20.60546875 -0.390625 C22.26292114 -0.4220459 22.26292114 -0.4220459 23.95385742 -0.45410156 C28.54960638 0.23100648 30.91804615 2.64755769 33.75 6.1875 C36.40521995 12.16174488 36.57938563 18.50060144 34.90625 24.796875 C32.46601469 30.72917119 28.19877392 34.79495376 22.4375 37.5 C16.04895132 39.75129691 9.69287053 39.26246551 3 39 C2.67 46.92 2.34 54.84 2 63 C1.34 63 0.68 63 0 63 C-0.84094957 60.07005846 -1.1263282 57.46616355 -1.12939453 54.421875 C-1.13254669 53.51993408 -1.13569885 52.61799316 -1.13894653 51.6887207 C-1.1369223 50.71894287 -1.13489807 49.74916504 -1.1328125 48.75 C-1.13376923 47.74090576 -1.13472595 46.73181152 -1.13571167 45.69213867 C-1.13639215 43.5537103 -1.13454708 41.41527987 -1.13037109 39.27685547 C-1.12506555 36.03999034 -1.13029739 32.80326681 -1.13671875 29.56640625 C-1.14254283 9.49429668 -1.14254283 9.49429668 0 0 Z M2 3 C1.9116033 5.3756852 1.88469695 7.72208674 1.90234375 10.09765625 C1.9037587 10.80651474 1.90517365 11.51537323 1.90663147 12.24571228 C1.91224557 14.51801712 1.92480037 16.79022475 1.9375 19.0625 C1.94251319 20.59960796 1.94707641 22.13671745 1.95117188 23.67382812 C1.96221958 27.44925642 1.97949359 31.22461171 2 35 C5.93316383 36.96658192 10.79829009 35.7763385 15 35 C18.68016047 33.41659108 20.76159146 31.35761281 23 28 C24.57412562 22.64797289 24.66217326 16.64869306 23.3125 11.25 C20.98563113 7.26108194 18.38449308 4.64609677 14.1875 2.6875 C7.74577549 1.20877306 7.74577549 1.20877306 2 3 Z " fill="#E2DFDC" transform="translate(530,94)"/>
<path d="M0 0 C3.1183262 2.54736506 6.08666732 5.22154383 9 8 C8.67 8.99 8.34 9.98 8 11 C8.77662207 13.29911803 8.77662207 13.29911803 9.9375 15.8125 C13.2934532 24.57978259 13.73108682 36.1840692 10 45 C5.64214884 52.04322972 -0.15365621 57.43577081 -7 62 C-9.26171875 62.4140625 -9.26171875 62.4140625 -11.6875 62.625 C-12.89986328 62.73714844 -12.89986328 62.73714844 -14.13671875 62.8515625 C-14.75160156 62.90054688 -15.36648438 62.94953125 -16 63 C-14 61 -14 61 -11.6875 60.1875 C-6.65143171 57.96226053 -3.38132062 53.87603747 -1 49 C0.69474592 43.24284842 1.35591468 38.05117255 1.3125 32.0625 C1.30831055 31.27198242 1.30412109 30.48146484 1.29980469 29.66699219 C1.13119775 20.97476639 -1.01774369 15.04387961 -6 8 C-6 7.34 -6 6.68 -6 6 C-6.61875 5.71125 -7.2375 5.4225 -7.875 5.125 C-10 4 -10 4 -12 2 C-12 1.34 -12 0.68 -12 0 C-17.05247553 -1.61626656 -21.6014184 -2.34166823 -26.9375 -2.625 C-27.62134766 -2.66367188 -28.30519531 -2.70234375 -29.00976562 -2.7421875 C-30.67279513 -2.83522412 -32.33635847 -2.91863787 -34 -3 C-23.37410274 -8.40076597 -9.85300129 -6.56866753 0 0 Z " fill="#E1DDDA" transform="translate(490,96)"/>
<path d="M0 0 C-3.97268665 3.4491543 -8.05663837 5.72686817 -12.75 8 C-13.46663818 8.35175293 -14.18327637 8.70350586 -14.92163086 9.06591797 C-19.89877412 11.49662897 -24.88585181 13.86980935 -30 16 C-31.05832031 16.44859375 -32.11664063 16.8971875 -33.20703125 17.359375 C-53.75135197 25.84840209 -73.63417955 31.68466797 -96 31 C-95.67 30.34 -95.34 29.68 -95 29 C-92.71484375 28.3671875 -92.71484375 28.3671875 -89.9375 27.875 C-89.01839844 27.70742188 -88.09929687 27.53984375 -87.15234375 27.3671875 C-86.44207031 27.24601562 -85.73179687 27.12484375 -85 27 C-85 26.01 -85 25.02 -85 24 C-79.88677224 22.49492376 -74.75583961 21.19666511 -69.5625 20 C-64.02777777 18.71774761 -58.50849621 17.39109713 -53 16 C-53.66 16.99 -54.32 17.98 -55 19 C-48.16645243 17.28408718 -41.44656784 15.2452377 -34.75 13.0625 C-33.99412598 12.82192871 -33.23825195 12.58135742 -32.45947266 12.33349609 C-27.56511053 10.71493043 -23.41881669 8.65237705 -19 6 C-16.67518826 4.98034573 -14.34205301 3.97940398 -12 3 C-10.989375 2.443125 -9.97875 1.88625 -8.9375 1.3125 C-5.70762414 -0.13063602 -3.49691176 -0.24977941 0 0 Z " fill="#F5D38C" transform="translate(371,239)"/>
<path d="M0 0 C0.66 0 1.32 0 2 0 C3.84934523 3.69869045 3.33343501 7.95474125 3 12 C1.9375 14.9375 1.9375 14.9375 0 18 C-0.45246094 18.77601563 -0.90492188 19.55203125 -1.37109375 20.3515625 C-6.1263024 28.26550688 -11.855333 35.15005614 -18 42 C-18.70382812 42.78890625 -19.40765625 43.5778125 -20.1328125 44.390625 C-25.42766169 50.00702374 -31.62439835 54.54146612 -39 57 C-39.99 56.67 -40.98 56.34 -42 56 C-40.74381926 52.23145777 -39.33985294 51.92041544 -36 50 C-35.67 49.34 -35.34 48.68 -35 48 C-33.66388672 47.36384766 -33.66388672 47.36384766 -32.30078125 46.71484375 C-28.65048606 44.8184182 -26.02159783 42.47774628 -23.1875 39.5625 C-22.66978027 39.035354 -22.15206055 38.50820801 -21.61865234 37.96508789 C-11.68596318 27.64801621 -1.71401378 15.75628487 -1 1 C-0.67 0.67 -0.34 0.34 0 0 Z " fill="#BF8934" transform="translate(399,225)"/>
<path d="M0 0 C2.04136395 -0.05451714 4.08315856 -0.09302485 6.125 -0.125 C7.83042969 -0.15980469 7.83042969 -0.15980469 9.5703125 -0.1953125 C13.05757767 0.00327891 15.7553862 0.7475199 19 2 C19 2.66 19 3.32 19 4 C19.99 4.33 20.98 4.66 22 5 C21.67 5.66 21.34 6.32 21 7 C20.3709375 6.71125 19.741875 6.4225 19.09375 6.125 C18.2378125 5.75375 17.381875 5.3825 16.5 5 C15.6646875 4.62875 14.829375 4.2575 13.96875 3.875 C10.23689597 2.62304943 10.23689597 2.62304943 3 3 C3 13.56 3 24.12 3 35 C16.42909296 35.44151691 16.42909296 35.44151691 27.78515625 29.47265625 C29.09486064 27.99710467 29.09486064 27.99710467 30 26 C30.66 26 31.32 26 32 26 C31.7883581 29.7037332 31.07471295 30.92346478 28.4375 33.625 C20.30455709 39.69121859 12.86003169 39.28442399 3 39 C2.67 46.92 2.34 54.84 2 63 C1.34 63 0.68 63 0 63 C-0.84094957 60.07005846 -1.1263282 57.46616355 -1.12939453 54.421875 C-1.13254669 53.51993408 -1.13569885 52.61799316 -1.13894653 51.6887207 C-1.1369223 50.71894287 -1.13489807 49.74916504 -1.1328125 48.75 C-1.13376923 47.74090576 -1.13472595 46.73181152 -1.13571167 45.69213867 C-1.13639215 43.5537103 -1.13454708 41.41527987 -1.13037109 39.27685547 C-1.12506555 36.03999034 -1.13029739 32.80326681 -1.13671875 29.56640625 C-1.14254283 9.49429668 -1.14254283 9.49429668 0 0 Z " fill="#D6D2D0" transform="translate(530,94)"/>
<path d="M0 0 C6.6 0 13.2 0 20 0 C19.67 1.32 19.34 2.64 19 4 C17.34723379 4.70041851 15.67842812 5.36352433 14 6 C7.31257489 12.5766603 2.12940182 21.30350912 -2.86425781 29.22973633 C-3.93444776 30.89782474 -5.09007255 32.51020468 -6.25 34.1171875 C-9.20908221 39.37835289 -8.67954448 45.56727436 -8.75 51.4375 C-8.77964844 52.64599609 -8.80929687 53.85449219 -8.83984375 55.09960938 C-8.91020413 58.06647208 -8.96307021 61.03256424 -9 64 C-9.99 64.495 -9.99 64.495 -11 65 C-11.15010394 61.05342109 -11.25801899 57.10798201 -11.32958984 53.15917969 C-11.37403953 51.16802472 -11.45034343 49.17766201 -11.52734375 47.1875 C-11.64493867 39.42623557 -10.98226743 34.35263591 -6.39086914 27.98535156 C-4.77316368 25.91113422 -4.77316368 25.91113422 -4.0625 22.625 C-2.6406668 17.77403966 -0.09809502 13.86363619 2.5390625 9.57421875 C4.16452618 7.20341436 4.16452618 7.20341436 4 5 C2.35 4.67 0.7 4.34 -1 4 C-0.67 2.68 -0.34 1.36 0 0 Z " fill="#D2CECC" transform="translate(265,91)"/>
<path d="M0 0 C2.90524879 1.77149316 3.92838897 3.58115608 5.46875 6.5625 C9.12351633 13.24550128 14.29750576 18.78215334 20.0625 23.69140625 C20.97 24.47386719 21.8775 25.25632813 22.8125 26.0625 C23.68390625 26.7946875 24.5553125 27.526875 25.453125 28.28125 C27.76710858 30.78378039 28.25625911 32.21740718 28.5625 35.5625 C25.0805344 33.6105119 22.32854108 31.5686378 19.53125 28.7265625 C18.80292969 27.99179688 18.07460937 27.25703125 17.32421875 26.5 C16.57785156 25.736875 15.83148438 24.97375 15.0625 24.1875 C14.31613281 23.43210938 13.56976563 22.67671875 12.80078125 21.8984375 C11.36127997 20.44110169 9.9236865 18.98187819 8.48828125 17.52050781 C6.1933729 15.18719583 3.88127035 12.87206888 1.5625 10.5625 C3.98325917 16.7873093 7.06004708 21.96287846 11.07421875 27.30078125 C12.49530045 29.46037784 13.12927544 31.03824491 13.5625 33.5625 C10.74451966 33.2171895 9.73095992 32.75244139 7.81640625 30.59375 C-6.69213425 8.88119978 -6.69213425 8.88119978 -5.4375 1.5625 C-2.4375 -0.4375 -2.4375 -0.4375 0 0 Z " fill="#B37C30" transform="translate(103.4375,190.4375)"/>
<path d="M0 0 C13.2 0 26.4 0 40 0 C40 0.66 40 1.32 40 2 C27.31729149 2.74136918 14.70428397 3.13809004 2 3 C2.06877071 7.236428 2.15668121 11.4718913 2.26245117 15.70751953 C2.29573178 17.14881342 2.32375404 18.59023863 2.34643555 20.03173828 C2.3799262 22.10245797 2.432233 24.17197093 2.48828125 26.2421875 C2.51446533 27.4885498 2.54064941 28.73491211 2.56762695 30.01904297 C2.71031006 31.00275879 2.85299316 31.98647461 3 33 C6.6441774 35.4294516 8.71241272 35.16179575 13 35 C13 35.99 13 36.98 13 38 C10.23382437 39.38308781 7.98982 39.11210196 4.8984375 39.09765625 C3.08085937 39.09282227 3.08085937 39.09282227 1.2265625 39.08789062 C-0.04445313 39.07951172 -1.31546875 39.07113281 -2.625 39.0625 C-3.90375 39.05798828 -5.1825 39.05347656 -6.5 39.04882812 C-9.66671292 39.03701203 -12.83333356 39.02053815 -16 39 C-16 38.34 -16 37.68 -16 37 C-12.95786733 35.47893366 -9.71952428 35.62570662 -6.375 35.4375 C-5.66859375 35.39431641 -4.9621875 35.35113281 -4.234375 35.30664062 C-2.48981463 35.20055249 -0.74493303 35.09977111 1 35 C0.505 34.505 0.505 34.505 0 34 C-0.08846834 31.47931819 -0.11534524 28.98545583 -0.09765625 26.46484375 C-0.09664917 25.79747192 -0.09564209 25.1301001 -0.09460449 24.44250488 C-0.08935808 21.9408192 -0.07539691 19.43915794 -0.0625 16.9375 C-0.041875 11.348125 -0.02125 5.75875 0 0 Z " fill="#D1CECB" transform="translate(361,123)"/>
<path d="M0 0 C1.18771723 3.42943519 0.80226223 5.37784675 -0.4375 8.75 C-0.86869141 9.94882813 -0.86869141 9.94882813 -1.30859375 11.171875 C-1.53675781 11.77515625 -1.76492188 12.3784375 -2 13 C-2.66 12.67 -3.32 12.34 -4 12 C-4.04125 11.21625 -4.0825 10.4325 -4.125 9.625 C-4.713898 6.95897743 -4.713898 6.95897743 -6.55859375 5.96875 C-11.73963422 3.78725928 -15.5591462 3.6836644 -21 5 C-24.5 6.25 -24.5 6.25 -27 9 C-28.0763504 12.29632311 -28.61911597 15.5589098 -29 19 C-29.66 18.67 -30.32 18.34 -31 18 C-31.64619507 12.8304394 -31.51488354 9.00880364 -28.5 4.625 C-21.20337805 -3.93318743 -9.9100636 -3.44697864 0 0 Z " fill="#D1CDCA" transform="translate(331,92)"/>
<path d="M0 0 C3 1 3 1 4.5625 3.5625 C9.59011055 15.58504696 8.9145409 26.97726243 4.19140625 39.0703125 C0.48076739 46.4256233 -7.61520199 52.5642156 -15 56 C-17.82555006 56.7637971 -20.02891159 56.94877434 -23 57 C-23.66 56.34 -24.32 55.68 -25 55 C-22.22309737 53.8219201 -19.63901245 52.91826697 -16.6875 52.25 C-8.44925742 49.4573754 -2.45092804 43.37300545 2 36 C5.72528407 27.15865913 5.2652637 15.57315936 2 6.75 C1.62875 5.87859375 1.2575 5.0071875 0.875 4.109375 C0 2 0 2 0 0 Z " fill="#CFCCCA" transform="translate(497,105)"/>
<path d="M0 0 C1.32 0.33 2.64 0.66 4 1 C3.67 4.3 3.34 7.6 3 11 C1.68 11.33 0.36 11.66 -1 12 C-1.33 10.68 -1.66 9.36 -2 8 C-6.58380387 6.90686842 -11.1258238 6.67741692 -15.8125 6.4375 C-19.8653125 6.2209375 -19.8653125 6.2209375 -24 6 C-24 14.25 -24 22.5 -24 31 C-24.66 31 -25.32 31 -26 31 C-26 22.09 -26 13.18 -26 4 C-23.42788678 2.71394339 -21.43093034 2.78956059 -18.5546875 2.68359375 C-17.47832031 2.64169922 -16.40195313 2.59980469 -15.29296875 2.55664062 C-14.16503906 2.51732422 -13.03710938 2.47800781 -11.875 2.4375 C-10.73933594 2.39431641 -9.60367188 2.35113281 -8.43359375 2.30664062 C-5.62252232 2.2003396 -2.81136055 2.09830595 0 2 C0 1.34 0 0.68 0 0 Z " fill="#D0CDCA" transform="translate(81,91)"/>
<path d="M0 0 C5.66109891 -0.20420798 11.01774742 -0.08411484 16.59375 0.96875 C25.9502296 2.47138662 35.35531552 2.46332433 44.8125 2.625 C46.68035484 2.66327505 48.54819384 2.70233192 50.41601562 2.7421875 C54.94387839 2.83712759 59.47182315 2.92152649 64 3 C50.75358921 11.83094053 22.96891203 6.22339418 8.01269531 3.44628906 C5.2646467 2.83694495 2.63792467 1.97543838 0 1 C0 0.67 0 0.34 0 0 Z " fill="#CA9433" transform="translate(208,263)"/>
<path d="M0 0 C1.32 0 2.64 0 4 0 C3.39009109 3.55780196 2.4216319 6.6828589 1 10 C0.34 10 -0.32 10 -1 10 C-1.33 9.34 -1.66 8.68 -2 8 C-5.56244661 6.8125178 -8.97318643 6.64932792 -12.6875 6.4375 C-15.100625 6.293125 -17.51375 6.14875 -20 6 C-20 15.9 -20 25.8 -20 36 C-20.66 36 -21.32 36 -22 36 C-23.46098845 33.0780231 -23.11134901 30.50106525 -23.09765625 27.2421875 C-23.0962413 26.57913605 -23.09482635 25.91608459 -23.09336853 25.23294067 C-23.08776754 23.11358137 -23.075215 20.99432741 -23.0625 18.875 C-23.05748512 17.43880361 -23.05292219 16.00260556 -23.04882812 14.56640625 C-23.03779782 11.04423655 -23.02053259 7.52212855 -23 4 C-20.10410348 3.97293555 -17.20846205 3.95312971 -14.3125 3.9375 C-13.08756836 3.92493164 -13.08756836 3.92493164 -11.83789062 3.91210938 C-7.75500916 3.89557949 -3.98348293 3.96964902 0 5 C0 3.35 0 1.7 0 0 Z " fill="#D1CFCC" transform="translate(78,120)"/>
<path d="M0 0 C-0.375 2.75 -0.375 2.75 -2 6 C-5.1732397 7.80731509 -8.54226868 8.85829626 -12 10 C-13.9241384 10.71723427 -15.84807799 11.43502688 -17.76953125 12.15942383 C-21.89961872 13.71589178 -26.03796379 15.24614124 -30.1875 16.75 C-31.06341797 17.07871094 -31.93933594 17.40742188 -32.84179688 17.74609375 C-33.69193359 18.05160156 -34.54207031 18.35710937 -35.41796875 18.671875 C-36.55915161 19.09098145 -36.55915161 19.09098145 -37.72338867 19.51855469 C-40.43193015 20.09134223 -42.34492639 19.69927383 -45 19 C-44.41573242 18.70947754 -43.83146484 18.41895508 -43.22949219 18.11962891 C-41.87579988 17.43981803 -40.52621086 16.75163662 -39.18457031 16.04833984 C-34.17233726 13.44994128 -29.07354532 11.48550403 -23.75 9.625 C-16.93328449 7.19069596 -10.53584681 4.4954128 -4.15234375 1.06640625 C-2 0 -2 0 0 0 Z " fill="#DDAD54" transform="translate(358,239)"/>
<path d="M0 0 C1.77218729 0.04235793 3.54424443 0.09038445 5.31616211 0.14282227 C6.24698105 0.16643326 7.17779999 0.19004425 8.13682556 0.21437073 C11.12253311 0.29120977 14.10799434 0.37514647 17.09350586 0.45922852 C19.11237384 0.51242896 21.131254 0.56516947 23.15014648 0.61743164 C28.1105902 0.74685216 33.07082419 0.88264032 38.03100586 1.02172852 C38.03100586 1.35172852 38.03100586 1.68172852 38.03100586 2.02172852 C30.02100165 3.06804081 22.03847535 3.34161238 13.96850586 3.58422852 C12.6123757 3.62752479 11.25625575 3.67114217 9.90014648 3.71508789 C6.61051915 3.82044962 3.32082527 3.92257803 0.03100586 4.02172852 C0.03100586 4.68172852 0.03100586 5.34172852 0.03100586 6.02172852 C1.02100586 6.35172852 2.01100586 6.68172852 3.03100586 7.02172852 C2.43288086 7.08360352 1.83475586 7.14547852 1.21850586 7.20922852 C-1.84042872 8.34540422 -2.51940513 10.19502994 -3.96899414 13.02172852 C-5.28899414 12.69172852 -6.60899414 12.36172852 -7.96899414 12.02172852 C-7.49393736 10.20814698 -7.01383372 8.39588673 -6.53149414 6.58422852 C-6.2646582 5.57489258 -5.99782227 4.56555664 -5.72290039 3.52563477 C-4.51312979 -0.49230802 -4.56102632 0.02496963 0 0 Z " fill="#E5E2E0" transform="translate(165.968994140625,91.978271484375)"/>
<path d="M0 0 C20.295 0.495 20.295 0.495 41 1 C41 1.33 41 1.66 41 2 C33.15408615 3.0159562 25.34123065 3.31588743 17.4375 3.5625 C16.14263672 3.60568359 14.84777344 3.64886719 13.51367188 3.69335938 C10.34253616 3.79867385 7.17133207 3.90080617 4 4 C4 4.66 4 5.32 4 6 C4.99 6.33 5.98 6.66 7 7 C6.21625 7.061875 5.4325 7.12375 4.625 7.1875 C3.75875 7.455625 2.8925 7.72375 2 8 C0.62533375 10.47636012 0.62533375 10.47636012 0 13 C-0.99 13 -1.98 13 -3 13 C-2.88490339 11.58249437 -2.75746342 10.16598831 -2.625 8.75 C-2.55539063 7.96109375 -2.48578125 7.1721875 -2.4140625 6.359375 C-2 4 -2 4 0 0 Z " fill="#E4E0DD" transform="translate(101,92)"/>
<path d="M0 0 C0.66 0 1.32 0 2 0 C3.84822977 3.69645954 3.33847527 7.95710091 3 12 C1.875 15.0625 1.875 15.0625 0 18 C-0.44859375 18.75667969 -0.8971875 19.51335937 -1.359375 20.29296875 C-4.20553931 24.90698254 -5.76389999 27.19444827 -11 29 C-11.99 29.66 -12.98 30.32 -14 31 C-11.98615137 26.72057165 -9.42626113 22.77891725 -6.921875 18.77734375 C-2.96229423 12.46525099 -2.96229423 12.46525099 -1.4375 5.3125 C-1.09964413 1.09964413 -1.09964413 1.09964413 0 0 Z " fill="#AB7420" transform="translate(399,225)"/>
<path d="M0 0 C0.99 0 1.98 0 3 0 C3.309375 1.0725 3.61875 2.145 3.9375 3.25 C5.36135435 6.51493114 6.81400081 7.85874906 10 9.4375 C15.2860548 11.48399568 20.41150741 11.3760481 26 11 C24.98046875 12.48046875 24.98046875 12.48046875 23 14 C20.34332067 14.2748289 17.96150714 14.37781798 15.3125 14.3125 C14.59513672 14.30412109 13.87777344 14.29574219 13.13867188 14.28710938 C8.12174568 14.17319189 3.74453678 13.58151226 -1 12 C-1.33 12.66 -1.66 13.32 -2 14 C-3.05128687 10.76470168 -2.91901775 8.60277903 -2.125 5.3125 C-1.94195312 4.52488281 -1.75890625 3.73726562 -1.5703125 2.92578125 C-1 1 -1 1 0 0 Z " fill="#E4E0DE" transform="translate(291,147)"/>
<path d="M0 0 C-0.53125 1.859375 -0.53125 1.859375 -2 4 C-4.57325983 4.99254308 -6.83059243 5.67061215 -9.5 6.25 C-10.24306396 6.41983398 -10.98612793 6.58966797 -11.75170898 6.76464844 C-20.14694588 8.50733727 -28.47290932 8.3590354 -37 8 C-36.67 7.34 -36.34 6.68 -36 6 C-33.53125 5.40234375 -33.53125 5.40234375 -30.5 4.9375 C-26.93945782 4.64569564 -26.93945782 4.64569564 -24 3 C-21.96460432 2.64896799 -19.92110511 2.34448032 -17.875 2.0625 C-14.1307481 1.52116238 -10.53900018 0.97885017 -6.9375 -0.1875 C-4.04982549 -0.98621848 -2.74193222 -1.09677289 0 0 Z " fill="#FBE1A1" transform="translate(312,262)"/>
<path d="M0 0 C6.6 0 13.2 0 20 0 C19.67 1.32 19.34 2.64 19 4 C18.38511719 4.09796875 17.77023437 4.1959375 17.13671875 4.296875 C12.03099222 5.09729068 12.03099222 5.09729068 8.0625 8.125 C7.711875 8.74375 7.36125 9.3625 7 10 C6.34 10 5.68 10 5 10 C4.773125 10.680625 4.54625 11.36125 4.3125 12.0625 C2.68773854 15.6988709 0.67196743 19.02829263 -2 22 C-2.66 22 -3.32 22 -4 22 C-2.27947899 17.34791164 0.13317329 13.39515171 2.7578125 9.20703125 C4.16349364 7.13161451 4.16349364 7.13161451 4 5 C2.35 4.67 0.7 4.34 -1 4 C-0.67 2.68 -0.34 1.36 0 0 Z " fill="#E5E1DF" transform="translate(265,91)"/>
<path d="M0 0 C3.0625 1.625 3.0625 1.625 4.0625 3.625 C-1.50855943 2.73869509 -1.50855943 2.73869509 -3.8828125 2.109375 C-11.44444687 0.32678439 -18.21542198 1.90956572 -24.9375 5.625 C-28.88887047 8.65493744 -31.48130748 12.3266631 -33.9375 16.625 C-34.5975 16.955 -35.2575 17.285 -35.9375 17.625 C-35.79814364 12.05074546 -33.33827115 9.26362224 -29.82421875 5.26171875 C-27.8209812 3.52392054 -26.52852864 3.01965999 -23.9375 2.625 C-23.9375 1.635 -23.9375 0.645 -23.9375 -0.375 C-17.03417769 -2.67610744 -6.81344179 -2.46179101 0 0 Z " fill="#D2CFCC" transform="translate(475.9375,94.375)"/>
<path d="M0 0 C0.66 0 1.32 0 2 0 C1.43597782 3.62495154 0.52405604 6.16041031 -1.4375 9.25 C-4.40259038 14.02429807 -7.28136675 18.84026679 -10.125 23.6875 C-10.54450928 24.4000293 -10.96401855 25.11255859 -11.39624023 25.84667969 C-13.96401443 30.21265626 -16.49571115 34.59729863 -19 39 C-19.99 39 -20.98 39 -22 39 C-20.70134021 34.68178641 -19.03770637 31.07678995 -16.69921875 27.2265625 C-16.05146484 26.1540625 -15.40371094 25.0815625 -14.73632812 23.9765625 C-14.06021484 22.87054688 -13.38410156 21.76453125 -12.6875 20.625 C-12.02298828 19.52671875 -11.35847656 18.4284375 -10.67382812 17.296875 C-9.3808855 15.1637115 -8.08273634 13.03369302 -6.77880859 10.90722656 C-5.66581938 9.08819341 -4.5628802 7.26292896 -3.47509766 5.42871094 C-2.36972678 3.58629093 -1.193317 1.78671508 0 0 Z " fill="#D0CECB" transform="translate(200,104)"/>
<path d="M0 0 C4.39305889 1.45091853 8.76403544 2.95529549 13.125 4.5 C14.32382813 4.9228125 15.52265625 5.345625 16.7578125 5.78125 C19.28405474 6.73087359 21.62816966 7.7255837 24 9 C23.01 9 22.02 9 21 9 C21 9.66 21 10.32 21 11 C23.475 11.495 23.475 11.495 26 12 C26 12.33 26 12.66 26 13 C19.31539439 13.59418717 14.13260681 11.52138804 8 9 C6.824375 8.54625 5.64875 8.0925 4.4375 7.625 C1.27206074 5.51470716 0.80891646 3.64012407 0 0 Z " fill="#FAD788" transform="translate(177,251)"/>
<path d="M0 0 C0.66 0 1.32 0 2 0 C1.34197179 4.3429862 -0.03638798 8.07277596 -2 12 C-4.85487115 12.95162372 -6.60454317 13.12163139 -9.56323242 13.11352539 C-10.48396042 13.11344986 -11.40468842 13.11337433 -12.35331726 13.11329651 C-13.34402725 13.10813522 -14.33473724 13.10297394 -15.35546875 13.09765625 C-16.37224197 13.0962413 -17.3890152 13.09482635 -18.43659973 13.09336853 C-21.68692964 13.08776707 -24.93719088 13.07521432 -28.1875 13.0625 C-30.38997296 13.05748519 -32.59244701 13.05292225 -34.79492188 13.04882812 C-40.19663804 13.03779717 -45.59831412 13.02105762 -51 13 C-51 12.34 -51 11.68 -51 11 C-35.49 11 -19.98 11 -4 11 C-3.34 8.03 -2.68 5.06 -2 2 C-1.34 1.34 -0.68 0.68 0 0 Z " fill="#C4C0BD" transform="translate(149,149)"/>
<path d="M0 0 C-7.9757302 7.9757302 -21.14372155 9.55688659 -32 10 C-32 9.01 -32 8.02 -32 7 C-26.12224754 5.26532734 -20.20414931 3.85257491 -14.22851562 2.5 C-10.93195226 1.74039584 -7.79876105 0.92976276 -4.59765625 -0.1875 C-2 -1 -2 -1 0 0 Z " fill="#F8CF75" transform="translate(318,256)"/>
<path d="M0 0 C0 1.32 0 2.64 0 4 C-1.65 4 -3.3 4 -5 4 C-5.33 12.25 -5.66 20.5 -6 29 C-6.99 29.33 -7.98 29.66 -9 30 C-9.05796132 25.89589245 -9.09358313 21.79188984 -9.125 17.6875 C-9.14175781 16.52025391 -9.15851563 15.35300781 -9.17578125 14.15039062 C-9.18222656 13.03212891 -9.18867188 11.91386719 -9.1953125 10.76171875 C-9.20578613 9.73006592 -9.21625977 8.69841309 -9.22705078 7.63549805 C-9 5 -9 5 -7 2 C-7.66 1.67 -8.32 1.34 -9 1 C-6.04335481 -0.4783226 -3.25770263 -0.06032783 0 0 Z " fill="#D6D4D1" transform="translate(369,91)"/>
<path d="M0 0 C0.66 0 1.32 0 2 0 C1.72952055 3.51623285 1.50814409 6.21720213 -0.43457031 9.20996094 C-4.38148805 11.96393894 -8.09909352 11.49605328 -12.796875 11.390625 C-13.74564514 11.38496521 -14.69441528 11.37930542 -15.67193604 11.37347412 C-18.69847336 11.35110609 -21.72382129 11.30090858 -24.75 11.25 C-26.8033683 11.22993557 -28.85675519 11.2116847 -30.91015625 11.1953125 C-35.94056156 11.15123981 -40.97007921 11.08220891 -46 11 C-46.33 10.34 -46.66 9.68 -47 9 C-32.48 8.67 -17.96 8.34 -3 8 C-2.01 5.36 -1.02 2.72 0 0 Z " fill="#C8C5C3" transform="translate(86,151)"/>
<path d="M0 0 C0 0.66 0 1.32 0 2 C-2.37390836 3.18695418 -3.80244951 3.12075833 -6.44970703 3.11352539 C-7.37051056 3.11344986 -8.29131409 3.11337433 -9.24002075 3.11329651 C-10.73382767 3.10555458 -10.73382767 3.10555458 -12.2578125 3.09765625 C-13.27600067 3.0962413 -14.29418884 3.09482635 -15.3432312 3.09336853 C-18.60385035 3.087759 -21.86440151 3.07520488 -25.125 3.0625 C-27.33203026 3.05748623 -29.53906159 3.05292311 -31.74609375 3.04882812 C-37.16408581 3.03778648 -42.58203805 3.02103905 -48 3 C-48 2.34 -48 1.68 -48 1 C-42.12844002 0.85666105 -36.25685803 0.71427314 -30.38525391 0.57275391 C-28.38915387 0.52451077 -26.39306002 0.47601098 -24.39697266 0.42724609 C-21.52247696 0.35706658 -18.64796004 0.28782002 -15.7734375 0.21875 C-14.88570648 0.19687622 -13.99797546 0.17500244 -13.08334351 0.15246582 C-8.72093903 0.04854304 -4.36406685 -0.0249732 0 0 Z " fill="#C6C2BF" transform="translate(207,159)"/>
<path d="M0 0 C17.82 1.485 17.82 1.485 36 3 C36 3.33 36 3.66 36 4 C33.69 4 31.38 4 29 4 C29 4.66 29 5.32 29 6 C23.49405297 8.75297351 16.66194932 6.43795538 11 5 C11 4.01 11 3.02 11 2 C8.02148438 2.09765625 8.02148438 2.09765625 5.04296875 2.1953125 C3 2 3 2 0 0 Z " fill="#DCA94F" transform="translate(350,218)"/>
<path d="M0 0 C-4.03570845 3.51548041 -8.22693163 5.80891701 -13 8.125 C-14.04800781 8.64513672 -14.04800781 8.64513672 -15.1171875 9.17578125 C-18.69393343 10.93715991 -22.26812206 12.58596812 -26 14 C-25.81640625 11.66015625 -25.81640625 11.66015625 -25 9 C-22.77734375 7.55859375 -22.77734375 7.55859375 -19.9375 6.4375 C-16.40769719 4.99265843 -13.02873063 3.5264719 -9.6875 1.6875 C-6.3657369 -0.01790002 -3.76998939 -0.37699894 0 0 Z " fill="#F0C87B" transform="translate(371,239)"/>
<path d="M0 0 C2.07069937 2.07069937 2.63211799 3.32572884 3.6875 6 C5.70515052 10.73077906 8.42931014 14.63940385 11.51171875 18.73828125 C12.93280045 20.89787784 13.56677544 22.47574491 14 25 C11.10441654 24.66345192 10.15163613 24.17657629 8.21875 21.92578125 C7.6515625 21.06339844 7.084375 20.20101562 6.5 19.3125 C5.90058594 18.40628906 5.30117187 17.50007813 4.68359375 16.56640625 C4.12800781 15.71949219 3.57242188 14.87257812 3 14 C2.55785156 13.41089844 2.11570312 12.82179687 1.66015625 12.21484375 C-0.94574462 8.73721803 -1.48936454 6.30640795 -1 2 C-0.67 1.34 -0.34 0.68 0 0 Z " fill="#B27D2E" transform="translate(103,199)"/>
<path d="M0 0 C-1 2 -1 2 -3.1171875 2.8515625 C-13.83818636 5.85830156 -22.51176008 5.82217854 -33 2 C-33 1.34 -33 0.68 -33 0 C-31.515 0.2475 -31.515 0.2475 -30 0.5 C-25.65278294 1.03659745 -21.31294707 1.1471733 -16.9375 1.1875 C-16.26525391 1.20039063 -15.59300781 1.21328125 -14.90039062 1.2265625 C-11.4484783 1.23331111 -8.41065889 0.93535535 -5.12890625 -0.07421875 C-2 -1 -2 -1 0 0 Z " fill="#CECBC9" transform="translate(323,159)"/>
<path d="M0 0 C1.32 0.33 2.64 0.66 4 1 C3.67 4.3 3.34 7.6 3 11 C1.68 11.33 0.36 11.66 -1 12 C-1.33 10.68 -1.66 9.36 -2 8 C-4.475 7.505 -4.475 7.505 -7 7 C-6.34 6.34 -5.68 5.68 -5 5 C-11.27 4.67 -17.54 4.34 -24 4 C-24 3.67 -24 3.34 -24 3 C-16.08 2.67 -8.16 2.34 0 2 C0 1.34 0 0.68 0 0 Z " fill="#DFDBD8" transform="translate(81,91)"/>
<path d="M0 0 C0.50789063 0.39832031 1.01578125 0.79664063 1.5390625 1.20703125 C11.17268992 8.62167707 20.0437628 11.06898153 32 12 C32 12.66 32 13.32 32 14 C20.98082637 14.63066813 12.02881854 13.65522342 3.3125 6.4375 C1.36328125 4.68359375 1.36328125 4.68359375 0 3 C0 2.01 0 1.02 0 0 Z " fill="#D5D3D1" transform="translate(436,149)"/>
<path d="M0 0 C0.66 0 1.32 0 2 0 C2.01981934 0.64026123 2.03963867 1.28052246 2.06005859 1.94018555 C2.15563601 4.8563528 2.26518214 7.77183572 2.375 10.6875 C2.42140625 12.19860352 2.42140625 12.19860352 2.46875 13.74023438 C2.50742187 14.71669922 2.54609375 15.69316406 2.5859375 16.69921875 C2.6173584 17.59471436 2.6487793 18.49020996 2.68115234 19.4128418 C3.02716149 22.2203907 3.91177556 24.40173564 5 27 C5.125 29.8125 5.125 29.8125 5 32 C0.57107586 28.06731386 -0.72007552 22.82657711 -1.14501953 17.01757812 C-1.5918684 4.77560521 -1.5918684 4.77560521 0 0 Z " fill="#E0DFDD" transform="translate(438,113)"/>
<path d="M0 0 C0.66 0 1.32 0 2 0 C1.42104352 4.47222904 -0.41344968 7.87470532 -2.6875 11.6875 C-3.04545654 12.29746826 -3.40341309 12.90743652 -3.7722168 13.53588867 C-4.49856238 14.77140493 -5.22778533 16.00523439 -5.95996094 17.23730469 C-6.91048717 18.84829046 -7.8355284 20.47424344 -8.7578125 22.1015625 C-9.27085938 22.99617188 -9.78390625 23.89078125 -10.3125 24.8125 C-10.98732422 25.99779297 -10.98732422 25.99779297 -11.67578125 27.20703125 C-13 29 -13 29 -16 30 C-13.95963743 23.28546538 -10.53354291 17.64905206 -7 11.625 C-6.35804687 10.50738281 -5.71609375 9.38976562 -5.0546875 8.23828125 C-4.43851563 7.18253906 -3.82234375 6.12679687 -3.1875 5.0390625 C-2.62417969 4.07178223 -2.06085938 3.10450195 -1.48046875 2.10791016 C-0.99191406 1.4122998 -0.50335938 0.71668945 0 0 Z " fill="#CFCDCA" transform="translate(131,117)"/>
<path d="M0 0 C13 0 13 0 19 2 C19 2.66 19 3.32 19 4 C19.99 4.33 20.98 4.66 22 5 C21.67 5.66 21.34 6.32 21 7 C20.39414062 6.72285156 19.78828125 6.44570312 19.1640625 6.16015625 C18.32617188 5.79792969 17.48828125 5.43570313 16.625 5.0625 C15.81289063 4.70285156 15.00078125 4.34320313 14.1640625 3.97265625 C9.94792202 2.56272502 9.94792202 2.56272502 1 2 C1 12.89 1 23.78 1 35 C0.67 35 0.34 35 0 35 C0 23.45 0 11.9 0 0 Z " fill="#C5C1BE" transform="translate(530,94)"/>
<path d="M0 0 C-0.99 1.65 -1.98 3.3 -3 5 C-3.845625 4.505 -4.69125 4.01 -5.5625 3.5 C-11.5397059 0.85862063 -18.59727001 1.77751131 -25 2 C-18.59352664 -4.40647336 -7.80531459 -2.71489203 0 0 Z " fill="#E7E4E1" transform="translate(331,92)"/>
<path d="M0 0 C2.5 2.0625 2.5 2.0625 4 4 C-3.66666667 4 -11.33333333 4 -19 4 C-18.34 3.67 -17.68 3.34 -17 3 C-17 2.34 -17 1.68 -17 1 C-10.97215473 -0.68835481 -6.14737784 -1.45869983 0 0 Z " fill="#D49F44" transform="translate(396,221)"/>
<path d="M0 0 C1.00933594 -0.01836914 1.00933594 -0.01836914 2.0390625 -0.03710938 C6.769425 -0.05080734 10.55945702 0.72466488 15 2.1875 C14.67 2.8475 14.34 3.5075 14 4.1875 C10.29140769 4.04783274 6.5832011 3.89966836 2.875 3.75 C1.82828125 3.71068359 0.7815625 3.67136719 -0.296875 3.63085938 C-5.27193842 3.42618904 -10.10770149 3.19473793 -15 2.1875 C-15 1.8575 -15 1.5275 -15 1.1875 C-9.97981594 0.37041275 -5.0908629 0.00487631 0 0 Z " fill="#E7E3E1" transform="translate(539,90.8125)"/>
<path d="M0 0 C3 2 3 2 3.50390625 4.28515625 C3.6434368 10.89890419 2.51711227 14.90753259 -1.296875 20.3203125 C-3.19493856 22.19225592 -4.39466897 22.62619163 -7 23 C-6.00191386 20.85027601 -5.09903469 19.1093508 -3.5 17.34375 C-1.45299157 14.14529933 -1.19310083 10.9442723 -0.8125 7.25 C-0.73064453 6.55261719 -0.64878906 5.85523438 -0.56445312 5.13671875 C-0.36522867 3.42573224 -0.18110071 1.71299963 0 0 Z " fill="#CFCCCA" transform="translate(331,135)"/>
<path d="M0 0 C8.02048551 3.97427645 16.10833913 8.22960142 23 14 C23.33 14.99 23.66 15.98 24 17 C21 17 21 17 19.56103516 15.64624023 C19.04589355 15.10298096 18.53075195 14.55972168 18 14 C16.70103583 13.17658254 15.37250377 12.39863065 14.0234375 11.66015625 C13.270625 11.23669922 12.5178125 10.81324219 11.7421875 10.37695312 C10.15973651 9.4982489 8.573755 8.62587385 6.984375 7.75976562 C6.23414063 7.33501953 5.48390625 6.91027344 4.7109375 6.47265625 C4.02306152 6.09375244 3.33518555 5.71484863 2.62646484 5.32446289 C0.61740342 3.68844395 0.36582224 2.51844288 0 0 Z " fill="#D1CECC" transform="translate(297,120)"/>
<path d="M0 0 C0.66 0.33 1.32 0.66 2 1 C1.76228882 1.80195801 1.76228882 1.80195801 1.51977539 2.62011719 C0.89799663 5.46704032 0.7835446 8.16527157 0.68359375 11.078125 C0.64169922 12.23828125 0.59980469 13.3984375 0.55664062 14.59375 C0.51732422 15.8003125 0.47800781 17.006875 0.4375 18.25 C0.39431641 19.47203125 0.35113281 20.6940625 0.30664062 21.953125 C0.20062645 24.9686392 0.09856064 27.98423448 0 31 C-0.66 31.33 -1.32 31.66 -2 32 C-2.04946866 27.92492428 -2.08575189 23.84996503 -2.10986328 19.7746582 C-2.1199157 18.38855952 -2.1335597 17.00248201 -2.15087891 15.61645508 C-2.17515952 13.6233025 -2.18542031 11.62999467 -2.1953125 9.63671875 C-2.20578613 8.43748779 -2.21625977 7.23825684 -2.22705078 6.00268555 C-2 3 -2 3 0 0 Z " fill="#C7C5C2" transform="translate(256,124)"/>
<path d="M0 0 C1.20849609 0.00322266 2.41699219 0.00644531 3.66210938 0.00976562 C5.55606445 0.02233398 5.55606445 0.02233398 7.48828125 0.03515625 C9.39963867 0.04192383 9.39963867 0.04192383 11.34960938 0.04882812 C14.50004689 0.06062752 17.65039074 0.07709028 20.80078125 0.09765625 C20.80078125 0.75765625 20.80078125 1.41765625 20.80078125 2.09765625 C10.90078125 2.42765625 1.00078125 2.75765625 -9.19921875 3.09765625 C-9.19921875 2.43765625 -9.19921875 1.77765625 -9.19921875 1.09765625 C-5.90187229 -0.00145924 -3.4696313 -0.01628935 0 0 Z " fill="#CCC8C6" transform="translate(175.19921875,94.90234375)"/>
<path d="M0 0 C0.66 0 1.32 0 2 0 C3.515625 1.57421875 3.515625 1.57421875 5.25 3.6875 C7.47734485 6.33421941 9.61337247 8.60627346 12.375 10.6875 C15 13 15 13 15.875 15.8125 C15.936875 16.8953125 15.936875 16.8953125 16 18 C11.82318789 15.73215138 8.53105483 12.89712678 5.1875 9.5625 C4.68541016 9.08490234 4.18332031 8.60730469 3.66601562 8.11523438 C2.23046875 6.69140625 2.23046875 6.69140625 0 4 C0 2.68 0 1.36 0 0 Z " fill="#BD8C3D" transform="translate(116,208)"/>
<path d="M0 0 C-0.33 1.32 -0.66 2.64 -1 4 C-10.24 4 -19.48 4 -29 4 C-29 3.34 -29 2.68 -29 2 C-27.87972412 1.96241577 -27.87972412 1.96241577 -26.73681641 1.92407227 C-23.36602733 1.80831787 -19.99553217 1.68549872 -16.625 1.5625 C-15.449375 1.52318359 -14.27375 1.48386719 -13.0625 1.44335938 C-11.94101562 1.40146484 -10.81953125 1.35957031 -9.6640625 1.31640625 C-8.62717285 1.27974854 -7.5902832 1.24309082 -6.52197266 1.20532227 C-4.04204151 1.00342274 -2.44117313 0 0 0 Z " fill="#C9C6C3" transform="translate(543,158)"/>
<path d="M0 0 C-2 2 -2 2 -4.43017578 2.13525391 C-5.92266846 2.05670166 -5.92266846 2.05670166 -7.4453125 1.9765625 C-9.05986328 1.89921875 -9.05986328 1.89921875 -10.70703125 1.8203125 C-12.39892578 1.72363281 -12.39892578 1.72363281 -14.125 1.625 C-15.82849609 1.53992188 -15.82849609 1.53992188 -17.56640625 1.453125 C-20.3782163 1.31135306 -23.18917281 1.15991439 -26 1 C-17.26976337 -3.43726903 -9.26902423 -2.12731704 0 0 Z " fill="#EAE7E6" transform="translate(482,92)"/>
<path d="M0 0 C0 0.66 0 1.32 0 2 C-2.71401294 3.35700647 -4.84846316 3.1123861 -7.8828125 3.09765625 C-9.04941406 3.09443359 -10.21601563 3.09121094 -11.41796875 3.08789062 C-12.64128906 3.07951172 -13.86460937 3.07113281 -15.125 3.0625 C-16.35605469 3.05798828 -17.58710938 3.05347656 -18.85546875 3.04882812 C-21.90369392 3.0370133 -24.95182314 3.02054028 -28 3 C-28.33 2.34 -28.66 1.68 -29 1 C-25.8543649 0.82945079 -22.70846763 0.66429189 -19.5625 0.5 C-18.24475586 0.42845703 -18.24475586 0.42845703 -16.90039062 0.35546875 C-11.25801331 0.06398062 -5.64989797 -0.04598086 0 0 Z " fill="#C5C3C0" transform="translate(266,159)"/>
<path d="M0 0 C0.33 0 0.66 0 1 0 C3.17349108 23.47780459 3.17349108 23.47780459 -5 34 C-5.66 33.67 -6.32 33.34 -7 33 C-6.0234375 31.4375 -5.046875 29.875 -4.0703125 28.3125 C-1.12435205 21.94750516 -0.64473971 15.4008409 -0.375 8.5 C-0.33632813 7.67757812 -0.29765625 6.85515625 -0.2578125 6.0078125 C-0.16468308 4.0055299 -0.08131015 2.00279738 0 0 Z " fill="#EEECEB" transform="translate(492,119)"/>
<path d="M0 0 C-0.33 0.99 -0.66 1.98 -1 3 C-9.58 3 -18.16 3 -27 3 C-27 2.34 -27 1.68 -27 1 C-22.87502594 0.83268714 -18.75001667 0.66625884 -14.625 0.5 C-13.449375 0.45230469 -12.27375 0.40460938 -11.0625 0.35546875 C-9.94101562 0.31035156 -8.81953125 0.26523438 -7.6640625 0.21875 C-6.62717285 0.17685547 -5.5902832 0.13496094 -4.52197266 0.09179688 C-3.01533561 0.03695704 -1.50763477 0 0 0 Z " fill="#C5C3C1" transform="translate(419,159)"/>
<path d="M0 0 C0 1.32 0 2.64 0 4 C-7.26 3.67 -14.52 3.34 -22 3 C-21.67 2.34 -21.34 1.68 -21 1 C-18.25008168 0.83188272 -15.50007888 0.6654519 -12.75 0.5 C-11.97269531 0.45230469 -11.19539063 0.40460938 -10.39453125 0.35546875 C-9.26337891 0.28779297 -9.26337891 0.28779297 -8.109375 0.21875 C-7.41811523 0.17685547 -6.72685547 0.13496094 -6.01464844 0.09179688 C-4.01161035 0.00052902 -2.0051163 0 0 0 Z " fill="#DED9D6" transform="translate(78,121)"/>
<path d="M0 0 C3 1 3 1 4.5625 3.5625 C7.63067286 10.89943509 8.29023547 17.13139396 8 25 C7.67 25 7.34 25 7 25 C6.67 22.69 6.34 20.38 6 18 C5.67 18 5.34 18 5 18 C4.80664062 17.20335938 4.61328125 16.40671875 4.4140625 15.5859375 C2.48205464 7.7134296 2.48205464 7.7134296 0 0 Z " fill="#D7D4D2" transform="translate(497,105)"/>
<path d="M0 0 C-3.49296848 4.12599837 -7.85595704 4.34089582 -13 5 C-15.69559382 5.13413067 -18.29893891 5.1000393 -21 5 C-21 4.67 -21 4.34 -21 4 C-19.02 3.67 -17.04 3.34 -15 3 C-15.99 2.34 -16.98 1.68 -18 1 C-11.95170514 0.10395632 -6.1105424 -0.11269443 0 0 Z " fill="#E5B760" transform="translate(284,264)"/>
<path d="M0 0 C8.2056037 -0.29599372 15.92437827 0.56205146 24 2 C24 2.33 24 2.66 24 3 C15.27395793 4.15144911 8.32769595 3.95391219 0 1 C0 0.67 0 0.34 0 0 Z " fill="#D3A558" transform="translate(208,263)"/>
<path d="M0 0 C0.66 0.33 1.32 0.66 2 1 C0.2174902 4.44618561 -1.85342013 5.54684068 -5.375 6.8125 C-8.91256162 7.88588738 -11.419972 8.27033252 -15 7 C-14.42378906 6.71253906 -13.84757812 6.42507813 -13.25390625 6.12890625 C-11.82210175 5.41176327 -10.39217964 4.69083993 -8.96484375 3.96484375 C-7.96130859 3.45630859 -7.96130859 3.45630859 -6.9375 2.9375 C-6.26589844 2.59589844 -5.59429687 2.25429687 -4.90234375 1.90234375 C-3 1 -3 1 0 0 Z " fill="#EBB854" transform="translate(328,251)"/>
<path d="M0 0 C4.00523058 1.33507686 5.15889419 3.87337777 7.25 7.3125 C7.81460938 8.18551758 7.81460938 8.18551758 8.390625 9.07617188 C11.06417898 13.41578248 11.06417898 13.41578248 10.734375 16.41796875 C10.49203125 16.94003906 10.2496875 17.46210937 10 18 C8.5320419 15.79806285 7.06471754 13.59575914 5.6015625 11.390625 C4.65277153 9.97438092 3.69329944 8.56504284 2.7109375 7.171875 C0 3.3102518 0 3.3102518 0 0 Z " fill="#D7D4D1" transform="translate(240,105)"/>
<path d="M0 0 C0.66 0.33 1.32 0.66 2 1 C-0.39521428 6.90105865 -2.98281468 12.03137606 -7 17 C-7.66 17 -8.32 17 -9 17 C-7.51481201 12.95698825 -5.57122002 9.38853744 -3.375 5.6875 C-2.74335938 4.61886719 -2.11171875 3.55023438 -1.4609375 2.44921875 C-0.97882813 1.64097656 -0.49671875 0.83273438 0 0 Z " fill="#CECBC9" transform="translate(142,99)"/>
<path d="M0 0 C0.66 0 1.32 0 2 0 C1.67 6.27 1.34 12.54 1 19 C0.34 19 -0.32 19 -1 19 C-1.02697137 16.39576408 -1.04682489 13.79180756 -1.0625 11.1875 C-1.07087891 10.44951172 -1.07925781 9.71152344 -1.08789062 8.95117188 C-1.10259828 5.70077932 -1.03531702 3.10595105 0 0 Z " fill="#CBC8C4" transform="translate(438,113)"/>
<path d="M0 0 C0.66 0 1.32 0 2 0 C1.78044525 3.84220809 1.03438793 4.96561207 -1.75 7.75 C-4.74968611 9.82670577 -6.43208879 10.68518431 -10 11 C-8.83920845 7.51762536 -7.93131619 6.98418684 -5 4.9375 C-1.98371816 2.92046147 -1.98371816 2.92046147 0 0 Z " fill="#CDCAC9" transform="translate(560,120)"/>
<path d="M0 0 C2.11386464 2.11386464 2.97008322 3.79267603 4.1875 6.5 C4.55230469 7.2940625 4.91710937 8.088125 5.29296875 8.90625 C5.52628906 9.5971875 5.75960937 10.288125 6 11 C5.67 11.66 5.34 12.32 5 13 C1.83884224 11.63016497 1.0072908 11.0109362 -1 8 C-1.32727273 2.65454545 -1.32727273 2.65454545 0 0 Z " fill="#AD7523" transform="translate(103,199)"/>
<path d="M0 0 C0 0.99 0 1.98 0 3 C-4.40914783 4.10228696 -8.48382401 4.07654536 -13 4 C-13 3.67 -13 3.34 -13 3 C-10.69 3 -8.38 3 -6 3 C-6 2.34 -6 1.68 -6 1 C-9.3 1 -12.6 1 -16 1 C-16 0.67 -16 0.34 -16 0 C-14.08416353 -0.1958009 -12.16727461 -0.38132214 -10.25 -0.5625 C-8.64898437 -0.71912109 -8.64898437 -0.71912109 -7.015625 -0.87890625 C-4.35858796 -0.98560074 -2.50039428 -0.81930395 0 0 Z " fill="#DEDBD9" transform="translate(474,160)"/>
<path d="M0 0 C0.99 0 1.98 0 3 0 C2.45660208 4.56454251 1.20536179 7.9728176 -1 12 C-3 10 -3 10 -3.3125 7.6875 C-2.93321093 4.42561396 -1.99846148 2.59059822 0 0 Z " fill="#D4D2D0" transform="translate(209,149)"/>
<path d="M0 0 C2.64 0 5.28 0 8 0 C7.67 1.32 7.34 2.64 7 4 C5.35 4 3.7 4 2 4 C2.33 4.99 2.66 5.98 3 7 C2.01 7.495 2.01 7.495 1 8 C-0.35439668 5.29120665 -0.06501451 2.99066732 0 0 Z " fill="#DAD7D6" transform="translate(234,91)"/>
<path d="M0 0 C0.61035156 1.78857422 0.61035156 1.78857422 1 4 C-0.32370422 6.53612357 -1.65485191 8.7734899 -3.25 11.125 C-3.65863281 11.75792969 -4.06726563 12.39085937 -4.48828125 13.04296875 C-6.46612651 16.03835499 -7.98178019 17.98785346 -11 20 C-9.68332049 17.32500685 -8.30154238 14.70558937 -6.8359375 12.109375 C-6.43632812 11.40039062 -6.03671875 10.69140625 -5.625 9.9609375 C-5.2125 9.23132813 -4.8 8.50171875 -4.375 7.75 C-3.95476562 7.00492187 -3.53453125 6.25984375 -3.1015625 5.4921875 C-2.06856935 3.66097237 -1.03440045 1.83042056 0 0 Z " fill="#EFECEB" transform="translate(183,117)"/>
<path d="M0 0 C5.61 0.33 11.22 0.66 17 1 C17 1.66 17 2.32 17 3 C14.91695462 3.05418326 12.83350232 3.09287551 10.75 3.125 C9.00976562 3.15980469 9.00976562 3.15980469 7.234375 3.1953125 C4.17213954 3.0103949 2.55797249 2.60823023 0 1 C0 0.67 0 0.34 0 0 Z " fill="#CBC8C6" transform="translate(451,160)"/>
<path d="M0 0 C1.69140625 1.86328125 1.69140625 1.86328125 3.5625 4.3125 C4.18253906 5.11300781 4.80257812 5.91351563 5.44140625 6.73828125 C7 9 7 9 8 12 C3.78071796 10.43730295 1.81626588 7.37951905 -1 4 C-3.14980497 2.62745412 -3.14980497 2.62745412 -5 2 C-2 0 -2 0 0 0 Z " fill="#D9D6D4" transform="translate(222,92)"/>
<path d="M0 0 C11.385 0.99 11.385 0.99 23 2 C23 2.33 23 2.66 23 3 C20.69 3 18.38 3 16 3 C16 3.66 16 4.32 16 5 C14.35 5 12.7 5 11 5 C11 4.01 11 3.02 11 2 C8.02148438 2.09765625 8.02148438 2.09765625 5.04296875 2.1953125 C3 2 3 2 0 0 Z " fill="#EFCA88" transform="translate(350,218)"/>
<path d="M0 0 C0.99 0.66 1.98 1.32 3 2 C1.8553125 3.5778125 1.8553125 3.5778125 0.6875 5.1875 C-0.90741921 7.40416738 -2.3233379 9.56284746 -3.6875 11.9375 C-4.120625 12.618125 -4.55375 13.29875 -5 14 C-5.66 14 -6.32 14 -7 14 C-5.23570801 9.02790438 -2.6060834 4.56561939 0 0 Z " fill="#F0ECEB" transform="translate(268,99)"/>
<path d="M0 0 C1.48819457 0.9019361 2.96532813 1.82214129 4.4375 2.75 C5.26121094 3.26046875 6.08492187 3.7709375 6.93359375 4.296875 C9.21744593 6.1792182 9.65514457 7.1157546 10 10 C9.01 10 8.02 10 7 10 C6.67 8.68 6.34 7.36 6 6 C4.35 5.67 2.7 5.34 1 5 C0.67 3.35 0.34 1.7 0 0 Z " fill="#CD9E51" transform="translate(131,222)"/>
<path d="M0 0 C2.31 0 4.62 0 7 0 C7 1.32 7 2.64 7 4 C4.03 4.66 1.06 5.32 -2 6 C-1.34 4.02 -0.68 2.04 0 0 Z " fill="#D9D7D5" transform="translate(410,91)"/>
<path d="M0 0 C2.52113092 -0.05447822 5.0410585 -0.09389852 7.5625 -0.125 C8.26697266 -0.14175781 8.97144531 -0.15851563 9.69726562 -0.17578125 C14.51891822 -0.22022044 18.42297438 0.47231996 23 2 C22.67 2.66 22.34 3.32 22 4 C15.125 3.125 15.125 3.125 14 2 C11.65012738 1.76472227 9.29443961 1.58613583 6.9375 1.4375 C5.64714844 1.35371094 4.35679687 1.26992187 3.02734375 1.18359375 C1.52880859 1.09271484 1.52880859 1.09271484 0 1 C0 0.67 0 0.34 0 0 Z " fill="#F1EFEF" transform="translate(531,91)"/>
<path d="M0 0 C5.44876003 1.72066106 10.71169451 3.84705349 16 6 C16 6.33 16 6.66 16 7 C6.44705882 6.01176471 6.44705882 6.01176471 2 4 C0.625 1.875 0.625 1.875 0 0 Z " fill="#FBDC96" transform="translate(177,251)"/>
<path d="M0 0 C-1.53009089 3.44270451 -3.4931222 6.18925822 -6 9 C-6.99 9.33 -7.98 9.66 -9 10 C-9.33 9.01 -9.66 8.02 -10 7 C-9.34 7 -8.68 7 -8 7 C-7.67 6.34 -7.34 5.68 -7 5 C-2.35714286 0 -2.35714286 0 0 0 Z " fill="#D39D3D" transform="translate(379,248)"/>
<path d="M0 0 C0 0.99 0 1.98 0 3 C-8.91 2.67 -17.82 2.34 -27 2 C-27 1.67 -27 1.34 -27 1 C-17.98865693 0.3668316 -9.04028922 -0.1723784 0 0 Z " fill="#D6D3D1" transform="translate(374,158)"/>
<path d="M0 0 C0.66 0 1.32 0 2 0 C1.33501617 4.38889325 -0.18757677 7.9811485 -2 12 C-3.1875 10.4375 -3.1875 10.4375 -4 8 C-1.78947368 1.78947368 -1.78947368 1.78947368 0 0 Z " fill="#D1CDCA" transform="translate(149,149)"/>
<path d="M0 0 C1.916588 -0.02712153 3.8332873 -0.04645097 5.75 -0.0625 C7.35101562 -0.07990234 7.35101562 -0.07990234 8.984375 -0.09765625 C11.53368501 -0.01510087 13.57933591 0.25382442 16 1 C16 1.66 16 2.32 16 3 C16.99 3.33 17.98 3.66 19 4 C18.67 4.66 18.34 5.32 18 6 C17.05640625 5.58427734 17.05640625 5.58427734 16.09375 5.16015625 C10.63589792 2.85043271 5.91189352 1.43791804 0 1 C0 0.67 0 0.34 0 0 Z " fill="#D1CECC" transform="translate(533,95)"/>
<path d="M0 0 C-3 2 -3 2 -5 2 C-5.66 3.65 -6.32 5.3 -7 7 C-7.99 7 -8.98 7 -10 7 C-9.67226629 3.96846314 -9.35865103 2.38426897 -7.25 0.125 C-4.40525065 -1.29737468 -2.98383376 -0.91172698 0 0 Z " fill="#D8D4D2" transform="translate(108,98)"/>
<path d="M0 0 C0.66 0 1.32 0 2 0 C1 2 0 4 -1 6 C-0.34 6.33 0.32 6.66 1 7 C-3.625 9.125 -3.625 9.125 -7 8 C-5.74381926 4.23145777 -4.33985294 3.92041544 -1 2 C-0.67 1.34 -0.34 0.68 0 0 Z " fill="#CA9032" transform="translate(364,273)"/>
<path d="M0 0 C0 6.23658289 -1.26856333 9.94450516 -5 15 C-6.2418027 11.27459191 -5.54830353 10.50405535 -4 7 C-3.67 5.9275 -3.34 4.855 -3 3.75 C-2 1 -2 1 0 0 Z " fill="#D6D4D1" transform="translate(263,112)"/>
<path d="M0 0 C1.39211215 4.17633644 -0.0464421 5.78960515 -1.9375 9.6875 C-2.50339844 10.86699219 -3.06929688 12.04648438 -3.65234375 13.26171875 C-4.09707031 14.16535156 -4.54179687 15.06898437 -5 16 C-5.33 16 -5.66 16 -6 16 C-5.36280747 9.62807469 -3.52697677 5.29046516 0 0 Z " fill="#F1EFEE" transform="translate(434,107)"/>
<path d="M0 0 C0.99 0 1.98 0 3 0 C1.85569823 3.87302138 0.76679902 7.00263439 -2 10 C-2.66 10 -3.32 10 -4 10 C-3.29445932 6.33118845 -1.72264494 3.29549466 0 0 Z " fill="#D1CECB" transform="translate(206,93)"/>
<path d="M0 0 C0.33 0 0.66 0 1 0 C2.44667651 8.00029542 2.44667651 8.00029542 0.6875 11.9375 C-1 14 -1 14 -3 16 C-3.99 15.67 -4.98 15.34 -6 15 C-5.360625 14.38125 -4.72125 13.7625 -4.0625 13.125 C-1.21577476 10.19201036 -0.83443876 8.3443876 -0.4375 4.375 C-0.35371094 3.55773437 -0.26992188 2.74046875 -0.18359375 1.8984375 C-0.12300781 1.27195313 -0.06242187 0.64546875 0 0 Z " fill="#EFEDEC" transform="translate(323,142)"/>
<path d="M0 0 C0.97631287 3.03741782 1.37693397 5.06254087 0 8 C-3.0625 10.25 -3.0625 10.25 -6 12 C-4.43358249 7.69235185 -2.31663844 3.93828536 0 0 Z " fill="#DEAF61" transform="translate(363,263)"/>
<path d="M0 0 C-5.53846154 4.76923077 -5.53846154 4.76923077 -9 5 C-9.99 4.34 -10.98 3.68 -12 3 C-7.77050005 0.58314288 -4.87664009 -0.34833144 0 0 Z " fill="#E9BF6D" transform="translate(371,239)"/>
<path d="M0 0 C0.66 0.33 1.32 0.66 2 1 C1.09648559 2.63234937 0.1766431 4.25566824 -0.75 5.875 C-1.26046875 6.77992188 -1.7709375 7.68484375 -2.296875 8.6171875 C-4.05697297 11.07970989 -5.21006094 11.94467523 -8 13 C-6.85605098 11.01974361 -5.70978896 9.04082322 -4.5625 7.0625 C-3.92441406 5.96035156 -3.28632813 4.85820312 -2.62890625 3.72265625 C-1 1 -1 1 0 0 Z " fill="#EFEDEB" transform="translate(167,145)"/>
<path d="M0 0 C2.97 0 5.94 0 9 0 C9 0.33 9 0.66 9 1 C6.36 1 3.72 1 1 1 C1 2.98 1 4.96 1 7 C-0.98 7.99 -0.98 7.99 -3 9 C-2.01 6.03 -1.02 3.06 0 0 Z " fill="#EDEAE9" transform="translate(101,92)"/>
<path d="M0 0 C0.99 0 1.98 0 3 0 C2.67 3.3 2.34 6.6 2 10 C1.01 10.33 0.02 10.66 -1 11 C-0.67 7.37 -0.34 3.74 0 0 Z " fill="#CFCCCA" transform="translate(82,92)"/>
<path d="M0 0 C-2.475 4.455 -2.475 4.455 -5 9 C-5.66 8.67 -6.32 8.34 -7 8 C-6.75 4.625 -6.75 4.625 -6 1 C-3.56217182 -0.88735085 -2.80901846 -1.40450923 0 0 Z " fill="#D69D3C" transform="translate(370,259)"/>
<path d="M0 0 C1.32 0 2.64 0 4 0 C4 0.66 4 1.32 4 2 C4.66 2 5.32 2 6 2 C6 2.66 6 3.32 6 4 C6.66 4 7.32 4 8 4 C8.66 5.32 9.32 6.64 10 8 C6.40094092 7.44449305 5.00090201 6.25112752 2.75 3.4375 C2.22921875 2.79683594 1.7084375 2.15617188 1.171875 1.49609375 C0.78515625 1.00238281 0.3984375 0.50867188 0 0 Z " fill="#C39347" transform="translate(114,223)"/>
<path d="M0 0 C4.62 0 9.24 0 14 0 C11 3 11 3 8.80859375 3.3984375 C7.63490234 3.38683594 7.63490234 3.38683594 6.4375 3.375 C5.25994141 3.38660156 5.25994141 3.38660156 4.05859375 3.3984375 C3.03958984 3.20121094 3.03958984 3.20121094 2 3 C1.34 2.01 0.68 1.02 0 0 Z " fill="#EAE7E6" transform="translate(303,158)"/>
<path d="M0 0 C0.66 0 1.32 0 2 0 C1.38461538 6.52307692 1.38461538 6.52307692 -0.5625 8.9375 C-1.036875 9.288125 -1.51125 9.63875 -2 10 C-3 8 -3 8 -2.44140625 6.0546875 C-2.15136719 5.33539063 -1.86132812 4.61609375 -1.5625 3.875 C-1.27503906 3.15054688 -0.98757812 2.42609375 -0.69140625 1.6796875 C-0.46324219 1.12539062 -0.23507813 0.57109375 0 0 Z " fill="#D1CFCD" transform="translate(86,151)"/>
<path d="M0 0 C0.66 0.99 1.32 1.98 2 3 C1.02020583 6.47381571 -0.43987902 9.43987902 -3 12 C-5.6875 12.25 -5.6875 12.25 -8 12 C-6.824375 11.1028125 -6.824375 11.1028125 -5.625 10.1875 C-1.90719211 7.08932676 -0.75693596 4.66777173 0 0 Z " fill="#ECEAE8" transform="translate(553,117)"/>
<path d="M0 0 C1 3 1 3 0.00390625 5.26171875 C-0.47175781 6.06222656 -0.94742187 6.86273438 -1.4375 7.6875 C-1.91058594 8.49574219 -2.38367188 9.30398437 -2.87109375 10.13671875 C-3.24363281 10.75160156 -3.61617188 11.36648437 -4 12 C-4.33 12 -4.66 12 -5 12 C-4.58525633 6.71201818 -3.64775386 3.88309282 0 0 Z " fill="#F0EEEC" transform="translate(297,98)"/>
<path d="M0 0 C-1.875 4.75 -1.875 4.75 -3 7 C-4.32 6.67 -5.64 6.34 -7 6 C-5.52522876 2.59668175 -4.14385429 0 0 0 Z " fill="#D9D6D4" transform="translate(165,98)"/>
<path d="M0 0 C0.66 0 1.32 0 2 0 C1.71905418 1.8141927 1.42493567 3.62635001 1.125 5.4375 C0.88136719 6.95150391 0.88136719 6.95150391 0.6328125 8.49609375 C0.42398437 9.32238281 0.21515625 10.14867188 0 11 C-0.99 11.495 -0.99 11.495 -2 12 C-1.85962479 10.18706911 -1.71255111 8.3746557 -1.5625 6.5625 C-1.48128906 5.55316406 -1.40007812 4.54382813 -1.31640625 3.50390625 C-1 1 -1 1 0 0 Z " fill="#CAC6C3" transform="translate(330,93)"/>
<path d="M0 0 C1.98 0 3.96 0 6 0 C5.67 1.32 5.34 2.64 5 4 C3.35 4.33 1.7 4.66 0 5 C-0.33 4.34 -0.66 3.68 -1 3 C-0.67 2.01 -0.34 1.02 0 0 Z " fill="#DAD7D6" transform="translate(279,91)"/>
<path d="M0 0 C-1.1875 1.5 -1.1875 1.5 -3 3 C-5.6875 3.1875 -5.6875 3.1875 -8 3 C-8.33 2.34 -8.66 1.68 -9 1 C-5.64919071 -1.10976881 -3.77897651 -1.0497157 0 0 Z " fill="#D9A544" transform="translate(351,245)"/>
<path d="M0 0 C4.81449408 0.48144941 7.60171741 0.8008587 12 3 C8.04 3 4.08 3 0 3 C0 2.01 0 1.02 0 0 Z " fill="#EDEBEA" transform="translate(458,157)"/>
<path d="M0 0 C0.66 0 1.32 0 2 0 C3.11658501 4.68965706 2.80619523 7.53763531 1 12 C0.67 12 0.34 12 0 12 C0 8.04 0 4.08 0 0 Z " fill="#C7C4C1" transform="translate(563,106)"/>
<path d="M0 0 C1.98 0 3.96 0 6 0 C6.33 0.99 6.66 1.98 7 3 C4.69 3.33 2.38 3.66 0 4 C0 2.68 0 1.36 0 0 Z " fill="#CFCCCB" transform="translate(515,94)"/>
<path d="M0 0 C0 0.66 0 1.32 0 2 C-3.21451269 3.60725635 -6.43612536 3.05748185 -10 3 C-8.0130571 -0.97388579 -3.91761109 -0.08705802 0 0 Z " fill="#E0BA75" transform="translate(274,280)"/>
<path d="M0 0 C-0.1875 1.875 -0.1875 1.875 -1 4 C-3.375 5.125 -3.375 5.125 -6 6 C-6.99 6.66 -7.98 7.32 -9 8 C-7.47364599 4.11473526 -4.49771687 0 0 0 Z " fill="#AB7016" transform="translate(394,248)"/>
<path d="M0 0 C3.3 0 6.6 0 10 0 C7 3 7 3 3.8125 3.1875 C2.4203125 3.0946875 2.4203125 3.0946875 1 3 C0.67 2.01 0.34 1.02 0 0 Z " fill="#EEBF65" transform="translate(274,264)"/>
<path d="M0 0 C0.66 0.66 1.32 1.32 2 2 C0.5629191 2.05422947 -0.87475462 2.09289723 -2.3125 2.125 C-3.11300781 2.14820313 -3.91351563 2.17140625 -4.73828125 2.1953125 C-7 2 -7 2 -10 0 C-6.31938873 -0.9464429 -3.66134991 -1.08850943 0 0 Z " fill="#F2CC7F" transform="translate(208,264)"/>
<path d="M0 0 C0.99 0.66 1.98 1.32 3 2 C2.01 2.33 1.02 2.66 0 3 C0.165 3.763125 0.33 4.52625 0.5 5.3125 C1 8 1 8 1 11 C-3.03361345 5.62184874 -3.03361345 5.62184874 -2.875 2.6875 C-2 1 -2 1 0 0 Z " fill="#FBE0AA" transform="translate(320,208)"/>
<path d="M0 0 C1 4 1 4 0.0625 6.25 C-0.4634375 7.11625 -0.4634375 7.11625 -1 8 C-2.32 7.67 -3.64 7.34 -5 7 C-3.35 4.69 -1.7 2.38 0 0 Z " fill="#EFEDEB" transform="translate(260,113)"/>
<path d="M0 0 C0.33 0.99 0.66 1.98 1 3 C0.00390625 4.82421875 0.00390625 4.82421875 -1.4375 6.6875 C-1.91058594 7.31011719 -2.38367188 7.93273437 -2.87109375 8.57421875 C-3.24363281 9.04472656 -3.61617188 9.51523438 -4 10 C-4.33 9.01 -4.66 8.02 -5 7 C-2 2 -2 2 0 0 Z " fill="#CCC8C5" transform="translate(267,108)"/>
<path d="M0 0 C3.1875 0.3125 3.1875 0.3125 6 1 C6 1.99 6 2.98 6 4 C3.03 3.67 0.06 3.34 -3 3 C-2.01 2.01 -1.02 1.02 0 0 Z " fill="#EAC171" transform="translate(208,264)"/>
<path d="M0 0 C3.63 0 7.26 0 11 0 C10.67 0.99 10.34 1.98 10 3 C6.08393425 2.46599103 3.60661066 1.80330533 0 0 Z " fill="#DAAA51" transform="translate(208,263)"/>
<path d="M0 0 C-2.70188004 1.80125336 -4.93057703 3.00243753 -8 4 C-8.99 3.67 -9.98 3.34 -11 3 C-8.21756596 -1.17365106 -4.53441502 -0.22300402 0 0 Z " fill="#DDA841" transform="translate(338,251)"/>
<path d="M0 0 C2.31 0.33 4.62 0.66 7 1 C7 1.99 7 2.98 7 4 C6.443125 3.835 5.88625 3.67 5.3125 3.5 C2.81308751 2.95958649 0.54954338 2.92917935 -2 3 C-1.34 2.67 -0.68 2.34 0 2 C0 1.34 0 0.68 0 0 Z " fill="#C48D35" transform="translate(392,222)"/>
<path d="M0 0 C0.66 0 1.32 0 2 0 C1.46930939 3.82097239 0.50298434 6.06171403 -2 9 C-2.6875 7.3125 -2.6875 7.3125 -3 5 C-1.6875 2.25 -1.6875 2.25 0 0 Z " fill="#D2CFCD" transform="translate(131,117)"/>
<path d="M0 0 C2.29633824 3.44450737 2.54016485 5.93812283 3 10 C0.11192273 7.61419704 -0.61954948 5.70939253 -1 2 C-0.67 1.34 -0.34 0.68 0 0 Z " fill="#D3D1CF" transform="translate(440,135)"/>
<path d="M0 0 C0.33 0.99 0.66 1.98 1 3 C-1.64 3 -4.28 3 -7 3 C-7 2.34 -7 1.68 -7 1 C-4.53721199 -0.231394 -2.7204945 -0.07159196 0 0 Z " fill="#D4D0CE" transform="translate(399,92)"/>
<path d="M0 0 C0.66 0.33 1.32 0.66 2 1 C0.75 3 0.75 3 -1 5 C-2.32 5 -3.64 5 -5 5 C-5 4.01 -5 3.02 -5 2 C-2.625 0.9375 -2.625 0.9375 0 0 Z " fill="#E6BB69" transform="translate(328,251)"/>
<path d="M0 0 C0.66 0 1.32 0 2 0 C1.8125 1.875 1.8125 1.875 1 4 C-1.5625 5.25 -1.5625 5.25 -4 6 C-2.84826645 3.53199953 -1.95216435 1.95216435 0 0 Z " fill="#CAC7C5" transform="translate(328,152)"/>
<path d="M0 0 C2.9375 0.375 2.9375 0.375 6 1 C6.33 1.66 6.66 2.32 7 3 C4.36 3 1.72 3 -1 3 C-0.67 2.01 -0.34 1.02 0 0 Z " fill="#D9D6D4" transform="translate(40,92)"/>
<path d="M0 0 C4.875 4.75 4.875 4.75 6 7 C1.32307692 5.52307692 1.32307692 5.52307692 -0.3125 2.875 C-0.539375 2.25625 -0.76625 1.6375 -1 1 C-0.67 0.67 -0.34 0.34 0 0 Z " fill="#C99742" transform="translate(125,231)"/>
<path d="M0 0 C0.66 0 1.32 0 2 0 C1.34 1.98 0.68 3.96 0 6 C-0.66 6 -1.32 6 -2 6 C-2.33 6.66 -2.66 7.32 -3 8 C-2.45276317 4.62537285 -1.9451 2.91765 0 0 Z " fill="#CECCCA" transform="translate(113,148)"/>
<path d="M0 0 C0.66 0 1.32 0 2 0 C1.50168276 3.68754757 0.89932357 5.60490662 -2 8 C-2.33 7.34 -2.66 6.68 -3 6 C-2.06553465 3.96855359 -1.06775224 1.96466413 0 0 Z " fill="#C9C6C4" transform="translate(118,139)"/>
<path d="M0 0 C1.5625 1.1875 1.5625 1.1875 3 3 C2.8125 5.625 2.8125 5.625 2 8 C1.01 8.495 1.01 8.495 0 9 C-1.10844919 5.67465243 -0.84454356 3.37817425 0 0 Z " fill="#D9D7D5" transform="translate(562,113)"/>
</svg>
