<?xml version="1.0" encoding="UTF-8"?>
<svg version="1.1" xmlns="http://www.w3.org/2000/svg" width="500" height="500">
<path d="M0 0 C2.74051085 0.1590173 5.03259296 0.04723075 7.7265625 -0.37890625 C17.62310592 -1.73583634 26.50710909 1.71878707 35.1640625 6.18359375 C35.1640625 6.84359375 35.1640625 7.50359375 35.1640625 8.18359375 C36.8140625 8.84359375 38.4640625 9.50359375 40.1640625 10.18359375 C40.1640625 10.84359375 40.1640625 11.50359375 40.1640625 12.18359375 C40.8240625 12.18359375 41.4840625 12.18359375 42.1640625 12.18359375 C42.1640625 12.84359375 42.1640625 13.50359375 42.1640625 14.18359375 C42.8240625 14.18359375 43.4840625 14.18359375 44.1640625 14.18359375 C48.79202996 20.24249265 51.374416 26.8447556 53.1640625 34.18359375 C53.33824707 34.80476074 53.51243164 35.42592773 53.69189453 36.06591797 C54.17203234 38.21933852 54.2784035 40.09058122 54.26171875 42.29296875 C54.25849609 43.04707031 54.25527344 43.80117187 54.25195312 44.578125 C54.24357422 45.35542969 54.23519531 46.13273437 54.2265625 46.93359375 C54.22205078 47.72636719 54.21753906 48.51914063 54.21289062 49.3359375 C54.20114815 51.28518883 54.18321396 53.23440113 54.1640625 55.18359375 C55.06648682 55.16264648 55.96891113 55.14169922 56.89868164 55.12011719 C60.27395 55.05160143 63.64847046 55.00163091 67.02416992 54.96386719 C68.48001834 54.94385553 69.93578744 54.91663698 71.39135742 54.88183594 C86.846227 54.52180472 86.846227 54.52180472 92.1640625 59.18359375 C94.96334788 63.77084788 95.57016236 67.32607564 95.68823242 72.66210938 C95.70816631 73.38971025 95.7281002 74.11731113 95.74863815 74.86696053 C95.81100873 77.274478 95.85293817 79.68188476 95.89453125 82.08984375 C95.93413708 83.79628108 95.9748967 85.50269197 96.01673889 87.20907593 C96.12436574 91.76175011 96.21351862 96.31460374 96.29798889 100.8677597 C96.36930457 104.61611851 96.45020751 108.36424756 96.53076363 112.11241722 C96.97915097 133.09166753 97.3528234 154.07429092 97.4140625 175.05859375 C97.42196304 176.46612915 97.42196304 176.46612915 97.43002319 177.90209961 C97.44141998 180.47266244 97.43868164 183.04271908 97.4296875 185.61328125 C97.43364029 186.33848969 97.43759308 187.06369812 97.44166565 187.81088257 C97.40755161 191.43228332 97.14847777 194.10252793 95.1640625 197.18359375 C94.5040625 197.18359375 93.8440625 197.18359375 93.1640625 197.18359375 C93.1640625 197.84359375 93.1640625 198.50359375 93.1640625 199.18359375 C89.53028971 201.46417699 86.46588509 201.43966143 82.2315979 201.45101929 C81.53412614 201.4555504 80.83665438 201.46008151 80.11804712 201.46474993 C77.78126742 201.47740876 75.44472035 201.47577263 73.10791016 201.47412109 C71.43234456 201.48010542 69.75678173 201.48691074 68.08122253 201.49447632 C63.52953408 201.51215312 58.97792081 201.5168324 54.42620134 201.51810789 C50.62649121 201.52000684 46.82679859 201.52736431 43.0270952 201.53445208 C34.06232527 201.55073995 25.09759552 201.55562066 16.1328125 201.55419922 C6.88510483 201.5529976 -2.36236952 201.57410262 -11.61001813 201.60568655 C-19.54984077 201.63183749 -27.48958716 201.64256701 -35.42945254 201.6412884 C-40.17149023 201.64077843 -44.9133206 201.64648111 -49.6553154 201.6676445 C-54.11561338 201.68700706 -58.57550583 201.68716503 -63.0358181 201.67261124 C-64.67166549 201.67051958 -66.30753813 201.6752453 -67.94334221 201.68733215 C-70.17920629 201.70278117 -72.41367143 201.69348056 -74.64950562 201.67807007 C-75.89979239 201.6791596 -77.15007915 201.68024914 -78.4382534 201.68137169 C-83.54551352 200.9331322 -86.56599019 198.83936712 -89.68712807 194.76998806 C-90.96450074 191.89415041 -91.21304935 189.9379806 -91.21688843 186.80128479 C-91.2253479 185.73448486 -91.23380737 184.66768494 -91.24252319 183.56855774 C-91.2364505 182.4084166 -91.23037781 181.24827545 -91.22412109 180.05297852 C-91.22937805 178.82318268 -91.23463501 177.59338684 -91.24005127 176.32632446 C-91.25098253 172.96042741 -91.24843444 169.59508457 -91.23891401 166.22921872 C-91.23130534 162.7019536 -91.23836653 159.17471175 -91.24307251 155.64744568 C-91.24852728 149.72349815 -91.24134658 143.7996629 -91.22705078 137.87573242 C-91.21073225 131.03478347 -91.21600795 124.19410287 -91.23253 117.35316044 C-91.24616187 111.47273644 -91.24805601 105.59239305 -91.24021399 99.71195835 C-91.23554582 96.20293752 -91.23488877 92.69404264 -91.24482346 89.18502998 C-91.25513075 85.27111582 -91.24082786 81.3575 -91.22412109 77.44360352 C-91.23019379 76.2854866 -91.23626648 75.12736969 -91.24252319 73.93415833 C-91.19803422 68.30895117 -91.14977185 63.972197 -87.8359375 59.18359375 C-81.42106713 53.68773318 -73.94803441 54.72726869 -65.8984375 54.93359375 C-64.53322929 54.95368702 -63.16799257 54.97193281 -61.80273438 54.98828125 C-58.47973616 55.03524942 -55.15820758 55.10092649 -51.8359375 55.18359375 C-51.88234375 53.8790625 -51.92875 52.57453125 -51.9765625 51.23046875 C-52.3227289 37.43269894 -51.44441161 25.05489589 -41.8359375 14.18359375 C-41.1759375 14.18359375 -40.5159375 14.18359375 -39.8359375 14.18359375 C-39.8359375 13.52359375 -39.8359375 12.86359375 -39.8359375 12.18359375 C-39.1759375 12.18359375 -38.5159375 12.18359375 -37.8359375 12.18359375 C-37.8359375 11.52359375 -37.8359375 10.86359375 -37.8359375 10.18359375 C-26.79151793 0.63903363 -13.97798764 -1.30139885 0 0 Z M-30.8359375 18.18359375 C-38.88282596 26.4304049 -41.02017525 35.82431451 -40.8984375 46.99609375 C-40.89392578 47.78435547 -40.88941406 48.57261719 -40.88476562 49.38476562 C-40.87305062 51.31774136 -40.85511748 53.25067768 -40.8359375 55.18359375 C-37.5359375 55.18359375 -34.2359375 55.18359375 -30.8359375 55.18359375 C-30.79855469 54.01183594 -30.76117188 52.84007812 -30.72265625 51.6328125 C-30.13393064 36.41514747 -27.4136233 25.05012246 -18.8359375 12.18359375 C-23.24909428 12.18359375 -27.37720894 15.68119567 -30.8359375 18.18359375 Z M-15.64453125 25.15625 C-21.03416063 34.3274554 -19.8359375 44.84532751 -19.8359375 55.18359375 C-6.3059375 55.18359375 7.2240625 55.18359375 21.1640625 55.18359375 C21.2465625 51.90421875 21.3290625 48.62484375 21.4140625 45.24609375 C21.46868652 43.72447632 21.46868652 43.72447632 21.52441406 42.17211914 C21.63985724 32.57823231 18.46070246 25.861481 11.95703125 18.9140625 C8.66715045 15.73886164 5.85374509 13.55907877 1.3515625 12.55859375 C-6.12939748 14.02544865 -11.32287117 19.13547571 -15.64453125 25.15625 Z M22.1640625 13.18359375 C22.8240625 14.83359375 23.4840625 16.48359375 24.1640625 18.18359375 C24.8240625 18.18359375 25.4840625 18.18359375 26.1640625 18.18359375 C26.298125 18.76238281 26.4321875 19.34117188 26.5703125 19.9375 C27.31402119 22.75087169 28.37138394 25.38500717 29.4453125 28.0859375 C30.79249118 32.01764918 31.29361362 35.9093685 31.48046875 40.046875 C31.54331055 41.3762207 31.54331055 41.3762207 31.60742188 42.73242188 C31.66639648 44.10043945 31.66639648 44.10043945 31.7265625 45.49609375 C31.76974609 46.42744141 31.81292969 47.35878906 31.85742188 48.31835938 C31.96303374 50.60661652 32.06400685 52.89508693 32.1640625 55.18359375 C35.4640625 55.18359375 38.7640625 55.18359375 42.1640625 55.18359375 C42.27270946 51.6827473 42.35169075 48.18532203 42.4140625 44.68359375 C42.44757813 43.70132813 42.48109375 42.7190625 42.515625 41.70703125 C42.64083463 32.31630926 40.01376439 26.70193451 33.6640625 19.80859375 C32.91125 18.97585937 32.1584375 18.143125 31.3828125 17.28515625 C28.30255632 14.36758966 26.42475175 13.18359375 22.1640625 13.18359375 Z " fill="#FCD753" transform="translate(246.8359375,93.81640625)"/>
<path d="M0 0 C2.74051085 0.1590173 5.03259296 0.04723075 7.7265625 -0.37890625 C17.62310592 -1.73583634 26.50710909 1.71878707 35.1640625 6.18359375 C35.1640625 6.84359375 35.1640625 7.50359375 35.1640625 8.18359375 C36.8140625 8.84359375 38.4640625 9.50359375 40.1640625 10.18359375 C40.1640625 10.84359375 40.1640625 11.50359375 40.1640625 12.18359375 C40.8240625 12.18359375 41.4840625 12.18359375 42.1640625 12.18359375 C42.1640625 12.84359375 42.1640625 13.50359375 42.1640625 14.18359375 C42.8240625 14.18359375 43.4840625 14.18359375 44.1640625 14.18359375 C45.56640625 16.01953125 45.56640625 16.01953125 47.1015625 18.55859375 C47.60558594 19.37070313 48.10960937 20.1828125 48.62890625 21.01953125 C52.7255295 29.46295322 53.61394822 37.34368928 53.5625 46.6484375 C53.56537018 47.80356339 53.56824036 48.95868927 53.57119751 50.14881897 C53.57322684 52.57162979 53.56777675 54.99445742 53.55517578 57.41723633 C53.53900355 61.13464476 53.55511635 64.85098285 53.57421875 68.56835938 C53.57223813 70.92838782 53.56839822 73.2884156 53.5625 75.6484375 C53.56857269 76.7608934 53.57464539 77.8733493 53.5809021 79.01951599 C53.56671738 80.56241051 53.56671738 80.56241051 53.55224609 82.13647461 C53.54985931 83.04119003 53.54747253 83.94590546 53.54501343 84.8780365 C53.1640625 87.18359375 53.1640625 87.18359375 51.87026978 89.01856995 C50.1640625 90.18359375 50.1640625 90.18359375 46.4765625 89.87109375 C45.3834375 89.64421875 44.2903125 89.41734375 43.1640625 89.18359375 C43.15859406 88.21758995 43.15859406 88.21758995 43.15301514 87.23207092 C43.11104305 80.49899857 43.04159452 73.76659856 42.95654297 67.03393555 C42.92840413 64.52488953 42.90715455 62.01575604 42.89306641 59.5065918 C42.87153952 55.88935794 42.8248361 52.27316807 42.7734375 48.65625 C42.77220886 47.54339127 42.77098022 46.43053253 42.76971436 45.28395081 C42.57310735 34.71090198 39.09083826 27.09734533 32.1640625 19.18359375 C29.02411826 16.27340153 26.20949244 14.5705983 22.1640625 13.18359375 C23.1540625 15.65859375 23.1540625 15.65859375 24.1640625 18.18359375 C24.8240625 18.18359375 25.4840625 18.18359375 26.1640625 18.18359375 C26.8149884 19.43094942 27.45957919 20.68161207 28.1015625 21.93359375 C28.64103516 22.97773437 28.64103516 22.97773437 29.19140625 24.04296875 C31.06210912 28.16001764 31.28382338 31.75237366 31.26171875 36.26171875 C31.25688477 38.00195312 31.25688477 38.00195312 31.25195312 39.77734375 C31.23938477 41.5871875 31.23938477 41.5871875 31.2265625 43.43359375 C31.22205078 44.655625 31.21753906 45.87765625 31.21289062 47.13671875 C31.20111065 50.15239321 31.18466103 53.16796873 31.1640625 56.18359375 C28.1940625 56.18359375 25.2240625 56.18359375 22.1640625 56.18359375 C22.10798828 54.40855469 22.10798828 54.40855469 22.05078125 52.59765625 C21.5729402 40.15799253 20.96154997 29.75667836 12.1640625 20.18359375 C7.38897822 15.91942844 7.38897822 15.91942844 1.5390625 13.68359375 C-4.13935345 14.52484056 -8.61875392 17.7414785 -12.453125 21.96484375 C-16.82512459 27.86316272 -18.23740058 33.53362606 -18.8984375 40.80859375 C-18.98222656 41.68362549 -19.06601563 42.55865723 -19.15234375 43.46020508 C-19.69162736 49.73095693 -19.95337769 55.99173677 -20.11328125 62.28125 C-20.14338036 63.46397491 -20.14338036 63.46397491 -20.17408752 64.67059326 C-20.27056855 68.65543457 -20.34869833 72.63990183 -20.40649414 76.62548828 C-20.43503815 78.10709675 -20.46360173 79.58870484 -20.4921875 81.0703125 C-20.497379 81.75899918 -20.5025705 82.44768585 -20.50791931 83.15724182 C-20.61022291 87.95787916 -20.61022291 87.95787916 -22.8359375 90.18359375 C-25.8984375 89.93359375 -25.8984375 89.93359375 -28.8359375 89.18359375 C-30.08900235 86.67746405 -29.97642781 84.94701984 -29.99707031 82.14233398 C-30.00667786 81.09041367 -30.0162854 80.03849335 -30.02618408 78.95469666 C-30.03043396 77.81206863 -30.03468384 76.66944061 -30.0390625 75.4921875 C-30.04476257 74.31777603 -30.05046265 73.14336456 -30.05633545 71.93336487 C-30.06579865 69.44085595 -30.07232465 66.94833446 -30.07617188 64.45581055 C-30.0858357 60.66106913 -30.11683013 56.86687886 -30.1484375 53.07226562 C-30.15497167 50.6497428 -30.16022051 48.22721609 -30.1640625 45.8046875 C-30.1764093 44.6762291 -30.1887561 43.54777069 -30.20147705 42.38511658 C-30.17623883 33.35326213 -28.5107098 26.29267894 -23.6484375 18.62109375 C-23.11863281 17.77417969 -22.58882812 16.92726563 -22.04296875 16.0546875 C-21.64464844 15.43722656 -21.24632812 14.81976563 -20.8359375 14.18359375 C-26.29988272 15.34080486 -30.21598566 18.03595828 -33.55078125 22.45703125 C-36.77614481 27.58291466 -38.73465167 32.23665025 -39.8359375 38.18359375 C-40.4959375 38.18359375 -41.1559375 38.18359375 -41.8359375 38.18359375 C-41.8359375 44.12359375 -41.8359375 50.06359375 -41.8359375 56.18359375 C-44.8059375 56.18359375 -47.7759375 56.18359375 -50.8359375 56.18359375 C-50.95329627 52.20468023 -51.02357404 48.22621915 -51.0859375 44.24609375 C-51.13621094 42.57063477 -51.13621094 42.57063477 -51.1875 40.86132812 C-51.27201544 33.65638694 -50.41570912 28.4557076 -46.8359375 22.18359375 C-46.36929688 21.31605469 -45.90265625 20.44851562 -45.421875 19.5546875 C-45.02226562 18.91660156 -44.62265625 18.27851562 -44.2109375 17.62109375 C-43.80617187 16.95980469 -43.40140625 16.29851562 -42.984375 15.6171875 C-42.60539063 15.14410156 -42.22640625 14.67101562 -41.8359375 14.18359375 C-41.1759375 14.18359375 -40.5159375 14.18359375 -39.8359375 14.18359375 C-39.8359375 13.52359375 -39.8359375 12.86359375 -39.8359375 12.18359375 C-39.1759375 12.18359375 -38.5159375 12.18359375 -37.8359375 12.18359375 C-37.8359375 11.52359375 -37.8359375 10.86359375 -37.8359375 10.18359375 C-26.79151793 0.63903363 -13.97798764 -1.30139885 0 0 Z " fill="#F1F1EF" transform="translate(246.8359375,93.81640625)"/>
<path d="M0 0 C0.82011312 1.55851755 1.63076213 3.12201716 2.4375 4.6875 C2.88996094 5.55761719 3.34242188 6.42773438 3.80859375 7.32421875 C4.95991928 9.90998264 5.56320753 12.21356528 6 15 C6.66 15 7.32 15 8 15 C8.68835938 16.28583984 8.68835938 16.28583984 9.390625 17.59765625 C12.5253997 23.43913767 15.66752338 29.26814022 19 35 C19.18175781 33.41058594 19.18175781 33.41058594 19.3671875 31.7890625 C19.53600752 30.40098676 19.70530308 29.01296881 19.875 27.625 C19.95363281 26.92632812 20.03226562 26.22765625 20.11328125 25.5078125 C20.7734375 20.2265625 20.7734375 20.2265625 23 18 C27.33643601 17.68462284 29.32653229 17.55102153 33 20 C33.261179 22.91028033 33.32401193 25.59222808 33.25 28.5 C33.23356445 29.80372559 33.23356445 29.80372559 33.21679688 31.13378906 C33.04430594 41.83947647 32.59286976 52.54587048 32.07250977 63.23974609 C32.00780402 65.70292161 32.13635277 68.06907428 32.30859375 70.5234375 C32 74 32 74 29.62890625 76.2421875 C28.61699219 76.78101563 27.60507812 77.31984375 26.5625 77.875 C22.59393825 79.75802612 22.59393825 79.75802612 20 83 C17.85546875 84.0703125 17.85546875 84.0703125 15.1875 85.125 C14.31480469 85.47820312 13.44210937 85.83140625 12.54296875 86.1953125 C10 87 10 87 6 87 C6 86.34 6 85.68 6 85 C5.34 85 4.68 85 4 85 C4 84.34 4 83.68 4 83 C3.443125 82.938125 2.88625 82.87625 2.3125 82.8125 C-6.66427508 79.65849794 -11.88178307 66.58684408 -16.25 58.8125 C-16.68658936 58.04010986 -17.12317871 57.26771973 -17.57299805 56.47192383 C-19.41235649 53.15277808 -20.95440388 50.1433709 -22.109375 46.51171875 C-22.40328125 45.68285156 -22.6971875 44.85398438 -23 44 C-23.99 43.67 -24.98 43.34 -26 43 C-26.125 36.25 -26.125 36.25 -25 34 C-22.36 34 -19.72 34 -17 34 C-16.855625 33.38125 -16.71125 32.7625 -16.5625 32.125 C-16 30 -16 30 -15 28 C-12.69 28 -10.38 28 -8 28 C-8 27.01 -8 26.02 -8 25 C-5 23 -5 23 -2 23 C-2.33 21.02 -2.66 19.04 -3 17 C-3.66 17 -4.32 17 -5 17 C-10.02120266 8.20855174 -10.02120266 8.20855174 -9.9375 3.4375 C-8.13028317 -1.26126377 -4.47785384 -0.08292322 0 0 Z " fill="#FEFDF9" transform="translate(276,199)"/>
<path d="M0 0 C0.33 0 0.66 0 1 0 C1 6.93 1 13.86 1 21 C3.97 21 6.94 21 10 21 C10 15.06 10 9.12 10 3 C10.33 3 10.66 3 11 3 C11 8.61 11 14.22 11 20 C14.3 20 17.6 20 21 20 C21 14.06 21 8.12 21 2 C21.33 2 21.66 2 22 2 C22 8.6 22 15.2 22 22 C19.45925781 22.00257813 16.91851562 22.00515625 14.30078125 22.0078125 C11.83163314 22.03064801 9.36281556 22.06366271 6.89379883 22.09765625 C5.18196444 22.11578975 3.46998395 22.12338953 1.75805664 22.12011719 C-0.70801213 22.11725216 -3.17106824 22.15264101 -5.63671875 22.1953125 C-6.39836838 22.18621857 -7.16001801 22.17712463 -7.94474792 22.16775513 C-11.8003948 22.27248698 -13.73525764 22.77735548 -16.70555115 25.27532959 C-20.36401062 30.01873889 -19.66384613 35.64195894 -19.58349609 41.36767578 C-19.58583252 42.6105838 -19.58816895 43.85349182 -19.59057617 45.13406372 C-19.59191175 48.53115172 -19.57104867 51.92670911 -19.53990126 55.32356119 C-19.51228629 58.88241414 -19.51235771 62.44127024 -19.50918579 66.00021362 C-19.4999932 71.97376375 -19.47249625 77.9469927 -19.43212891 83.92041016 C-19.37526696 92.34227742 -19.35296862 100.76398334 -19.33684421 109.18601251 C-19.32438471 115.02464394 -19.30371406 120.86325099 -19.2814641 126.70185232 C-19.27610506 128.116264 -19.27096827 129.53067653 -19.26605177 130.94508982 C-19.24954031 135.59383004 -19.22354269 140.24244022 -19.19287109 144.89111328 C-19.18861115 146.06420044 -19.1843512 147.2372876 -19.17996216 148.44592285 C-19.17136169 149.51976227 -19.16276123 150.59360168 -19.15390015 151.69998169 C-19.14832785 152.63241762 -19.14275555 153.56485355 -19.13701439 154.52554512 C-19.00804976 156.85462272 -18.7790524 158.80246445 -18 161 C-16.0162233 162.28436734 -16.0162233 162.28436734 -14 163 C-14 163.33 -14 163.66 -14 164 C37.81 164 89.62 164 143 164 C140.16076211 166.83923789 138.28808847 166.25676538 134.30804443 166.26742554 C133.61228153 166.27195665 132.91651862 166.27648776 132.19967198 166.28115618 C129.8566809 166.29386657 127.51392029 166.29217557 125.17089844 166.29052734 C123.49562784 166.2965086 121.82036 166.30331321 120.14509583 166.31088257 C115.58502481 166.32859416 111.0250288 166.3332402 106.46492672 166.33451414 C102.66034627 166.33641055 98.85578339 166.34376538 95.05120969 166.35085833 C86.07400708 166.36716067 77.09684461 166.37202573 68.11962891 166.37060547 C58.85719404 166.3694046 49.59499242 166.3904912 40.33261657 166.4220928 C32.38434176 166.44824526 24.43614314 166.45897315 16.48782563 166.45769465 C11.73905136 166.45718457 6.99048409 166.46289273 2.24175262 166.48405075 C-2.22672636 166.50341498 -6.69480058 166.50357011 -11.16329384 166.48901749 C-12.80236464 166.48692579 -14.44146064 166.49165179 -16.0804882 166.5037384 C-18.32083743 166.51918736 -20.55979047 166.50988669 -22.80010986 166.49447632 C-24.05299427 166.49556585 -25.30587868 166.49665539 -26.59672928 166.49777794 C-31.70767478 165.75022768 -34.72782062 163.65868358 -37.85119057 159.58639431 C-39.12856324 156.71055666 -39.37711185 154.75438685 -39.38095093 151.61769104 C-39.3894104 150.55089111 -39.39786987 149.48409119 -39.40658569 148.38496399 C-39.400513 147.22482285 -39.39444031 146.0646817 -39.38818359 144.86938477 C-39.39344055 143.63958893 -39.39869751 142.40979309 -39.40411377 141.14273071 C-39.41504503 137.77683366 -39.41249694 134.41149082 -39.40297651 131.04562497 C-39.39536784 127.51835985 -39.40242903 123.991118 -39.40713501 120.46385193 C-39.41258978 114.5399044 -39.40540908 108.61606915 -39.39111328 102.69213867 C-39.37479475 95.85118972 -39.38007045 89.01050912 -39.3965925 82.16956669 C-39.41022437 76.28914269 -39.41211851 70.4087993 -39.40427649 64.5283646 C-39.39960832 61.01934377 -39.39895127 57.51044889 -39.40888596 54.00143623 C-39.41919325 50.08752207 -39.40489036 46.17390625 -39.38818359 42.26000977 C-39.39729263 40.5228344 -39.39729263 40.5228344 -39.40658569 38.75056458 C-39.36209672 33.12535742 -39.31383435 28.78860325 -36 24 C-29.58512963 18.50413943 -22.11209691 19.54367494 -14.0625 19.75 C-12.69729179 19.77009327 -11.33205507 19.78833906 -9.96679688 19.8046875 C-6.64422528 19.85164964 -3.32202015 19.92338711 0 20 C0 13.4 0 6.8 0 0 Z " fill="#DFA852" transform="translate(195,129)"/>
<path d="M0 0 C7.17175233 3.41512015 12.08908074 10.02978451 17.19140625 15.96875 C20.30711412 19.46803314 23.65857155 22.7171931 27 26 C27 18.74 27 11.48 27 4 C26.34 3.67 25.68 3.34 25 3 C25 2.01 25 1.02 25 0 C28.3 0 31.6 0 35 0 C35 0.99 35 1.98 35 3 C34.34 3.33 33.68 3.66 33 4 C32.67 15.22 32.34 26.44 32 38 C28.07399037 36.03699519 25.90350441 34.22611601 23 31 C23 30.34 23 29.68 23 29 C22.34 29 21.68 29 21 29 C21 28.34 21 27.68 21 27 C20.34 27 19.68 27 19 27 C19 26.34 19 25.68 19 25 C18.34 25 17.68 25 17 25 C17 24.34 17 23.68 17 23 C16.34 23 15.68 23 15 23 C15 22.34 15 21.68 15 21 C14.34 21 13.68 21 13 21 C10.69 18.36 8.38 15.72 6 13 C5.67 20.26 5.34 27.52 5 35 C5.99 35.33 6.98 35.66 8 36 C7.67 36.66 7.34 37.32 7 38 C4.03 38 1.06 38 -2 38 C-2 35 -2 35 -1 34 C-0.84011509 31.48119483 -0.74065775 28.98657734 -0.68359375 26.46484375 C-0.66281265 25.71159317 -0.64203156 24.95834259 -0.62062073 24.18226624 C-0.55504575 21.7674401 -0.49620379 19.35250202 -0.4375 16.9375 C-0.3943223 15.30402471 -0.35070827 13.6705609 -0.30664062 12.03710938 C-0.19935638 8.02485536 -0.09811179 4.01248836 0 0 Z " fill="#CDCFD1" transform="translate(210,326)"/>
<path d="M0 0 C3.11390334 1.37373076 5.13496979 2.92562579 7.453125 5.40625 C8.071875 6.06753906 8.690625 6.72882813 9.328125 7.41015625 C9.96234375 8.09980469 10.5965625 8.78945313 11.25 9.5 C12.22453125 10.53447266 12.22453125 10.53447266 13.21875 11.58984375 C18 16.74274554 18 16.74274554 18 19 C18.66 19 19.32 19 20 19 C20 19.66 20 20.32 20 21 C20.66 21 21.32 21 22 21 C23.32 22.65 24.64 24.3 26 26 C26.33 18.41 26.66 10.82 27 3 C26.01 3 25.02 3 24 3 C24.33 2.01 24.66 1.02 25 0 C28.3 0 31.6 0 35 0 C35 0.99 35 1.98 35 3 C34.34 3.33 33.68 3.66 33 4 C32.67 15.22 32.34 26.44 32 38 C31.01 38 30.02 38 29 38 C29 37.34 29 36.68 29 36 C28.34 36 27.68 36 27 36 C25.30859375 34.35546875 25.30859375 34.35546875 23.4375 32.1875 C22.81746094 31.47980469 22.19742188 30.77210938 21.55859375 30.04296875 C20 28 20 28 19 25 C18.34 25 17.68 25 17 25 C17 24.34 17 23.68 17 23 C16.34 23 15.68 23 15 23 C15 22.34 15 21.68 15 21 C14.01 20.67 13.02 20.34 12 20 C10.17578125 18.15234375 10.17578125 18.15234375 8.3125 15.9375 C7.37857422 14.83728516 7.37857422 14.83728516 6.42578125 13.71484375 C5.95527344 13.14894531 5.48476562 12.58304687 5 12 C4.91298961 15.60401481 4.85960612 19.20776012 4.8125 22.8125 C4.78736328 23.83666016 4.76222656 24.86082031 4.73632812 25.91601562 C4.72666016 26.89892578 4.71699219 27.88183594 4.70703125 28.89453125 C4.6913208 29.80050049 4.67561035 30.70646973 4.65942383 31.63989258 C5.06124927 34.42444206 5.83688562 35.27599535 8 37 C7 38 7 38 4.93359375 38.09765625 C4.10988281 38.08605469 3.28617187 38.07445312 2.4375 38.0625 C1.61121094 38.05347656 0.78492187 38.04445313 -0.06640625 38.03515625 C-0.70449219 38.02355469 -1.34257813 38.01195312 -2 38 C-2 35 -2 35 -1 34 C-0.84011509 31.48119483 -0.74065775 28.98657734 -0.68359375 26.46484375 C-0.66281265 25.71159317 -0.64203156 24.95834259 -0.62062073 24.18226624 C-0.55504575 21.7674401 -0.49620379 19.35250202 -0.4375 16.9375 C-0.3943223 15.30402471 -0.35070827 13.6705609 -0.30664062 12.03710938 C-0.19935638 8.02485536 -0.09811179 4.01248836 0 0 Z " fill="#D8D9DB" transform="translate(122,326)"/>
<path d="M0 0 C3.58008518 2.7036671 5.30303801 6.11223903 6.69140625 10.27734375 C7.41112129 17.21745311 7.40802779 22.8943325 3.19140625 28.65625 C-0.63573739 32.79235576 -4.77925022 35.08129552 -10.3828125 35.515625 C-23.54906352 35.78606691 -23.54906352 35.78606691 -29.30859375 31.27734375 C-33.87097083 26.354779 -36.16301773 22.03449718 -36.30859375 15.27734375 C-35.87645171 9.07130387 -33.12520525 5.30895926 -29.0625 0.74609375 C-27.30859375 -0.72265625 -27.30859375 -0.72265625 -24.30859375 -0.72265625 C-24.57671875 -0.06265625 -24.84484375 0.59734375 -25.12109375 1.27734375 C-25.51296875 2.26734375 -25.90484375 3.25734375 -26.30859375 4.27734375 C-26.70498047 5.20160156 -26.70498047 5.20160156 -27.109375 6.14453125 C-29.17737923 11.18222877 -30.50703792 15.76917081 -28.6640625 21.1640625 C-27.92921379 22.89077597 -27.12170421 24.58607399 -26.30859375 26.27734375 C-25.97859375 27.26734375 -25.64859375 28.25734375 -25.30859375 29.27734375 C-19.15928749 32.27315962 -12.15333799 32.06210078 -5.68359375 30.27734375 C-4.50796875 29.78234375 -4.50796875 29.78234375 -3.30859375 29.27734375 C-3.30859375 28.61734375 -3.30859375 27.95734375 -3.30859375 27.27734375 C-2.64859375 27.27734375 -1.98859375 27.27734375 -1.30859375 27.27734375 C-0.12225708 23.48685341 -0.07053156 19.79288346 0.00390625 15.83984375 C0.04128906 14.54175781 0.07867187 13.24367188 0.1171875 11.90625 C-0.37548718 7.70721536 -1.2971588 6.18329937 -4.30859375 3.27734375 C-7.99190613 0.81449401 -10.92977617 1.0806965 -15.1875 1.66796875 C-18.46734249 2.61024394 -19.63393758 4.39693514 -21.30859375 7.27734375 C-22.01745269 8.58873279 -22.70315827 9.91511392 -23.30859375 11.27734375 C-23.96859375 11.27734375 -24.62859375 11.27734375 -25.30859375 11.27734375 C-24.84598924 6.55877779 -24.31153786 3.03102388 -21.30859375 -0.72265625 C-14.97111597 -4.75559666 -6.25676661 -3.55182105 0 0 Z " fill="#CDCFD1" transform="translate(107.30859375,328.72265625)"/>
<path d="M0 0 C3.63 0 7.26 0 11 0 C11 0.99 11 1.98 11 3 C10.34 3 9.68 3 9 3 C8.67 7.95 8.34 12.9 8 18 C14.27 18 20.54 18 27 18 C26.87625 15.710625 26.7525 13.42125 26.625 11.0625 C26.55539062 9.77472656 26.48578125 8.48695313 26.4140625 7.16015625 C26.27742188 6.11730469 26.14078125 5.07445312 26 4 C25.34 3.67 24.68 3.34 24 3 C24 2.01 24 1.02 24 0 C27.3 0 30.6 0 34 0 C34.495 1.485 34.495 1.485 35 3 C34.34 3 33.68 3 33 3 C32.95054614 7.35992871 32.91425512 11.71970862 32.89013672 16.07983398 C32.88008179 17.56293583 32.86643596 19.04601788 32.84912109 20.52905273 C32.82484994 22.66134531 32.81351201 24.79337569 32.8046875 26.92578125 C32.79421387 28.20880127 32.78374023 29.49182129 32.77294922 30.8137207 C32.7473944 34.15642744 32.7473944 34.15642744 35 37 C34 38 34 38 31.93359375 38.09765625 C31.10988281 38.08605469 30.28617187 38.07445312 29.4375 38.0625 C28.61121094 38.05347656 27.78492188 38.04445313 26.93359375 38.03515625 C26.29550781 38.02355469 25.65742188 38.01195312 25 38 C25 37.01 25 36.02 25 35 C25.66 35 26.32 35 27 35 C27 30.38 27 25.76 27 21 C20.73 21 14.46 21 8 21 C8.12375 23.083125 8.2475 25.16625 8.375 27.3125 C8.44460938 28.48425781 8.51421875 29.65601563 8.5859375 30.86328125 C8.78613747 34.15699887 8.78613747 34.15699887 11 37 C10 38 10 38 7.71484375 38.09765625 C6.34005859 38.08025391 6.34005859 38.08025391 4.9375 38.0625 C4.01839844 38.05347656 3.09929687 38.04445313 2.15234375 38.03515625 C1.44207031 38.02355469 0.73179687 38.01195312 0 38 C0.32597168 37.4834082 0.65194336 36.96681641 0.98779297 36.43457031 C2.33307039 33.19889582 2.22497527 30.54708164 2.1953125 27.046875 C2.19106766 26.05654266 2.19106766 26.05654266 2.18673706 25.04620361 C2.17558415 22.94728103 2.15048946 20.84879258 2.125 18.75 C2.11496384 17.32292285 2.1058391 15.89583898 2.09765625 14.46875 C2.07566111 10.97902672 2.04116536 7.48955577 2 4 C1.34 3.67 0.68 3.34 0 3 C0 2.01 0 1.02 0 0 Z " fill="#B2B5B9" transform="translate(320,326)"/>
<path d="M0 0 C1.0725 0.66 2.145 1.32 3.25 2 C3.25 2.66 3.25 3.32 3.25 4 C3.91 4 4.57 4 5.25 4 C9.67402063 10.08302837 10.38477614 15.56968318 9.25 23 C7.07821609 28.70208796 3.61378807 32.08489779 -1.75 35 C-8.13942085 37.12980695 -16.15009033 37.19604264 -22.3125 34.3125 C-27.35055088 31.24724378 -29.70877164 27.96802202 -31.125 22.25 C-32.23791422 15.51235717 -31.31131583 10.43381585 -27.625 4.6875 C-19.87644356 -2.5557158 -9.86485422 -4.89744536 0 0 Z M-23.125 7 C-25.88899066 12.10275199 -26.27737212 16.30633437 -25.75 22 C-24.30914946 26.16245711 -22.20423644 29.3391769 -18.69921875 32.09375 C-13.83707652 34.35430511 -7.70532496 33.65177499 -2.75 32 C-2.75 31.34 -2.75 30.68 -2.75 30 C-1.76 29.67 -0.77 29.34 0.25 29 C3.42044062 23.48108486 4.15227528 18.30578901 3.25 12 C1.88877296 7.95477163 -0.33112725 5.36302305 -3.5625 2.5625 C-10.73522348 -0.95354092 -18.16126021 0.73001289 -23.125 7 Z " fill="#D0D2D4" transform="translate(390.75,328)"/>
<path d="M0 0 C0.33 0 0.66 0 1 0 C1 6.6 1 13.2 1 20 C4.3 20 7.6 20 11 20 C11 13.73 11 7.46 11 1 C11.33 1 11.66 1 12 1 C12 18.49 12 35.98 12 54 C14.31 54 16.62 54 19 54 C21.49505962 51.50494038 21.35948376 50.32671112 21.625 46.875 C21.69976562 45.96492188 21.77453125 45.05484375 21.8515625 44.1171875 C21.92503906 43.06917969 21.92503906 43.06917969 22 42 C25.16115776 43.36983503 25.9927092 43.9890638 28 47 C28.54522803 50.06475543 28.54842924 52.93524839 28 56 C25.5625 59 25.5625 59 23 61 C22.67 61.33 22.34 61.66 22 62 C18.08822025 62.72470867 14.49701934 62.96669872 11.0703125 60.75390625 C7.95302634 57.52475576 6.61652574 54.81798123 6.4375 50.3125 C6.5119259 47.51904772 6.71173903 46.35260578 8.49951172 44.16577148 C10.24650351 41.64420231 10.41445246 40.2690833 10.51171875 37.234375 C10.54716797 36.34492188 10.58261719 35.45546875 10.61914062 34.5390625 C10.64169922 33.61867187 10.66425781 32.69828125 10.6875 31.75 C10.72166016 30.81414062 10.75582031 29.87828125 10.79101562 28.9140625 C10.87332162 26.60949467 10.9425263 24.30529881 11 22 C10.41499222 22.00222061 9.82998444 22.00444122 9.22724915 22.00672913 C3.07785662 22.02904179 -3.07152419 22.0440137 -9.22094727 22.05493164 C-11.50871244 22.05992641 -13.79647449 22.06672451 -16.08422852 22.07543945 C-40.47996583 22.16597155 -40.47996583 22.16597155 -51 21 C-51 20.67 -51 20.34 -51 20 C-37.47 20 -23.94 20 -10 20 C-10 14.39 -10 8.78 -10 3 C-9.67 3 -9.34 3 -9 3 C-9 8.94 -9 14.88 -9 21 C-6.03 21 -3.06 21 0 21 C0 14.07 0 7.14 0 0 Z " fill="#CDA95C" transform="translate(278,129)"/>
<path d="M0 0 C6.6 0 13.2 0 20 0 C20.33 2.31 20.66 4.62 21 7 C20.01 7 19.02 7 18 7 C17.67 6.34 17.34 5.68 17 5 C14.64400765 4.53248212 14.64400765 4.53248212 11.9375 4.375 C10.308125 4.25125 8.67875 4.1275 7 4 C7.33 8.29 7.66 12.58 8 17 C11.41656024 17.16677282 11.41656024 17.16677282 15 17 C15.66 16.34 16.32 15.68 17 15 C18 16 18 16 18.0625 19.5625 C18.041875 20.696875 18.02125 21.83125 18 23 C14.37 22.34 10.74 21.68 7 21 C7 25.29 7 29.58 7 34 C10.63 34 14.26 34 18 34 C18 33.34 18 32.68 18 32 C18.66 32 19.32 32 20 32 C20.33 30.68 20.66 29.36 21 28 C21.66 28 22.32 28 23 28 C22.46599103 31.91606575 21.80330533 34.39338934 20 38 C13.07 38 6.14 38 -1 38 C-0.67 37.01 -0.34 36.02 0 35 C0.08397343 32.69009872 0.10728156 30.37781335 0.09765625 28.06640625 C0.0962413 27.39206039 0.09482635 26.71771454 0.09336853 26.02293396 C0.08777982 23.86941056 0.0752454 21.71599178 0.0625 19.5625 C0.05748211 18.11653798 0.05291971 16.67057431 0.04882812 15.22460938 C0.0406675 12.56710521 0.02930713 9.90968711 0.01586914 7.25219727 C0.00407352 4.83482117 0 2.41740488 0 0 Z " fill="#C9CBCD" transform="translate(252,326)"/>
<path d="M0 0 C2.73064947 0.08730853 5.4581619 0.19422124 8.1875 0.3125 C9.34088867 0.34633789 9.34088867 0.34633789 10.51757812 0.38085938 C15.08659225 0.5965639 18.33817631 0.98640876 22 4 C24.50486076 7.62721677 24.21103815 10.65513715 23.5859375 14.87109375 C23 17 23 17 21.0625 19.5625 C16.56895796 21.67171361 12.93741704 21.26332891 8 21 C8 25.62 8 30.24 8 35 C8.99 35.33 9.98 35.66 11 36 C10.67 36.66 10.34 37.32 10 38 C7.03 38 4.06 38 1 38 C0.67 37.34 0.34 36.68 0 36 C0.33 35.34 0.66 34.68 1 34 C1.08573394 31.74879258 1.10712188 29.49500697 1.09765625 27.2421875 C1.0962413 26.57913605 1.09482635 25.91608459 1.09336853 25.23294067 C1.08776754 23.11358137 1.075215 20.99432741 1.0625 18.875 C1.05748512 17.43880361 1.05292219 16.00260556 1.04882812 14.56640625 C1.03779782 11.04423655 1.02053259 7.52212855 1 4 C0.34 3.67 -0.32 3.34 -1 3 C-0.67 2.01 -0.34 1.02 0 0 Z M8 4 C8 8.95 8 13.9 8 19 C14.35048872 18.53896492 14.35048872 18.53896492 16.9375 16.875 C18.6712306 13.81547541 18.42145216 11.43182475 18 8 C16.52006844 5.43661311 16.52006844 5.43661311 14 4 C12.02 4 10.04 4 8 4 Z " fill="#D0D2D5" transform="translate(405,326)"/>
<path d="M0 0 C1 1 1 1 1.0625 4.5625 C1.041875 5.696875 1.02125 6.83125 1 8 C0.01 8 -0.98 8 -2 8 C-2.33 7.01 -2.66 6.02 -3 5 C-5.35367713 4.3121764 -5.35367713 4.3121764 -8 4 C-8.99 4.66 -9.98 5.32 -11 6 C-10.81870185 9.43793339 -10.81870185 9.43793339 -10 13 C-8.18904459 14.0415868 -8.18904459 14.0415868 -6 15 C-4.42187257 16.26842665 -2.88144661 17.58472102 -1.375 18.9375 C-0.21097656 19.97197266 -0.21097656 19.97197266 0.9765625 21.02734375 C4.06624537 24.03948632 5.30235559 26.11803783 5.375 30.375 C5.30259872 33.80013734 5.05168372 34.91623673 3.1875 37.9375 C-1.54427453 42.39888741 -4.83942797 42.41904699 -11.10546875 42.328125 C-14.7905861 41.9103789 -16.60092798 40.81270512 -19 38 C-20.2220897 35.5558206 -20.23641068 33.78970128 -20.3125 31.0625 C-20.34988281 30.18722656 -20.38726562 29.31195313 -20.42578125 28.41015625 C-20 26 -20 26 -17.98046875 24.18359375 C-17.00013672 23.59771484 -17.00013672 23.59771484 -16 23 C-16.10699219 23.59167969 -16.21398437 24.18335938 -16.32421875 24.79296875 C-17.13126618 30.00662364 -17.13126618 30.00662364 -15.6875 35 C-13.51461312 37.57527334 -12.53293906 37.92894146 -9.1875 38.375 C-5.85392997 38.23184122 -5.85392997 38.23184122 -3.0625 36 C-0.85680042 32.79170971 -0.73678879 32.31250591 -1.1875 28.6875 C-1.455625 27.470625 -1.72375 26.25375 -2 25 C-2.66 25 -3.32 25 -4 25 C-4 24.34 -4 23.68 -4 23 C-4.70125 22.773125 -5.4025 22.54625 -6.125 22.3125 C-10.31399143 20.40013435 -13.62790357 17.789691 -16.4375 14.125 C-17.33097555 10.74964791 -16.88387194 8.35871336 -16 5 C-12.03526564 -1.21141716 -6.72555507 -0.78991419 0 0 Z " fill="#CCCED0" transform="translate(311,326)"/>
<path d="M0 0 C0.99 0 1.98 0 3 0 C3.495 8.91 3.495 8.91 4 18 C-5 18 -5 18 -8 16 C-8.33 16.66 -8.66 17.32 -9 18 C-12.375 18.1875 -12.375 18.1875 -16 18 C-18.1519437 14.77208445 -18.20086443 13.71599191 -18 10 C-18.99 10 -19.98 10 -21 10 C-20.34 12.64 -19.68 15.28 -19 18 C-20.65 18 -22.3 18 -24 18 C-24.33 17.01 -24.66 16.02 -25 15 C-25.99 16.485 -25.99 16.485 -27 18 C-29.625 18.1875 -29.625 18.1875 -32 18 C-32 19.65 -32 21.3 -32 23 C-31.34 23 -30.68 23 -30 23 C-30.33 23.99 -30.66 24.98 -31 26 C-32.65 26 -34.3 26 -36 26 C-36.02683987 23.02077407 -36.04676037 20.04178705 -36.0625 17.0625 C-36.07087891 16.21236328 -36.07925781 15.36222656 -36.08789062 14.48632812 C-36.09111328 13.67744141 -36.09433594 12.86855469 -36.09765625 12.03515625 C-36.10289307 11.2862915 -36.10812988 10.53742676 -36.11352539 9.76586914 C-36 8 -36 8 -35 7 C-32.32461085 6.95684856 -29.67305179 6.95319559 -27 7 C-26.01 7 -25.02 7 -24 7 C-18.50251007 7 -13.4447854 7.22217351 -8 8 C-5.3534665 8 -3.4191837 7.01860366 -1 6 C-1.020625 5.195625 -1.04125 4.39125 -1.0625 3.5625 C-1 1 -1 1 0 0 Z M-13 9 C-14.29633621 10.06645115 -14.29633621 10.06645115 -14.0625 12.5625 C-14.041875 13.366875 -14.02125 14.17125 -14 15 C-12.68 15 -11.36 15 -10 15 C-10 13.35 -10 11.7 -10 10 C-10.99 9.67 -11.98 9.34 -13 9 Z M-32 10 C-32 11.65 -32 13.3 -32 15 C-30.68 14.67 -29.36 14.34 -28 14 C-28.33 12.68 -28.66 11.36 -29 10 C-29.99 10 -30.98 10 -32 10 Z M-2 9 C-2.99 9.495 -2.99 9.495 -4 10 C-3.67 11.65 -3.34 13.3 -3 15 C-2.01 15 -1.02 15 0 15 C0 13.35 0 11.7 0 10 C-0.66 9.67 -1.32 9.34 -2 9 Z " fill="#A5A7AD" transform="translate(204,380)"/>
<path d="M0 0 C2.87956721 2.87956721 2.31510049 4.98754658 2.41064453 9.02441406 C2.43043806 9.75141951 2.45023159 10.47842495 2.47062492 11.22746086 C2.53420187 13.6567145 2.5836315 16.08604038 2.6328125 18.515625 C2.67416333 20.2279534 2.71625062 21.94026415 2.7590332 23.65255737 C2.87071499 28.23829171 2.96937071 32.82421962 3.06485748 37.41031647 C3.12474831 40.23811635 3.18838209 43.06580632 3.25335693 45.89349365 C3.89665784 73.93091717 4.30468813 101.9546299 4 130 C3.34 130 2.68 130 2 130 C1.64703691 120.14647084 1.31540366 110.29229541 1 100.4375 C0.9762455 99.69565334 0.952491 98.95380669 0.92801666 98.18947983 C0.17750183 74.56059366 -0.18357999 50.95318671 -0.125 27.3125 C-0.12328796 26.61651073 -0.12157593 25.92052147 -0.11981201 25.20344162 C-0.09756299 16.80219129 -0.05825414 8.40107975 0 0 Z " fill="#B8A452" transform="translate(340,157)"/>
<path d="M0 0 C1.22589844 0.01353516 1.22589844 0.01353516 2.4765625 0.02734375 C3.41628906 0.04474609 3.41628906 0.04474609 4.375 0.0625 C4.705 1.0525 5.035 2.0425 5.375 3.0625 C4.385 3.7225 3.395 4.3825 2.375 5.0625 C1.9568783 8.07102608 1.9568783 8.07102608 2.08203125 11.6015625 C2.0965332 13.55449219 2.0965332 13.55449219 2.11132812 15.546875 C2.13639612 16.92708923 2.16179098 18.30729756 2.1875 19.6875 C2.20254483 21.07550663 2.21623359 22.46352867 2.22851562 23.8515625 C2.2639743 27.25559509 2.31339702 30.65885622 2.375 34.0625 C6.005 34.0625 9.635 34.0625 13.375 34.0625 C14.035 32.4125 14.695 30.7625 15.375 29.0625 C16.365 29.0625 17.355 29.0625 18.375 29.0625 C17.385 32.0325 16.395 35.0025 15.375 38.0625 C8.445 38.0625 1.515 38.0625 -5.625 38.0625 C-5.625 35.0625 -5.625 35.0625 -4.625 34.0625 C-4.53716458 31.84394736 -4.51805391 29.62261504 -4.52734375 27.40234375 C-4.5287587 26.73787735 -4.53017365 26.07341095 -4.53163147 25.3888092 C-4.53724482 23.25916101 -4.54979946 21.12961661 -4.5625 19 C-4.56751329 17.55924631 -4.57207649 16.11849097 -4.57617188 14.67773438 C-4.58721855 11.13928898 -4.60449208 7.60090461 -4.625 4.0625 C-5.285 3.7325 -5.945 3.4025 -6.625 3.0625 C-6.625 2.4025 -6.625 1.7425 -6.625 1.0625 C-4.21954362 -0.14022819 -2.67503047 -0.03821472 0 0 Z " fill="#B4B7BA" transform="translate(168.625,325.9375)"/>
<path d="M0 0 C1.66611905 -0.042721 3.33382885 -0.04063832 5 0 C5.33 0.33 5.66 0.66 6 1 C6 0.67 6 0.34 6 0 C14.58 0 23.16 0 32 0 C32.495 1.98 32.495 1.98 33 4 C33 2.68 33 1.36 33 0 C34.65 0 36.3 0 38 0 C37.71898437 0.69738281 37.43796875 1.39476562 37.1484375 2.11328125 C36.36489098 4.08280805 35.6000098 6.05983799 34.8515625 8.04296875 C34.44679687 9.08066406 34.04203125 10.11835938 33.625 11.1875 C33.22539062 12.23292969 32.82578125 13.27835937 32.4140625 14.35546875 C31 17 31 17 28.9609375 18.42578125 C27 19 27 19 25 18 C25 17.01 25 16.02 25 15 C25.99 15 26.98 15 28 15 C29.89679663 11.20640675 29.21724428 6.95604392 28 3 C26.68 3 25.36 3 24 3 C24.33 5.64 24.66 8.28 25 11 C23.35 11 21.7 11 20 11 C20 8.36 20 5.72 20 3 C19.67 3.66 19.34 4.32 19 5 C16.4375 5.625 16.4375 5.625 14 6 C14 6.66 14 7.32 14 8 C15.65 8 17.3 8 19 8 C18.67 8.99 18.34 9.98 18 11 C15.1875 11.3125 15.1875 11.3125 12 11 C10.125 8.5 10.125 8.5 9 6 C8.34 7.65 7.68 9.3 7 11 C6.01 11 5.02 11 4 11 C3.32880451 9.5437455 2.66318193 8.08492133 2 6.625 C1.62875 5.81289063 1.2575 5.00078125 0.875 4.1640625 C0 2 0 2 0 0 Z " fill="#BDBFC2" transform="translate(126,387)"/>
<path d="M0 0 C0 0.33 0 0.66 0 1 C-3.63 1.33 -7.26 1.66 -11 2 C-10.34 2.66 -9.68 3.32 -9 4 C-10.11375 4.2475 -11.2275 4.495 -12.375 4.75 C-15.97776959 5.60396859 -15.97776959 5.60396859 -17.3125 7.8125 C-17.539375 8.534375 -17.76625 9.25625 -18 10 C-18.37125 10.721875 -18.7425 11.44375 -19.125 12.1875 C-20.7474117 17.40239474 -20.65292004 22.17869673 -18.8125 27.3125 C-16.70726016 30.43406252 -15.28414735 32.11336216 -12 34 C-8.67186839 34.60743506 -5.37805809 34.86881328 -2 35 C-2 35.33 -2 35.66 -2 36 C-3.0725 36.144375 -4.145 36.28875 -5.25 36.4375 C-8.74172138 36.85843556 -8.74172138 36.85843556 -10.984375 37.63671875 C-14.81102649 38.32640594 -17.86310039 36.01381209 -21 34 C-25.54084532 29.9371384 -26.5702327 24.8939515 -27 19 C-26.60478209 12.6765135 -24.69758618 8.39122186 -20 4 C-13.76739824 -0.64191453 -7.52744368 -0.45164662 0 0 Z " fill="#CDCFD1" transform="translate(386,326)"/>
<path d="M0 0 C0.33 4.29 0.66 8.58 1 13 C2.98 13 4.96 13 7 13 C9.49505962 10.50494038 9.35948376 9.32671112 9.625 5.875 C9.69976562 4.96492187 9.77453125 4.05484375 9.8515625 3.1171875 C9.90054688 2.41851562 9.94953125 1.71984375 10 1 C12 1 12 1 13.625 2.5 C15.54085172 5.98336676 15.68679584 9.15985124 15 13 C13.25364203 16.14344435 11.53137274 18.46862726 9 21 C0.44510386 21.55192878 0.44510386 21.55192878 -3 19 C-5.77929332 15.92707126 -6.37296337 13.99427298 -6.25 9.875 C-6.23453125 9.00617188 -6.2190625 8.13734375 -6.203125 7.2421875 C-6 5 -6 5 -5 3 C-4.34 3 -3.68 3 -3 3 C-3 2.34 -3 1.68 -3 1 C-1 0 -1 0 0 0 Z " fill="#F5BD5A" transform="translate(217,170)"/>
<path d="M0 0 C3.3 0 6.6 0 10 0 C10.33 0.99 10.66 1.98 11 3 C10.34 3 9.68 3 9 3 C8.95054614 7.35992871 8.91425512 11.71970862 8.89013672 16.07983398 C8.88008179 17.56293583 8.86643596 19.04601788 8.84912109 20.52905273 C8.82484994 22.66134531 8.81351201 24.79337569 8.8046875 26.92578125 C8.79421387 28.20880127 8.78374023 29.49182129 8.77294922 30.8137207 C8.7473944 34.15642744 8.7473944 34.15642744 11 37 C10 38 10 38 7.93359375 38.09765625 C7.10988281 38.08605469 6.28617187 38.07445312 5.4375 38.0625 C4.61121094 38.05347656 3.78492188 38.04445313 2.93359375 38.03515625 C2.29550781 38.02355469 1.65742188 38.01195312 1 38 C1 37.01 1 36.02 1 35 C1.99 34.505 1.99 34.505 3 34 C3.47001033 30.72444392 3.47001033 30.72444392 3.625 26.9375 C3.810625 23.5034375 3.810625 23.5034375 4 20 C-2.6 20 -9.2 20 -16 20 C-16 19.67 -16 19.34 -16 19 C-9.73 19 -3.46 19 3 19 C2.87625 16.545625 2.7525 14.09125 2.625 11.5625 C2.59100098 10.78849854 2.55700195 10.01449707 2.52197266 9.21704102 C2.41954818 7.47234889 2.21257835 5.73471952 2 4 C1.34 3.67 0.68 3.34 0 3 C0 2.01 0 1.02 0 0 Z " fill="#D2D4D6" transform="translate(344,326)"/>
<path d="M0 0 C1.37478516 0.01740234 1.37478516 0.01740234 2.77734375 0.03515625 C3.69644531 0.04417969 4.61554688 0.05320312 5.5625 0.0625 C6.27277344 0.07410156 6.98304688 0.08570313 7.71484375 0.09765625 C8.04484375 1.08765625 8.37484375 2.07765625 8.71484375 3.09765625 C7.72484375 3.59265625 7.72484375 3.59265625 6.71484375 4.09765625 C6.66538262 8.31516907 6.62909548 12.53252793 6.60498047 16.75024414 C6.59492675 18.18484437 6.58128181 19.61942414 6.56396484 21.05395508 C6.53968826 23.11675063 6.52835456 25.1792751 6.51953125 27.2421875 C6.5038208 29.10387573 6.5038208 29.10387573 6.48779297 31.00317383 C6.47196305 34.26668934 6.47196305 34.26668934 8.71484375 37.09765625 C6.81995423 38.99254577 4.14345229 38.27784737 1.625 38.328125 C-0.28515625 38.09765625 -0.28515625 38.09765625 -2.28515625 36.09765625 C-1.62515625 35.43765625 -0.96515625 34.77765625 -0.28515625 34.09765625 C0.11347871 29.84023487 0.04386916 25.56818051 0.03051758 21.29418945 C0.02736064 19.17151419 0.05080136 17.05023689 0.07617188 14.92773438 C0.07844521 13.57942884 0.07914821 12.23111956 0.078125 10.8828125 C0.08110596 9.6544165 0.08408691 8.42602051 0.0871582 7.16040039 C-0.01539804 4.09491453 -0.01539804 4.09491453 -1.80786133 2.17358398 C-2.53912231 1.64099976 -2.53912231 1.64099976 -3.28515625 1.09765625 C-2.28515625 0.09765625 -2.28515625 0.09765625 0 0 Z " fill="#CCCED0" transform="translate(193.28515625,325.90234375)"/>
<path d="M0 0 C0.99 0 1.98 0 3 0 C3.33 5.94 3.66 11.88 4 18 C1.03 18 -1.94 18 -5 18 C-7 15 -7 15 -7 12 C-8.65 12.33 -10.3 12.66 -12 13 C-12 13.66 -12 14.32 -12 15 C-10.68 15 -9.36 15 -8 15 C-8 15.99 -8 16.98 -8 18 C-10.875 18.1875 -10.875 18.1875 -14 18 C-16.1519437 14.77208445 -16.20086443 13.71599191 -16 10 C-16.99 10 -17.98 10 -19 10 C-18.34 12.31 -17.68 14.62 -17 17 C-18.65 17.33 -20.3 17.66 -22 18 C-22.19406478 16.35492782 -22.38007935 14.70890406 -22.5625 13.0625 C-22.66691406 12.14597656 -22.77132813 11.22945313 -22.87890625 10.28515625 C-22.91886719 9.53105469 -22.95882813 8.77695312 -23 8 C-21.06658053 6.06658053 -17.62520879 6.82550867 -15.0625 6.8125 C-13.79535156 6.79832031 -12.52820313 6.78414063 -11.22265625 6.76953125 C-8 7 -8 7 -6 9 C-5.566875 8.505 -5.13375 8.01 -4.6875 7.5 C-3 6 -3 6 0 6 C0.33 5.01 0.66 4.02 1 3 C0.34 3 -0.32 3 -1 3 C-0.67 2.01 -0.34 1.02 0 0 Z M-2 9 C-2.66 10.32 -3.32 11.64 -4 13 C-3.34 13.66 -2.68 14.32 -2 15 C-1.01 15 -0.02 15 1 15 C1 13.35 1 11.7 1 10 C0.01 9.67 -0.98 9.34 -2 9 Z " fill="#8A8E96" transform="translate(316,380)"/>
<path d="M0 0 C4.33658424 0.1667917 6.37736425 0.37736425 9.5 3.5 C11.44134074 8.02979507 11.49324652 11.31582787 10 16 C8.0625 18.5625 8.0625 18.5625 5 20 C1.59082926 20.30755516 -1.56212223 20.18335348 -5 20 C-5 24.29 -5 28.58 -5 33 C-5.33 33 -5.66 33 -6 33 C-6.89571109 22.51329011 -6.97960463 12.48930498 -6 2 C-4.02 1.67 -2.04 1.34 0 1 C0 0.67 0 0.34 0 0 Z M-5 3 C-5 7.95 -5 12.9 -5 18 C1.35048872 17.53896492 1.35048872 17.53896492 3.9375 15.875 C5.6712306 12.81547541 5.42145216 10.43182475 5 7 C3.52006844 4.43661311 3.52006844 4.43661311 1 3 C-0.98 3 -2.96 3 -5 3 Z " fill="#BCBEC2" transform="translate(418,327)"/>
<path d="M0 0 C1.66611905 -0.042721 3.33382885 -0.04063832 5 0 C5.33 0.33 5.66 0.66 6 1 C6 0.67 6 0.34 6 0 C7.95803507 -0.05389087 9.91648909 -0.09274217 11.875 -0.125 C13.51082031 -0.15980469 13.51082031 -0.15980469 15.1796875 -0.1953125 C18 0 18 0 20 2 C19.67 2.99 19.34 3.98 19 5 C17.35 5.33 15.7 5.66 14 6 C14 6.66 14 7.32 14 8 C15.65 8 17.3 8 19 8 C18.67 8.99 18.34 9.98 18 11 C15.1875 11.3125 15.1875 11.3125 12 11 C10.125 8.5 10.125 8.5 9 6 C8.34 7.65 7.68 9.3 7 11 C6.01 11 5.02 11 4 11 C3.32880451 9.5437455 2.66318193 8.08492133 2 6.625 C1.62875 5.81289063 1.2575 5.00078125 0.875 4.1640625 C0 2 0 2 0 0 Z " fill="#95989F" transform="translate(126,387)"/>
<path d="M0 0 C0.66 0.33 1.32 0.66 2 1 C2 3.31 2 5.62 2 8 C-1.63 7.34 -5.26 6.68 -9 6 C-9 10.29 -9 14.58 -9 19 C-5.37 19 -1.74 19 2 19 C2 18.34 2 17.68 2 17 C2.66 17 3.32 17 4 17 C4.33 15.68 4.66 14.36 5 13 C5.66 13 6.32 13 7 13 C6.46599103 16.91606575 5.80330533 19.39338934 4 23 C-2.93 23 -9.86 23 -17 23 C-17 22.67 -17 22.34 -17 22 C-13.535 21.505 -13.535 21.505 -10 21 C-10.10699219 19.86820312 -10.21398437 18.73640625 -10.32421875 17.5703125 C-10.44613108 16.08860879 -10.56718016 14.60683388 -10.6875 13.125 C-10.76033203 12.37863281 -10.83316406 11.63226563 -10.90820312 10.86328125 C-11.07421875 8.6953125 -11.07421875 8.6953125 -11 5 C-8 3 -8 3 -4.375 2.5 C-3.26125 2.335 -2.1475 2.17 -1 2 C-0.67 1.34 -0.34 0.68 0 0 Z " fill="#A0A3A8" transform="translate(268,341)"/>
<path d="M0 0 C1.32 0.66 2.64 1.32 4 2 C4 4.83967231 3.59732819 7.23735711 3 10 C3.66 10 4.32 10 5 10 C5 10.99 5 11.98 5 13 C3.35 13 1.7 13 0 13 C-0.33 10.36 -0.66 7.72 -1 5 C-2.65 5 -4.3 5 -6 5 C-6.33 6.65 -6.66 8.3 -7 10 C-5.35 10 -3.7 10 -2 10 C-2.33 10.99 -2.66 11.98 -3 13 C-4.98 13 -6.96 13 -9 13 C-10.55136786 10.53606281 -11.03039129 9.31910854 -10.75 6.375 C-10 4 -10 4 -8 2 C-5.31160615 1.73008094 -2.70858064 1.91262643 0 2 C0 1.34 0 0.68 0 0 Z " fill="#999EA4" transform="translate(231,385)"/>
<path d="M0 0 C2.97 0 5.94 0 9 0 C9.33 1.65 9.66 3.3 10 5 C8.02 4.34 6.04 3.68 4 3 C5.72226496 6.24849977 5.72226496 6.24849977 9 7 C8.67 7.99 8.34 8.98 8 10 C6.68 10 5.36 10 4 10 C4 10.99 4 11.98 4 13 C7.465 12.505 7.465 12.505 11 12 C10.67 13.32 10.34 14.64 10 16 C6.7 16 3.4 16 0 16 C0 10.72 0 5.44 0 0 Z " fill="#B3B6B9" transform="translate(116,382)"/>
<path d="M0 0 C0.99 0 1.98 0 3 0 C3.33 9.9 3.66 19.8 4 30 C6.64 30.33 9.28 30.66 12 31 C12 31.33 12 31.66 12 32 C7.38 32 2.76 32 -2 32 C-1.505 30.515 -1.505 30.515 -1 29 C-0.84890907 26.79040747 -0.75126199 24.57699953 -0.68359375 22.36328125 C-0.62075195 20.41518555 -0.62075195 20.41518555 -0.55664062 18.42773438 C-0.51683013 17.05599239 -0.47711784 15.68424756 -0.4375 14.3125 C-0.39429165 12.92902355 -0.35067661 11.54555973 -0.30664062 10.16210938 C-0.20041972 6.77484281 -0.09837642 3.38750201 0 0 Z " fill="#F7F8F8" transform="translate(166,331)"/>
<path d="M0 0 C0.99 0 1.98 0 3 0 C3.33 5.94 3.66 11.88 4 18 C1.03 18 -1.94 18 -5 18 C-7 16 -7 16 -7.375 13.125 C-7 10 -7 10 -5.125 7.625 C-3 6 -3 6 -1 6 C-1.020625 5.195625 -1.04125 4.39125 -1.0625 3.5625 C-1 1 -1 1 0 0 Z M-3 9 C-3.33 10.65 -3.66 12.3 -4 14 C-2.68 14.33 -1.36 14.66 0 15 C0 13.02 0 11.04 0 9 C-0.99 9 -1.98 9 -3 9 Z " fill="#A7AAAF" transform="translate(248,380)"/>
<path d="M0 0 C0.33 0 0.66 0 1 0 C1 5.61 1 11.22 1 17 C3.15660156 16.95359375 5.31320312 16.9071875 7.53515625 16.859375 C9.64344941 16.82810473 11.75171591 16.80385987 13.86010742 16.78027344 C15.31595584 16.76026178 16.77172494 16.73304323 18.22729492 16.69824219 C33.38673016 16.3450933 33.38673016 16.3450933 39 21 C39.9375 23.25 39.9375 23.25 40 25 C37.82635224 23.9908064 36.09579617 23.0880082 34.32128906 21.45776367 C31.05340615 19.40554145 28.44769242 19.56443834 24.609375 19.48828125 C23.90476135 19.47033005 23.20014771 19.45237885 22.47418213 19.43388367 C20.23284821 19.37988142 17.99172595 19.34591912 15.75 19.3125 C14.22653311 19.27931782 12.70309411 19.24482731 11.1796875 19.20898438 C7.45309631 19.12170582 3.72745931 19.06155827 0 19 C0 12.73 0 6.46 0 0 Z " fill="#81784A" transform="translate(300,132)"/>
<path d="M0 0 C1.98 0 3.96 0 6 0 C6 1.32 6 2.64 6 4 C6.33 2.68 6.66 1.36 7 0 C8.32 0 9.64 0 11 0 C9.52387943 4.73029547 7.92739814 9.40778047 6.0625 14 C5.61583984 15.11375 5.61583984 15.11375 5.16015625 16.25 C4 18 4 18 1.99609375 18.8125 C0 19 0 19 -2 18 C-2 17.34 -2 16.68 -2 16 C-0.68 16 0.64 16 2 16 C3.43680971 9.86090397 2.32637691 5.79622721 0 0 Z " fill="#989CA3" transform="translate(347,387)"/>
<path d="M0 0 C1.32 0 2.64 0 4 0 C4 2.64 4 5.28 4 8 C4.66 7.67 5.32 7.34 6 7 C5.67 4.69 5.34 2.38 5 0 C6.65 0.33 8.3 0.66 10 1 C10.33 4.3 10.66 7.6 11 11 C7.7 11 4.4 11 1 11 C-0.20272819 8.59454362 -0.10071472 7.05003047 -0.0625 4.375 C-0.05347656 3.55773437 -0.04445312 2.74046875 -0.03515625 1.8984375 C-0.02355469 1.27195312 -0.01195312 0.64546875 0 0 Z " fill="#94979E" transform="translate(209,387)"/>
<path d="M0 0 C0.66 0 1.32 0 2 0 C3.02941422 3.08824265 3.12907717 5.23705582 3.1328125 8.47265625 C3.13474609 10.06883789 3.13474609 10.06883789 3.13671875 11.69726562 C3.13285156 12.80779297 3.12898437 13.91832031 3.125 15.0625 C3.12886719 16.17689453 3.13273438 17.29128906 3.13671875 18.43945312 C3.13542969 19.50228516 3.13414062 20.56511719 3.1328125 21.66015625 C3.13168457 22.63605713 3.13055664 23.61195801 3.12939453 24.61743164 C3 27 3 27 2 29 C0.02 29 -1.96 29 -4 29 C-3.01 28.34 -2.02 27.68 -1 27 C-0.48895078 24.19189856 -0.48895078 24.19189856 -0.48828125 20.8984375 C-0.43510742 19.08085937 -0.43510742 19.08085937 -0.38085938 17.2265625 C-0.35830078 15.95554687 -0.33574219 14.68453125 -0.3125 13.375 C-0.27833984 12.09625 -0.24417969 10.8175 -0.20898438 9.5 C-0.12627521 6.33342068 -0.05719915 3.16712636 0 0 Z " fill="#EEEEEE" transform="translate(211,334)"/>
<path d="M0 0 C3.3 0 6.6 0 10 0 C10 0.99 10 1.98 10 3 C9.01 3.495 9.01 3.495 8 4 C7.67 13.57 7.34 23.14 7 33 C6.67 33 6.34 33 6 33 C6 23.1 6 13.2 6 3 C5.01 2.67 4.02 2.34 3 2 C3 10.58 3 19.16 3 28 C2.67 28 2.34 28 2 28 C2 19.75 2 11.5 2 3 C1.01 3 0.02 3 -1 3 C-0.67 2.01 -0.34 1.02 0 0 Z " fill="#7F858B" transform="translate(147,326)"/>
<path d="M0 0 C1.32 0 2.64 0 4 0 C4 2.64 4 5.28 4 8 C4.99 8 5.98 8 7 8 C6.67 5.36 6.34 2.72 6 0 C7.32 0 8.64 0 10 0 C10.33 3.63 10.66 7.26 11 11 C4.06640625 11.09765625 4.06640625 11.09765625 2 11 C0.33657163 9.33657163 0.63951903 7.2174291 0.4375 4.9375 C0.35371094 4.01839844 0.26992188 3.09929687 0.18359375 2.15234375 C0.09271484 1.08693359 0.09271484 1.08693359 0 0 Z " fill="#AAAEB3" transform="translate(368,387)"/>
<path d="M0 0 C0 0.99 0 1.98 0 3 C-0.74765625 3.08636719 -1.4953125 3.17273438 -2.265625 3.26171875 C-8.47781117 4.03165738 -8.47781117 4.03165738 -13.5625 7.375 C-15.3738383 10.6415307 -15.3738383 10.6415307 -17 14 C-17.66 14 -18.32 14 -19 14 C-18.53739549 9.28143404 -18.00294411 5.75368013 -15 2 C-10.48559528 -0.872803 -5.15844951 -0.18029532 0 0 Z " fill="#B6BABD" transform="translate(101,326)"/>
<path d="M0 0 C0.1953125 6.0546875 0.1953125 6.0546875 0 8 C-2 10 -2 10 -5 10.3125 C-5.99 10.209375 -6.98 10.10625 -8 10 C-10.15502531 6.76746204 -10.46856135 5.74849077 -10 2 C-7.58628749 -2.25949266 -4.24852727 -0.88176981 0 0 Z M-5 1 C-6.29633621 2.06645115 -6.29633621 2.06645115 -6.0625 4.5625 C-6.041875 5.366875 -6.02125 6.17125 -6 7 C-5.01 7 -4.02 7 -3 7 C-3 5.35 -3 3.7 -3 2 C-3.66 1.67 -4.32 1.34 -5 1 Z " fill="#B7BABE" transform="translate(342,388)"/>
<path d="M0 0 C0.99 0.103125 1.98 0.20625 3 0.3125 C5.1642235 3.55883524 5.37569856 4.55551443 5 8.3125 C4.01 9.7975 4.01 9.7975 3 11.3125 C0 11.625 0 11.625 -3 11.3125 C-5 9.3125 -5 9.3125 -5.25 5.8125 C-4.93382655 1.38607168 -4.44897929 0.46343534 0 0 Z M-1 2.3125 C-2.29633621 3.37895115 -2.29633621 3.37895115 -2.0625 5.875 C-2.041875 6.679375 -2.02125 7.48375 -2 8.3125 C-0.68 7.9825 0.64 7.6525 2 7.3125 C1.65213292 5.33713255 1.65213292 5.33713255 1 3.3125 C0.34 2.9825 -0.32 2.6525 -1 2.3125 Z " fill="#9C9FA4" transform="translate(363,386.6875)"/>
<path d="M0 0 C0.98226563 0.00644531 1.96453125 0.01289063 2.9765625 0.01953125 C5.375 0.1875 5.375 0.1875 6.375 1.1875 C6.41592937 3.52047433 6.41741723 5.85455225 6.375 8.1875 C5.385 8.1875 4.395 8.1875 3.375 8.1875 C3.045 7.1975 2.715 6.2075 2.375 5.1875 C-1.25920241 4.16495492 -1.25920241 4.16495492 -4.8125 5.125 C-5.410625 5.475625 -6.00875 5.82625 -6.625 6.1875 C-7.285 6.1875 -7.945 6.1875 -8.625 6.1875 C-9.615 6.6825 -9.615 6.6825 -10.625 7.1875 C-8.57306902 1.18954791 -6.2431271 -0.09059947 0 0 Z " fill="#BABDC1" transform="translate(305.625,325.8125)"/>
<path d="M0 0 C3.125 -0.1875 3.125 -0.1875 6 0 C6.66 1.32 7.32 2.64 8 4 C6.02 4.66 4.04 5.32 2 6 C2 6.66 2 7.32 2 8 C3.65 8 5.3 8 7 8 C6.67 8.99 6.34 9.98 6 11 C3.125 11.1875 3.125 11.1875 0 11 C-2.1642235 7.75366476 -2.37569856 6.75698557 -2 3 C-1.34 2.01 -0.68 1.02 0 0 Z " fill="#A4A9AF" transform="translate(285,387)"/>
<path d="M0 0 C2.5 0.25 2.5 0.25 4.5 2.25 C4.5 3.24 4.5 4.23 4.5 5.25 C2.52 5.25 0.54 5.25 -1.5 5.25 C-1.5 6.24 -1.5 7.23 -1.5 8.25 C0.15 8.25 1.8 8.25 3.5 8.25 C3.5 9.24 3.5 10.23 3.5 11.25 C0.625 11.375 0.625 11.375 -2.5 11.25 C-4.5 9.25 -4.5 9.25 -4.75 5.75 C-4.46177779 1.71488904 -4.15174939 0.41517494 0 0 Z " fill="#898D94" transform="translate(257.5,386.75)"/>
<path d="M0 0 C0.99 0 1.98 0 3 0 C2.01 2.97 1.02 5.94 0 9 C-6.93 9 -13.86 9 -21 9 C-21 8.01 -21 7.02 -21 6 C-20.34 5.67 -19.68 5.34 -19 5 C-19 5.66 -19 6.32 -19 7 C-14.71 7.33 -10.42 7.66 -6 8 C-6 7.01 -6 6.02 -6 5 C-4.68 5 -3.36 5 -2 5 C-1.34 3.35 -0.68 1.7 0 0 Z " fill="#8B8E94" transform="translate(184,355)"/>
<path d="M0 0 C0.99 0 1.98 0 3 0 C3.33 5.94 3.66 11.88 4 18 C2.35 17.67 0.7 17.34 -1 17 C-1.02684679 14.35409986 -1.04676357 11.70846904 -1.0625 9.0625 C-1.07087891 8.30775391 -1.07925781 7.55300781 -1.08789062 6.77539062 C-1.09652441 4.85005687 -1.05224333 2.92464419 -1 1 C-0.67 0.67 -0.34 0.34 0 0 Z " fill="#9CA0A6" transform="translate(263,380)"/>
<path d="M0 0 C1.65 0 3.3 0 5 0 C5.33 1.32 5.66 2.64 6 4 C6.33 2.68 6.66 1.36 7 0 C8.32 0 9.64 0 11 0 C10.566875 1.051875 10.566875 1.051875 10.125 2.125 C8.97866412 5.05452503 7.97374346 8.00921653 7 11 C4.32423308 9.99382318 3.2214892 9.45785454 1.953125 6.8359375 C1.72109375 6.02382813 1.4890625 5.21171875 1.25 4.375 C1.00765625 3.55773437 0.7653125 2.74046875 0.515625 1.8984375 C0.34546875 1.27195312 0.1753125 0.64546875 0 0 Z " fill="#ACAFB4" transform="translate(273,387)"/>
<path d="M0 0 C0.66 0.33 1.32 0.66 2 1 C1.98428955 1.68102783 1.9685791 2.36205566 1.95239258 3.0637207 C1.89006778 6.14656281 1.85101742 9.22927244 1.8125 12.3125 C1.78736328 13.38435547 1.76222656 14.45621094 1.73632812 15.56054688 C1.72666016 16.58857422 1.71699219 17.61660156 1.70703125 18.67578125 C1.6913208 19.62364502 1.67561035 20.57150879 1.65942383 21.5480957 C2.05524357 24.39771408 2.77824719 25.24976105 5 27 C4 28 4 28 1.93359375 28.09765625 C1.10988281 28.08605469 0.28617187 28.07445312 -0.5625 28.0625 C-1.38878906 28.05347656 -2.21507813 28.04445313 -3.06640625 28.03515625 C-4.02353516 28.01775391 -4.02353516 28.01775391 -5 28 C-5 27.01 -5 26.02 -5 25 C-3.35 24.67 -1.7 24.34 0 24 C0 16.08 0 8.16 0 0 Z " fill="#9FA3A8" transform="translate(125,336)"/>
<path d="M0 0 C0.69480469 0.32742188 1.38960938 0.65484375 2.10546875 0.9921875 C5.36368828 2.12662831 7.87449502 2.20056055 11.3125 2.125 C12.38113281 2.10695313 13.44976562 2.08890625 14.55078125 2.0703125 C15.76314453 2.03550781 15.76314453 2.03550781 17 2 C17 2.66 17 3.32 17 4 C17.99 4.33 18.98 4.66 20 5 C16.51972258 6.16009247 13.66678357 6.20416521 10 6.25 C8.7625 6.27578125 7.525 6.3015625 6.25 6.328125 C3 6 3 6 1.0625 4.671875 C0 3 0 3 0 0 Z " fill="#B6B9BC" transform="translate(83,358)"/>
<path d="M0 0 C1.134375 0.020625 2.26875 0.04125 3.4375 0.0625 C4.53408936 3.35226808 4.23703138 4.77553767 3.4375 8.0625 C3.1075 8.0625 2.7775 8.0625 2.4375 8.0625 C2.4375 6.4125 2.4375 4.7625 2.4375 3.0625 C1.4475 3.0625 0.4575 3.0625 -0.5625 3.0625 C0.0975 5.3725 0.7575 7.6825 1.4375 10.0625 C-0.2125 10.3925 -1.8625 10.7225 -3.5625 11.0625 C-3.75656478 9.41742782 -3.94257935 7.77140406 -4.125 6.125 C-4.22941406 5.20847656 -4.33382813 4.29195313 -4.44140625 3.34765625 C-4.48136719 2.59355469 -4.52132813 1.83945312 -4.5625 1.0625 C-3.5625 0.0625 -3.5625 0.0625 0 0 Z " fill="#AAAEB3" transform="translate(297.5625,386.9375)"/>
<path d="M0 0 C0.78375 0.04125 1.5675 0.0825 2.375 0.125 C2.705 1.115 3.035 2.105 3.375 3.125 C2.055 3.125 0.735 3.125 -0.625 3.125 C-0.955 4.775 -1.285 6.425 -1.625 8.125 C0.025 8.125 1.675 8.125 3.375 8.125 C3.045 9.115 2.715 10.105 2.375 11.125 C0.395 11.125 -1.585 11.125 -3.625 11.125 C-5.17636786 8.66106281 -5.65539129 7.44410854 -5.375 4.5 C-4.32109893 1.16264661 -3.55704813 0.16938324 0 0 Z " fill="#A5A8AE" transform="translate(225.625,386.875)"/>
<path d="M0 0 C2.64 0 5.28 0 8 0 C8.33 2.31 8.66 4.62 9 7 C8.34 7 7.68 7 7 7 C6.67 6.01 6.34 5.02 6 4 C5.01 3.67 4.02 3.34 3 3 C3 4.98 3 6.96 3 9 C4.32 9.33 5.64 9.66 7 10 C5.35 10 3.7 10 2 10 C2 12.31 2 14.62 2 17 C1.67 17 1.34 17 1 17 C0.67 11.39 0.34 5.78 0 0 Z " fill="#D1D3D5" transform="translate(169,387)"/>
<path d="M0 0 C1.98 0 3.96 0 6 0 C6 1.32 6 2.64 6 4 C4.35 4 2.7 4 1 4 C1.33 5.32 1.66 6.64 2 8 C3.32 8 4.64 8 6 8 C6 8.99 6 9.98 6 11 C4.02 11 2.04 11 0 11 C-1.26026798 8.47946405 -0.91874445 7.1457902 -0.5625 4.375 C-0.46066406 3.55773437 -0.35882813 2.74046875 -0.25390625 1.8984375 C-0.17011719 1.27195312 -0.08632813 0.64546875 0 0 Z " fill="#B6B9BE" transform="translate(302,387)"/>
<path d="M0 0 C0.66 0 1.32 0 2 0 C2 0.66 2 1.32 2 2 C2.66 2 3.32 2 4 2 C4 2.66 4 3.32 4 4 C3.34 4 2.68 4 2 4 C2 5.98 2 7.96 2 10 C2.66 10 3.32 10 4 10 C4 10.99 4 11.98 4 13 C2.35 13 0.7 13 -1 13 C-1.22151549 11.20991533 -1.42682213 9.41781838 -1.625 7.625 C-1.74101562 6.62726563 -1.85703125 5.62953125 -1.9765625 4.6015625 C-1.98429687 3.74304688 -1.99203125 2.88453125 -2 2 C-1.34 1.34 -0.68 0.68 0 0 Z " fill="#A3A6AC" transform="translate(328,385)"/>
<path d="M0 0 C2.31 0 4.62 0 7 0 C7 0.99 7 1.98 7 3 C6.01 3.495 6.01 3.495 5 4 C4.67 15.22 4.34 26.44 4 38 C3.34 37.67 2.68 37.34 2 37 C2.04600342 35.95021973 2.09200684 34.90043945 2.1394043 33.81884766 C2.30570696 29.93183642 2.45193502 26.04428641 2.59204102 22.15625 C2.65555346 20.4721144 2.72454266 18.78817621 2.79907227 17.10449219 C2.90513324 14.68715624 2.99161189 12.26979922 3.07421875 9.8515625 C3.11157639 9.0963028 3.14893402 8.34104309 3.18742371 7.56289673 C3.29091825 5.21841193 3.29091825 5.21841193 3 2 C2.01 1.34 1.02 0.68 0 0 Z " fill="#7F848B" transform="translate(238,326)"/>
<path d="M0 0 C0.83041074 2.49123222 1.0538358 3.79542395 0.375 6.375 C-0.14128604 9.98900227 1.20532156 11.91315308 3 15 C2.34 15 1.68 15 1 15 C0.67 15.66 0.34 16.32 0 17 C-2.68585151 13.93756084 -3.41177958 12.00164341 -3.375 7.9375 C-3.38273437 7.08027344 -3.39046875 6.22304688 -3.3984375 5.33984375 C-2.93135469 2.59687704 -2.13044088 1.71900653 0 0 Z " fill="#9FA4A7" transform="translate(294,349)"/>
<path d="M0 0 C0.99 0 1.98 0 3 0 C3.33 5.94 3.66 11.88 4 18 C1.03 18 -1.94 18 -5 18 C-4.34 16.68 -3.68 15.36 -3 14 C-2.01 14.33 -1.02 14.66 0 15 C0 13.02 0 11.04 0 9 C0.33 9 0.66 9 1 9 C1 6.69 1 4.38 1 2 C0.01 2.495 0.01 2.495 -1 3 C-0.67 2.01 -0.34 1.02 0 0 Z " fill="#898D94" transform="translate(248,380)"/>
<path d="M0 0 C0.99 0 1.98 0 3 0 C3 5.61 3 11.22 3 17 C0.69 17 -1.62 17 -4 17 C-3.35546875 16.79632813 -2.7109375 16.59265625 -2.046875 16.3828125 C0.31153872 15.1332065 0.31153872 15.1332065 0.609375 12.1796875 C0.65578125 11.08914063 0.7021875 9.99859375 0.75 8.875 C0.80671875 7.77929688 0.8634375 6.68359375 0.921875 5.5546875 C0.94765625 4.71164062 0.9734375 3.86859375 1 3 C0.34 3 -0.32 3 -1 3 C-0.67 2.01 -0.34 1.02 0 0 Z " fill="#CED2D4" transform="translate(316,380)"/>
<path d="M0 0 C2.44766851 4.49255612 3.86337847 8.86682254 3 14 C0.47859144 17.13265912 -2.33297519 19.34295943 -6 21 C-8.30078125 20.67578125 -8.30078125 20.67578125 -10 20 C-9.278125 19.72929687 -8.55625 19.45859375 -7.8125 19.1796875 C-4.66186646 17.71814361 -2.44486225 16.48775457 0 14 C0.9006139 9.23204408 0.59138067 4.7967543 0 0 Z " fill="#F7E084" transform="translate(307,259)"/>
<path d="M0 0 C0.66 0.33 1.32 0.66 2 1 C2.125 6.75 2.125 6.75 1 9 C-1.31 9 -3.62 9 -6 9 C-7.35439668 6.29120665 -7.06501451 3.99066732 -7 1 C-6.34 1 -5.68 1 -5 1 C-5 2.65 -5 4.3 -5 6 C-3.35 6 -1.7 6 0 6 C0 4.02 0 2.04 0 0 Z " fill="#C6C7CA" transform="translate(194,389)"/>
<path d="M0 0 C0.66 0.33 1.32 0.66 2 1 C1.67 8.59 1.34 16.18 1 24 C1.99 24.33 2.98 24.66 4 25 C3.67 25.66 3.34 26.32 3 27 C0.03 27 -2.94 27 -6 27 C-2.25 24 -2.25 24 0 24 C0 16.08 0 8.16 0 0 Z " fill="#373D49" transform="translate(214,337)"/>
<path d="M0 0 C1.65 0 3.3 0 5 0 C5 1.98 5 3.96 5 6 C5.66 6 6.32 6 7 6 C7 7.65 7 9.3 7 11 C6.01 11 5.02 11 4 11 C3.32880451 9.5437455 2.66318193 8.08492133 2 6.625 C1.62875 5.81289063 1.2575 5.00078125 0.875 4.1640625 C0 2 0 2 0 0 Z " fill="#B3B6BB" transform="translate(126,387)"/>
<path d="M0 0 C0.99 0.495 0.99 0.495 2 1 C2.59355614 3.64860427 2.74209269 6.29197322 3 9 C4.32 9.33 5.64 9.66 7 10 C6.01 10 5.02 10 4 10 C4 11.65 4 13.3 4 15 C4.66 15 5.32 15 6 15 C5.67 15.99 5.34 16.98 5 18 C3.35 18 1.7 18 0 18 C0 12.06 0 6.12 0 0 Z " fill="#9D9EA5" transform="translate(168,388)"/>
<path d="M0 0 C1.98 0.495 1.98 0.495 4 1 C4 4.3 4 7.6 4 11 C2.35 11 0.7 11 -1 11 C-1.02688151 9.35425434 -1.04634123 7.70838587 -1.0625 6.0625 C-1.07410156 5.14597656 -1.08570313 4.22945313 -1.09765625 3.28515625 C-1 1 -1 1 0 0 Z " fill="#898C93" transform="translate(269,387)"/>
<path d="M0 0 C0.84119973 2.39957614 1.11193544 3.64922558 0.328125 6.10546875 C-0.02765625 6.79253906 -0.3834375 7.47960937 -0.75 8.1875 C-1.26820313 9.22970703 -1.26820313 9.22970703 -1.796875 10.29296875 C-3 12 -3 12 -6 13 C-6.66 12.67 -7.32 12.34 -8 12 C-8 11.01 -8 10.02 -8 9 C-7.01 9 -6.02 9 -5 9 C-2.86539589 6.21974527 -2.86539589 6.21974527 -2.5 3.375 C-2.335 2.59125 -2.17 1.8075 -2 1 C-1.34 0.67 -0.68 0.34 0 0 Z " fill="#C1C5C8" transform="translate(159,393)"/>
<path d="M0 0 C-0.268125 0.66 -0.53625 1.32 -0.8125 2 C-2.25705047 5.64939067 -3.62871178 9.32245433 -5 13 C-5.33 13 -5.66 13 -6 13 C-6.144375 12.236875 -6.28875 11.47375 -6.4375 10.6875 C-6.9632594 7.91827092 -6.9632594 7.91827092 -8 5 C-3.375 0 -3.375 0 0 0 Z " fill="#BFC2C5" transform="translate(83,328)"/>
<path d="M0 0 C2.31 0.33 4.62 0.66 7 1 C6.01 1.33 5.02 1.66 4 2 C3.67 2.99 3.34 3.98 3 5 C0.36 4.34 -2.28 3.68 -5 3 C-5 7.62 -5 12.24 -5 17 C-5.33 17 -5.66 17 -6 17 C-6 12.05 -6 7.1 -6 2 C-4.02 1.67 -2.04 1.34 0 1 C0 0.67 0 0.34 0 0 Z " fill="#6B7078" transform="translate(418,327)"/>
<path d="M0 0 C1.65 0.33 3.3 0.66 5 1 C5 3.97 5 6.94 5 10 C3.02 10 1.04 10 -1 10 C-0.01 9.67 0.98 9.34 2 9 C1.34 6.03 0.68 3.06 0 0 Z " fill="#B0B4B9" transform="translate(214,387)"/>
<path d="M0 0 C0.99 0.33 1.98 0.66 3 1 C2.34 1 1.68 1 1 1 C1 1.66 1 2.32 1 3 C1.66 3.33 2.32 3.66 3 4 C2.54625 4.5775 2.0925 5.155 1.625 5.75 C0.15886484 7.7800333 -0.94857784 9.73539843 -2 12 C-2.66 12 -3.32 12 -4 12 C-3.5317879 7.22423661 -2.75668002 3.95523655 0 0 Z " fill="#969BA2" transform="translate(86,328)"/>
<path d="M0 0 C1.65 0 3.3 0 5 0 C3.87548273 2.9719385 2.77706209 5.33440687 1 8 C0.01 7.67 -0.98 7.34 -2 7 C-2 8.65 -2 10.3 -2 12 C-2.33 12 -2.66 12 -3 12 C-3.33 9.69 -3.66 7.38 -4 5 C-3.01 4.34 -2.02 3.68 -1 3 C-0.67 3.33 -0.34 3.66 0 4 C0 2.68 0 1.36 0 0 Z " fill="#7E8389" transform="translate(159,387)"/>
<path d="M0 0 C2 1.375 2 1.375 4 3 C4 3.66 4 4.32 4 5 C5.65 5 7.3 5 9 5 C8.67 5.99 8.34 6.98 8 8 C5.125 8.1875 5.125 8.1875 2 8 C-0.1519437 4.77208445 -0.20086443 3.71599191 0 0 Z " fill="#9CA0A7" transform="translate(283,390)"/>
<path d="M0 0 C0 0.33 0 0.66 0 1 C-5.445 1.495 -5.445 1.495 -11 2 C-10.34 2.66 -9.68 3.32 -9 4 C-10.98 4.66 -12.96 5.32 -15 6 C-15.33 5.34 -15.66 4.68 -16 4 C-16.66 3.67 -17.32 3.34 -18 3 C-12.27544841 -0.81636773 -6.70250505 -0.29282789 0 0 Z " fill="#797E84" transform="translate(386,326)"/>
<path d="M0 0 C6.6 0 13.2 0 20 0 C20.33 2.31 20.66 4.62 21 7 C20.01 7 19.02 7 18 7 C17.67 6.01 17.34 5.02 17 4 C17.66 4 18.32 4 19 4 C19 3.01 19 2.02 19 1 C12.73 1 6.46 1 0 1 C0 0.67 0 0.34 0 0 Z " fill="#535B66" transform="translate(252,326)"/>
<path d="M0 0 C0.99 0 1.98 0 3 0 C3.33 5.94 3.66 11.88 4 18 C3.34 17.67 2.68 17.34 2 17 C1.65625 14.85546875 1.65625 14.85546875 1.5 12.1875 C1.33273394 9.35652188 1.20446959 7.39944596 -0.09375 4.86328125 C-1 3 -1 3 0 0 Z " fill="#727880" transform="translate(204,380)"/>
<path d="M0 0 C1.49080078 0.02707031 1.49080078 0.02707031 3.01171875 0.0546875 C3.77097656 0.07789063 4.53023438 0.10109375 5.3125 0.125 C5.3125 0.455 5.3125 0.785 5.3125 1.125 C2.0125 1.455 -1.2875 1.785 -4.6875 2.125 C-4.0275 2.785 -3.3675 3.445 -2.6875 4.125 C-6.4375 6.125 -6.4375 6.125 -8.6875 6.125 C-9.6775 6.62 -9.6775 6.62 -10.6875 7.125 C-8.6184634 1.07704685 -6.28215674 -0.14781545 0 0 Z " fill="#7E8489" transform="translate(305.6875,325.875)"/>
<path d="M0 0 C1.2065625 0.0309375 1.2065625 0.0309375 2.4375 0.0625 C2.7675 1.3825 3.0975 2.7025 3.4375 4.0625 C1.4575 4.0625 -0.5225 4.0625 -2.5625 4.0625 C-2.8925 5.3825 -3.2225 6.7025 -3.5625 8.0625 C-3.60491723 5.72955225 -3.60342937 3.39547433 -3.5625 1.0625 C-2.5625 0.0625 -2.5625 0.0625 0 0 Z " fill="#BEC2C6" transform="translate(257.5625,386.9375)"/>
<path d="M0 0 C3.96 0 7.92 0 12 0 C11.67 1.98 11.34 3.96 11 6 C10.01 5.67 9.02 5.34 8 5 C8 4.34 8 3.68 8 3 C7.4225 2.87625 6.845 2.7525 6.25 2.625 C4 2 4 2 0 0 Z " fill="#A1A6A9" transform="translate(146,387)"/>
<path d="M0 0 C0.94875 0.04125 1.8975 0.0825 2.875 0.125 C2.215 1.445 1.555 2.765 0.875 4.125 C0.215 3.795 -0.445 3.465 -1.125 3.125 C-1.455 4.775 -1.785 6.425 -2.125 8.125 C-3.115 8.455 -4.105 8.785 -5.125 9.125 C-5.25 5.75 -5.25 5.75 -5.125 2.125 C-3.125 0.125 -3.125 0.125 0 0 Z " fill="#9499A0" transform="translate(363.125,386.875)"/>
<path d="M0 0 C0.66 0.33 1.32 0.66 2 1 C2 3.31 2 5.62 2 8 C0.68 7.34 -0.64 6.68 -2 6 C-2 5.67 -2 5.34 -2 5 C-4.97 4.505 -4.97 4.505 -8 4 C-8 3.67 -8 3.34 -8 3 C-6.865625 2.87625 -5.73125 2.7525 -4.5625 2.625 C-3.386875 2.41875 -2.21125 2.2125 -1 2 C-0.67 1.34 -0.34 0.68 0 0 Z " fill="#A8ACB1" transform="translate(268,341)"/>
<path d="M0 0 C-0.33 1.32 -0.66 2.64 -1 4 C-4.3 4 -7.6 4 -11 4 C-10.67 3.01 -10.34 2.02 -10 1 C-10 1.66 -10 2.32 -10 3 C-9.01 2.34 -8.02 1.68 -7 1 C-4.605208 0.41590439 -2.46475374 0 0 0 Z " fill="#71777F" transform="translate(127,394)"/>
<path d="M0 0 C3.96 0.33 7.92 0.66 12 1 C11.67 1.66 11.34 2.32 11 3 C7.37 3 3.74 3 0 3 C0 2.01 0 1.02 0 0 Z " fill="#D4D5D7" transform="translate(295,364)"/>
<path d="M0 0 C0.33 1.65 0.66 3.3 1 5 C0.01 4.34 -0.98 3.68 -2 3 C-3.9896995 2.60986284 -5.99019869 2.26797351 -8 2 C-8.33 3.65 -8.66 5.3 -9 7 C-9.6875 5.1875 -9.6875 5.1875 -10 3 C-7.70195295 -1.02158234 -4.18378338 -0.23681793 0 0 Z " fill="#FCF5C9" transform="translate(276,199)"/>
<path d="M0 0 C-0.99 1.485 -0.99 1.485 -2 3 C-2.33 3 -2.66 3 -3 3 C-3.33 4.65 -3.66 6.3 -4 8 C-4.66 6.68 -5.32 5.36 -6 4 C-6.66 5.32 -7.32 6.64 -8 8 C-8.36075949 3.55063291 -8.36075949 3.55063291 -6.8125 1.1875 C-4.44017475 -0.36678206 -2.77958655 -0.22537188 0 0 Z " fill="#838990" transform="translate(340,387)"/>
<path d="M0 0 C2.97 0 5.94 0 9 0 C9.33 1.65 9.66 3.3 10 5 C8.02 4.34 6.04 3.68 4 3 C4 2.34 4 1.68 4 1 C2.68 0.67 1.36 0.34 0 0 Z " fill="#747B84" transform="translate(116,382)"/>
<path d="M0 0 C0.55171875 0.31710937 1.1034375 0.63421875 1.671875 0.9609375 C4.28477989 2.12709975 6.40579002 2.40045711 9.25 2.625 C10.14203125 2.69976562 11.0340625 2.77453125 11.953125 2.8515625 C12.96632813 2.92503906 12.96632813 2.92503906 14 3 C14 3.33 14 3.66 14 4 C12.9275 4.144375 11.855 4.28875 10.75 4.4375 C7.21527402 4.89433176 7.21527402 4.89433176 4.6875 5.625 C3 6 3 6 1 5 C0.375 2.4375 0.375 2.4375 0 0 Z " fill="#888C92" transform="translate(370,358)"/>
<path d="M0 0 C6.35714286 0.48901099 6.35714286 0.48901099 9.4375 2.9375 C11 5 11 5 11 7 C7.22272911 5.18690997 3.62730178 3.0926741 0 1 C0 0.67 0 0.34 0 0 Z " fill="#C8B361" transform="translate(329,150)"/>
<path d="M0 0 C0.66 0 1.32 0 2 0 C2.66 2.97 3.32 5.94 4 9 C2.35 9 0.7 9 -1 9 C-0.67 6.03 -0.34 3.06 0 0 Z " fill="#C1C3C6" transform="translate(181,389)"/>
<path d="M0 0 C1 3 1 3 0 7 C-3.96 7 -7.92 7 -12 7 C-12 6.67 -12 6.34 -12 6 C-7.545 5.505 -7.545 5.505 -3 5 C-3.33 4.34 -3.66 3.68 -4 3 C-2.68 2.01 -1.36 1.02 0 0 Z " fill="#A9ABB0" transform="translate(309,361)"/>
<path d="M0 0 C0.99 0.33 1.98 0.66 3 1 C2.25 3.4375 2.25 3.4375 1 6 C-1 6.875 -1 6.875 -3 7 C-3.66 6.67 -4.32 6.34 -5 6 C-5 5.34 -5 4.68 -5 4 C-3.68 4 -2.36 4 -1 4 C-0.67 2.68 -0.34 1.36 0 0 Z " fill="#93999F" transform="translate(350,399)"/>
<path d="M0 0 C1.32 0 2.64 0 4 0 C3.01 2.97 2.02 5.94 1 9 C-1.08954032 4.82091936 -1.16552619 4.19589427 0 0 Z " fill="#8A8F96" transform="translate(354,387)"/>
<path d="M0 0 C1.98 0 3.96 0 6 0 C6 1.32 6 2.64 6 4 C4.02 4 2.04 4 0 4 C0 2.68 0 1.36 0 0 Z " fill="#B3B6BC" transform="translate(138,387)"/>
<path d="M0 0 C1.65 0 3.3 0 5 0 C5.33 0.66 5.66 1.32 6 2 C5.01 2.495 5.01 2.495 4 3 C3.27840576 4.64363134 2.60648579 6.31050386 2 8 C0 6 0 6 -0.125 2.875 C-0.08375 1.92625 -0.0425 0.9775 0 0 Z " fill="#767C85" transform="translate(132,387)"/>
<path d="M0 0 C2.33944736 0.28730055 4.6739143 0.61936779 7 1 C6.67 1.66 6.34 2.32 6 3 C4.68 3 3.36 3 2 3 C1.67 4.65 1.34 6.3 1 8 C0.67 8 0.34 8 0 8 C-0.38063221 5.6739143 -0.71269945 3.33944736 -1 1 C-0.67 0.67 -0.34 0.34 0 0 Z " fill="#9DA2A5" transform="translate(189,387)"/>
<path d="M0 0 C0.33 0 0.66 0 1 0 C1 4.95 1 9.9 1 15 C0.67 15 0.34 15 0 15 C-0.12375 13.88625 -0.2475 12.7725 -0.375 11.625 C-0.6465813 7.96896323 -0.6465813 7.96896323 -3 6 C-2.34 6 -1.68 6 -1 6 C-1.0309375 4.7934375 -1.0309375 4.7934375 -1.0625 3.5625 C-1 1 -1 1 0 0 Z " fill="#DADBDD" transform="translate(249,381)"/>
<path d="M0 0 C0.33 0.99 0.66 1.98 1 3 C2.98 3 4.96 3 7 3 C6.67 3.99 6.34 4.98 6 6 C4.02 6 2.04 6 0 6 C0 4.02 0 2.04 0 0 Z " fill="#B1B4B8" transform="translate(222,392)"/>
<path d="M0 0 C1.32 0 2.64 0 4 0 C2.87548273 2.9719385 1.77706209 5.33440687 0 8 C-0.66 7.67 -1.32 7.34 -2 7 C-1.34 4.69 -0.68 2.38 0 0 Z " fill="#9499A0" transform="translate(280,387)"/>
<path d="M0 0 C0.6875 1.625 0.6875 1.625 1 4 C-0.4375 7.25 -0.4375 7.25 -2 10 C-2.33 10 -2.66 10 -3 10 C-3.36923077 3.47692308 -3.36923077 3.47692308 -1.5 1.0625 C-1.005 0.711875 -0.51 0.36125 0 0 Z " fill="#ABB1B5" transform="translate(294,349)"/>
<path d="M0 0 C0.99 0 1.98 0 3 0 C2.25 6.625 2.25 6.625 0 10 C-2.475 9.01 -2.475 9.01 -5 8 C-2 6 -2 6 1 6 C0.67 4.02 0.34 2.04 0 0 Z " fill="#757A83" transform="translate(177,388)"/>
<path d="M0 0 C0.66 0 1.32 0 2 0 C1.5020163 3.73487777 1.12508244 5.81237635 -1 9 C-1 8.01 -1 7.02 -1 6 C-1.66 6 -2.32 6 -3 6 C-3 5.34 -3 4.68 -3 4 C-2.34 4 -1.68 4 -1 4 C-0.67 2.68 -0.34 1.36 0 0 Z " fill="#969DA2" transform="translate(273,354)"/>
<path d="M0 0 C3.3 0 6.6 0 10 0 C10.33 0.99 10.66 1.98 11 3 C10.34 3 9.68 3 9 3 C8.67 3.66 8.34 4.32 8 5 C8 4.01 8 3.02 8 2 C5.36 1.67 2.72 1.34 0 1 C0 0.67 0 0.34 0 0 Z " fill="#80868D" transform="translate(344,326)"/>
<path d="M0 0 C1.65 0 3.3 0 5 0 C5 1.32 5 2.64 5 4 C4.34 4 3.68 4 3 4 C2.67 4.99 2.34 5.98 2 7 C1.34 4.69 0.68 2.38 0 0 Z " fill="#91949B" transform="translate(126,387)"/>
<path d="M0 0 C0.33 0.99 0.66 1.98 1 3 C-0.4375 5.6875 -0.4375 5.6875 -2 8 C-3.65 7.67 -5.3 7.34 -7 7 C-6.67 6.34 -6.34 5.68 -6 5 C-5.01 5 -4.02 5 -3 5 C-3 4.34 -3 3.68 -3 3 C-1.5 1.375 -1.5 1.375 0 0 Z " fill="#B8BBBD" transform="translate(391,355)"/>
<path d="M0 0 C1.485 0.99 1.485 0.99 3 2 C2.625 4.9375 2.625 4.9375 2 8 C1.01 8.495 1.01 8.495 0 9 C0 6.03 0 3.06 0 0 Z " fill="#C8CACD" transform="translate(351,392)"/>
<path d="M0 0 C0 0.66 0 1.32 0 2 C-2.97 2 -5.94 2 -9 2 C-9 1.34 -9 0.68 -9 0 C-3.375 -1.125 -3.375 -1.125 0 0 Z " fill="#FCFADB" transform="translate(205,148)"/>
<path d="M0 0 C0.66 1.32 1.32 2.64 2 4 C0.125 5.0625 0.125 5.0625 -2 6 C-2.66 5.67 -3.32 5.34 -4 5 C-4 4.01 -4 3.02 -4 2 C-3.01 2 -2.02 2 -1 2 C-0.67 1.34 -0.34 0.68 0 0 Z " fill="#A8ADB2" transform="translate(155,400)"/>
<path d="M0 0 C2.31 0 4.62 0 7 0 C8.09658936 3.28976808 7.79953138 4.71303767 7 8 C6.67 8 6.34 8 6 8 C6 6.35 6 4.7 6 3 C5.01 2.67 4.02 2.34 3 2 C2.01 1.34 1.02 0.68 0 0 Z " fill="#737A83" transform="translate(294,387)"/>
<path d="M0 0 C0 0.99 0 1.98 0 3 C-2.97 3 -5.94 3 -9 3 C-5.92807025 0.26939578 -4.09590633 -0.34132553 0 0 Z " fill="#83878E" transform="translate(217,361)"/>
<path d="M0 0 C-1.75 4.875 -1.75 4.875 -4 6 C-4 5.34 -4 4.68 -4 4 C-4.66 3.67 -5.32 3.34 -6 3 C-3.375 0 -3.375 0 0 0 Z " fill="#93999E" transform="translate(83,328)"/>
<path d="M0 0 C0.99 0 1.98 0 3 0 C2.34 2.64 1.68 5.28 1 8 C0.01 7.01 -0.98 6.02 -2 5 C-1.34 3.35 -0.68 1.7 0 0 Z " fill="#888E94" transform="translate(184,355)"/>
<path d="M0 0 C0.33 0 0.66 0 1 0 C1 3.96 1 7.92 1 12 C-0.32 12.33 -1.64 12.66 -3 13 C-2.34 12.01 -1.68 11.02 -1 10 C-0.54398739 7.49103314 -0.54398739 7.49103314 -0.375 4.8125 C-0.30023438 3.91144531 -0.22546875 3.01039063 -0.1484375 2.08203125 C-0.09945312 1.39496094 -0.05046875 0.70789063 0 0 Z " fill="#F0C06C" transform="translate(227,171)"/>
<path d="M0 0 C0.33 0 0.66 0 1 0 C1.0825 0.78375 1.165 1.5675 1.25 2.375 C1.72806339 5.14749104 1.72806339 5.14749104 4.0625 6.3125 C4.701875 6.539375 5.34125 6.76625 6 7 C4.34385343 7.38218767 2.67542976 7.71395102 1 8 C0 7 0 7 -0.0625 3.4375 C-0.041875 2.303125 -0.02125 1.16875 0 0 Z " fill="#D6D9DB" transform="translate(359,390)"/>
<path d="M0 0 C0.33 0 0.66 0 1 0 C1 2.31 1 4.62 1 7 C1.66 7 2.32 7 3 7 C3 7.66 3 8.32 3 9 C1.35 9 -0.3 9 -2 9 C-2 8.34 -2 7.68 -2 7 C-1.34 7 -0.68 7 0 7 C0 4.69 0 2.38 0 0 Z " fill="#B8BBC0" transform="translate(270,389)"/>
<path d="M0 0 C2 3 2 3 2 7 C-0.31 7 -2.62 7 -5 7 C-4.0409375 6.6596875 -4.0409375 6.6596875 -3.0625 6.3125 C-0.72806339 5.14749104 -0.72806339 5.14749104 -0.25 2.375 C-0.1675 1.59125 -0.085 0.8075 0 0 Z " fill="#F2F3F4" transform="translate(317,390)"/>
<path d="M0 0 C1.98 0.495 1.98 0.495 4 1 C3.67 1.99 3.34 2.98 3 4 C0.9375 4.6875 0.9375 4.6875 -1 5 C-0.67 3.35 -0.34 1.7 0 0 Z " fill="#9A9EA4" transform="translate(313,386)"/>
<path d="M0 0 C0.99 0.33 1.98 0.66 3 1 C1.37660195 2.70884005 -0.29319053 4.37446717 -2 6 C-2.66 6 -3.32 6 -4 6 C-2.84826645 3.53199953 -1.95216435 1.95216435 0 0 Z " fill="#AFB3B6" transform="translate(366,330)"/>
<path d="M0 0 C-0.33 0.66 -0.66 1.32 -1 2 C-2.32 2 -3.64 2 -5 2 C-5.33 2.66 -5.66 3.32 -6 4 C-6.66 3.67 -7.32 3.34 -8 3 C-8 2.34 -8 1.68 -8 1 C-5.29120665 -0.35439668 -2.99066732 -0.06501451 0 0 Z " fill="#8B9197" transform="translate(170,326)"/>
<path d="M0 0 C2 2 2 2 2 6 C0.35 6.66 -1.3 7.32 -3 8 C-3 7.01 -3 6.02 -3 5 C-2.34 4.67 -1.68 4.34 -1 4 C-0.34786708 1.97536745 -0.34786708 1.97536745 0 0 Z " fill="#F6DE7D" transform="translate(272,216)"/>
<path d="M0 0 C0.99 0.99 1.98 1.98 3 3 C1.68 3.33 0.36 3.66 -1 4 C-1.33 3.01 -1.66 2.02 -2 1 C-1.34 0.67 -0.68 0.34 0 0 Z " fill="#79818B" transform="translate(270,381)"/>
<path d="M0 0 C1.32 0 2.64 0 4 0 C4 0.99 4 1.98 4 3 C2.68 3 1.36 3 0 3 C0 2.01 0 1.02 0 0 Z " fill="#868C94" transform="translate(380,395)"/>
</svg>
